<svg width="169" height="168" viewBox="0 0 169 168" fill="none" xmlns="http://www.w3.org/2000/svg">
<path d="M144.316 42.2976H23.9497C22.1554 42.2976 20.7009 43.7529 20.7009 45.548V132.042C20.7009 133.837 22.1554 135.293 23.9497 135.293H144.316C146.111 135.293 147.565 133.837 147.565 132.042V45.548C147.565 43.7529 146.111 42.2976 144.316 42.2976Z" fill="#D9EDCB"/>
<path d="M25.3856 42.2976H157.454C160.04 42.2976 162.139 44.3974 162.139 46.9847V56.5345H20.7009V46.9847C20.7009 44.3974 22.7996 42.2976 25.3856 42.2976Z" fill="#6B7665"/>
<path d="M29.3296 50.5603C29.9468 50.5603 30.4472 50.0597 30.4472 49.4421C30.4472 48.8246 29.9468 48.324 29.3296 48.324C28.7124 48.324 28.212 48.8246 28.212 49.4421C28.212 50.0597 28.7124 50.5603 29.3296 50.5603Z" fill="#FAFAFA"/>
<path d="M37.1397 49.4421C37.1397 50.0597 36.6394 50.5603 36.0221 50.5603C35.4049 50.5603 34.9045 50.0597 34.9045 49.4421C34.9045 48.8245 35.4049 48.324 36.0221 48.324C36.6394 48.324 37.1397 48.8245 37.1397 49.4421Z" fill="#FAFAFA"/>
<path d="M42.7211 50.5603C43.3383 50.5603 43.8387 50.0597 43.8387 49.4421C43.8387 48.8246 43.3383 48.324 42.7211 48.324C42.1039 48.324 41.6035 48.8246 41.6035 49.4421C41.6035 50.0597 42.1039 50.5603 42.7211 50.5603Z" fill="#FAFAFA"/>
<path d="M159.104 34.772H101.231C98.4107 34.772 96.1235 36.8067 96.1235 39.6216V51.9733C96.1235 54.6452 98.1767 56.8359 100.789 57.057L103.147 68.9666L112.393 57.0115H159.098C161.918 57.0115 164.029 54.7947 164.029 51.9733V39.6216C164.029 36.8002 161.918 34.772 159.098 34.772H159.104Z" fill="white"/>
<path d="M154.16 39.0952H99.21V40.948H154.16V39.0952Z" fill="#6B7665"/>
<path d="M159.715 42.8008H99.21V44.6535H159.715V42.8008Z" fill="#6B7665"/>
<path d="M143.66 47.1238H99.21V48.9765H143.66V47.1238Z" fill="#6B7665"/>
<path d="M148.598 50.8293H99.21V52.6821H148.598V50.8293Z" fill="#6B7665"/>
<g clip-path="url(#clip0_46_308)">
<path d="M69.1085 71.2728L97.2618 97.1404C100.103 99.8386 100.628 104.175 98.5065 107.462C95.8181 111.614 90.0884 112.428 86.3497 109.181L57.1885 84.4606C53.895 81.6221 53.1419 76.809 55.3963 73.0954C58.3369 68.2621 64.9971 67.3717 69.1085 71.2728Z" fill="black"/>
<path d="M101.787 76.1069C101.787 76.1069 104.398 67.7352 111.657 67.053C112.194 67.0068 114.445 64.6772 115.005 64.7477C119.995 65.3308 119.394 68.6421 118.329 71.9366C117.553 74.3118 115.652 76.147 113.287 76.9338L106.665 80.2071L104.974 86.3205L98.7381 82.6485L101.773 76.0976L101.787 76.1069Z" fill="#FFBE9D"/>
<path d="M120.539 54.2522L122.772 55.9672L108.844 74.7732L106.583 72.9788L120.539 54.2522Z" fill="black"/>
<path d="M88.8174 89.3825L97.2568 74.4249L111.274 82.9534L98.5064 107.462L88.8174 89.3825Z" fill="black"/>
<path d="M59.727 62.9494C59.727 62.9494 50.1314 67.9076 47.399 80.7206C44.676 93.5196 50.7234 142.784 50.7234 142.784C50.7234 142.784 71.4962 145.792 87.0555 134.014C87.0555 134.014 78.569 80.0545 69.5986 70.3867L59.727 62.9494Z" fill="black"/>
<path d="M34.488 130.972L37.808 118.066L31.018 117.514L27.8244 129.472C27.2717 129.437 26.6491 129.476 26.0032 129.581C28.4554 131.24 31.1036 132.848 33.7403 134.033L34.488 130.972Z" fill="#FFBE9D"/>
<path d="M49.1387 98.9402C50.0262 96.1543 46.4692 93.514 43.9445 92.0391C40.4735 90.0126 34.8201 91.9401 33.6336 95.7807L25.5668 125.505L39.8877 128.136L49.1411 98.9519L49.1387 98.9402Z" fill="black"/>
<path d="M25.9266 128.892C28.6047 126.635 32.599 126.968 34.8548 129.649C37.1107 132.33 36.7799 136.328 34.1042 138.596C31.4261 140.853 27.4318 140.521 25.1759 137.839C22.92 135.158 23.2508 131.16 25.9266 128.892Z" fill="#FFBE9D"/>
<path d="M29.6449 140.067C29.6449 140.067 30.7815 142.729 33.4734 140.785C36.1653 138.841 38.5784 134.829 34.8548 129.649L29.6449 140.067Z" fill="#FFBE9D"/>
<path d="M65.0296 81.527L45.4569 103.339C43.2544 105.853 38.8988 105.289 36.1341 103.401C33.4231 101.538 32.4829 97.976 33.9418 95.0155C37.0019 88.8357 42.4368 80.8842 51.4875 69.9064C54.2127 66.6087 58.9165 65.7562 62.6534 67.839C67.6165 70.5996 68.772 77.2499 65.0296 81.527Z" fill="black"/>
<path d="M47.2418 105.847L49.1387 98.9402L61.7166 85.1602" fill="black"/>
<path d="M71.006 58.5293L67.7938 70.3337L57.3053 65.3978L61.8141 48.9057L71.006 58.5293Z" fill="#FFBE9D"/>
<path d="M69.1324 65.4312C69.1884 65.2259 66.0629 57.694 66.0629 57.694L70.6532 59.8615L69.144 65.4289L69.1324 65.4312Z" fill="#D6918A"/>
<path d="M72.7344 34.2909C72.7344 34.2909 78.2722 34.8862 78.98 41.7835C78.98 41.7835 79.4322 46.7901 80.0302 53.9883C80.3524 57.7952 77.0815 61.0924 73.3112 60.4847C71.0075 60.1186 68.4103 59.3135 66.0536 57.7081L62.6971 54.9185C54.8008 47.0511 60.8052 33.3797 71.9206 34.2225C72.1911 34.2415 72.4523 34.2744 72.7367 34.3026L72.7344 34.2909Z" fill="#FFBE9D"/>
<path d="M78.8062 49.0021L81.4447 51.231C81.8083 51.5347 81.6472 52.125 81.1784 52.2063L78.7018 52.6149L78.8062 49.0021Z" fill="#FFBE9D"/>
<path d="M76.7731 43.7888C76.7731 43.7888 78.5828 43.3796 78.7712 44.2036C78.7712 44.2036 78.8806 44.7522 77.2971 45.0799C75.7113 45.3959 75.2729 45.3255 75.0143 44.8188C74.7558 44.3122 75.9126 43.9117 76.7731 43.7888Z" fill="black"/>
<path d="M76.794 48.396C76.7355 48.8323 77.0337 49.234 77.4581 49.2951C77.8801 49.3445 78.2674 49.0367 78.3259 48.6003C78.3844 48.164 78.0861 47.7623 77.6618 47.7012C77.2397 47.6518 76.8525 47.9596 76.794 48.396Z" fill="black"/>
<path d="M79.9907 53.4868C79.7925 53.5263 77.1644 53.6617 77.1644 53.6617C77.1644 53.6617 78.3109 55.1564 80.0343 54.9221L79.9907 53.4868Z" fill="white"/>
<path d="M66.1476 47.1078C66.1476 47.1078 58.0959 32.9248 77.1172 36.5121C77.1172 36.5121 69.2655 28.0776 58.2259 33.9425C55.6486 35.3056 53.0492 38.6874 52.7283 41.5788C52.1966 46.2718 55.2216 49.6493 59.7675 56.7039C59.7675 56.7039 63.0905 56.5271 64.0795 51.209C64.304 50.0236 66.1476 47.1078 66.1476 47.1078Z" fill="black"/>
<path d="M68.0447 48.7805C68.0447 48.7805 71.3774 43.2381 67.7887 38.6139C67.7887 38.6139 84.4671 41.0299 82.0948 33.3237C78.9613 23.1359 59.7419 33.2156 59.7419 33.2156L57.9362 39.4852L64.4771 48.642L68.0447 48.7805Z" fill="black"/>
<path d="M61.054 48.4989C61.011 50.534 62.6192 52.2158 64.6409 52.2619C66.6742 52.3057 68.3539 50.6968 68.3993 48.6733C68.4422 46.6382 66.8341 44.9564 64.8124 44.9103C62.7791 44.8665 61.0994 46.4755 61.054 48.4989Z" fill="#FFBE9D"/>
<path d="M66.3422 49.3624C66.3422 49.3624 66.4042 46.6925 63.846 47.0567" stroke="#231E24" stroke-width="0.36" stroke-linecap="round" stroke-linejoin="round"/>
<path d="M66.4445 31.5034C66.4445 31.5034 70.7297 23.684 78.2155 27.1796C85.7013 30.6753 81.7435 36.5486 81.7435 36.5486L71.9806 35.5575L66.4445 31.5034Z" fill="black"/>
</g>
<defs>
<clipPath id="clip0_46_308">
<rect width="112.5" height="112.5" fill="white" transform="matrix(-0.980715 0.195444 0.195444 0.980715 115.205 18)"/>
</clipPath>
</defs>
</svg>
