<svg width="49" height="49" viewBox="0 0 49 49" fill="none" xmlns="http://www.w3.org/2000/svg">
<g clip-path="url(#clip0_219_1744)">
<path fill-rule="evenodd" clip-rule="evenodd" d="M18.5 11C18.5 10.6022 18.658 10.2206 18.9393 9.93934C19.2206 9.65804 19.6022 9.5 20 9.5H44C44.3978 9.5 44.7794 9.65804 45.0607 9.93934C45.342 10.2206 45.5 10.6022 45.5 11V38C45.5 38.3978 45.342 38.7794 45.0607 39.0607C44.7794 39.342 44.3978 39.5 44 39.5H20C19.6022 39.5 19.2206 39.342 18.9393 39.0607C18.658 38.7794 18.5 38.3978 18.5 38V32C18.5 31.6022 18.342 31.2206 18.0607 30.9393C17.7794 30.658 17.3978 30.5 17 30.5C16.6022 30.5 16.2206 30.658 15.9393 30.9393C15.658 31.2206 15.5 31.6022 15.5 32V38C15.5 39.1935 15.9741 40.3381 16.818 41.182C17.6619 42.0259 18.8065 42.5 20 42.5H44C45.1935 42.5 46.3381 42.0259 47.182 41.182C48.0259 40.3381 48.5 39.1935 48.5 38V11C48.5 9.80653 48.0259 8.66193 47.182 7.81802C46.3381 6.97411 45.1935 6.5 44 6.5H20C18.8065 6.5 17.6619 6.97411 16.818 7.81802C15.9741 8.66193 15.5 9.80653 15.5 11V17C15.5 17.3978 15.658 17.7794 15.9393 18.0607C16.2206 18.342 16.6022 18.5 17 18.5C17.3978 18.5 17.7794 18.342 18.0607 18.0607C18.342 17.7794 18.5 17.3978 18.5 17V11Z" fill="#44513C"/>
<path fill-rule="evenodd" clip-rule="evenodd" d="M36.062 25.5619C36.2017 25.4226 36.3125 25.2571 36.3881 25.0748C36.4638 24.8926 36.5027 24.6972 36.5027 24.4999C36.5027 24.3026 36.4638 24.1073 36.3881 23.925C36.3125 23.7428 36.2017 23.5773 36.062 23.4379L27.062 14.4379C26.9225 14.2985 26.757 14.1878 26.5748 14.1124C26.3925 14.0369 26.1972 13.998 26 13.998C25.8028 13.998 25.6075 14.0369 25.4252 14.1124C25.243 14.1878 25.0775 14.2985 24.938 14.4379C24.7985 14.5774 24.6879 14.743 24.6124 14.9252C24.537 15.1074 24.4981 15.3027 24.4981 15.4999C24.4981 15.6972 24.537 15.8925 24.6124 16.0747C24.6879 16.2569 24.7985 16.4225 24.938 16.5619L31.379 22.9999H5C4.60218 22.9999 4.22064 23.158 3.93934 23.4393C3.65804 23.7206 3.5 24.1021 3.5 24.4999C3.5 24.8978 3.65804 25.2793 3.93934 25.5606C4.22064 25.8419 4.60218 25.9999 5 25.9999H31.379L24.938 32.4379C24.7985 32.5774 24.6879 32.743 24.6124 32.9252C24.537 33.1074 24.4981 33.3027 24.4981 33.4999C24.4981 33.6972 24.537 33.8925 24.6124 34.0747C24.6879 34.2569 24.7985 34.4225 24.938 34.5619C25.0775 34.7014 25.243 34.812 25.4252 34.8875C25.6075 34.963 25.8028 35.0018 26 35.0018C26.1972 35.0018 26.3925 34.963 26.5748 34.8875C26.757 34.812 26.9225 34.7014 27.062 34.5619L36.062 25.5619Z" fill="#44513C"/>
</g>
<defs>
<clipPath id="clip0_219_1744">
<rect width="48" height="48" fill="white" transform="translate(0.5 0.5)"/>
</clipPath>
</defs>
</svg>
