<svg width="169" height="168" viewBox="0 0 169 168" fill="none" xmlns="http://www.w3.org/2000/svg">
<path d="M114.044 40.4616C114.404 38.5697 113.24 36.7205 111.375 36.2177C109.364 35.6723 107.294 36.8909 106.806 38.9106C106.455 40.3593 106.216 42.9074 105.985 45.6088L113.599 47.9268L114.044 40.4531V40.4616Z" fill="white"/>
<path d="M113.599 47.9268L105.985 45.6089L104.975 56.0568C104.787 57.9742 106.199 59.6275 108.115 59.8916C108.141 59.8916 108.158 59.8916 108.184 59.9002C110.305 60.224 112.307 58.8179 112.71 56.713L113.599 47.9183V47.9268Z" fill="#FFBE9D"/>
<path d="M82.594 73.5351L107.884 50.1851C107.884 50.1851 110.451 52.9291 111.811 54.2415C113.189 55.5709 113.146 57.7781 111.726 59.0649L86.4183 76.7735L82.5854 73.5437L82.594 73.5351Z" fill="#FFBE9D"/>
<path d="M85.7767 79.7902C90.1657 76.2366 86.4269 70.1178 81.2422 72.3762C76.8532 75.9298 80.592 82.0485 85.7767 79.7902Z" fill="#FFBE9D"/>
<path d="M79.745 77.3701C79.745 77.3701 78.128 77.728 78.4788 75.5549C78.8295 73.3818 80.3182 71.3451 84.4933 72.0183L79.745 77.3701Z" fill="#FFBE9D"/>
<path d="M127.613 18.7051L111.957 22.2417C111.957 22.2417 106.139 30.4568 109.15 42.2086H135.108C135.108 42.2086 137.23 37.4789 132.533 30.9255C129.65 26.9032 127.613 18.7051 127.613 18.7051Z" fill="black"/>
<path d="M106.618 150.676L108.492 137.697L100.022 137.006L98.2079 151.323L104.796 152.815L106.618 150.676Z" fill="#FFBE9D"/>
<path d="M107.208 150.113C107.208 150.113 100.569 152.678 97.5662 148.358L84.3479 156.292L109.125 156.641L107.217 150.113H107.208Z" fill="black"/>
<path d="M84.3455 156.304L84.3005 158.46L109.235 158.976L109.28 156.82L84.3455 156.304Z" fill="white"/>
<path d="M117.381 98.1039L110.562 141.114H97.0273C97.8058 134.765 101.853 102.706 103.572 92.4453C108.158 65.1752 111.084 58.6218 111.084 58.6218L121.274 56.7981L122.403 58.4343L113.591 58.707L117.381 98.1124V98.1039Z" fill="#3F443B"/>
<path d="M131.121 150.676L131.335 137.697L122.865 137.006L122.711 151.323L129.299 152.815L131.121 150.676Z" fill="#FFBE9D"/>
<path d="M131.712 150.113C131.712 150.113 125.072 152.678 122.069 148.358L108.851 156.292L133.628 156.641L131.72 150.113H131.712Z" fill="black"/>
<path d="M108.853 156.301L108.808 158.457L133.742 158.973L133.787 156.817L108.853 156.301Z" fill="white"/>
<path d="M122.403 58.4257L126.339 58.3064C126.339 58.3064 133.055 65.4392 133.406 78.6397C133.637 87.4429 134.124 128.28 133.876 141.114H119.956L117.381 98.1038L113.591 58.6984L122.403 58.4257Z" fill="#3F443B"/>
<path d="M117.381 98.1038L115.73 74.0635" stroke="#7F7F7F" stroke-width="0.5325" stroke-miterlimit="10"/>
<path d="M115.73 74.0635L111.991 72.3591" stroke="#7F7F7F" stroke-width="0.5325" stroke-miterlimit="10"/>
<path d="M118.664 35.2888L128.358 36.6353C129.478 36.7887 130.248 37.8454 130.052 38.9532L126.698 58.6133H111.101L107.037 39.7287C106.738 38.0414 107.927 36.4478 109.647 36.2603L118.681 35.2803L118.664 35.2888Z" fill="white"/>
<path d="M108.457 46.3673L107.542 42.4387" stroke="#DEDEDE" stroke-width="0.42" stroke-linecap="round" stroke-linejoin="round"/>
<path d="M136.768 40.0525L133.251 49.7504C133.251 49.7504 144.134 53.3978 146.521 54.8551C149.216 56.4913 151.287 55.7499 152.707 52.9462C154.024 50.3555 153.04 47.1853 150.482 45.7877L136.759 40.061L136.768 40.0525Z" fill="#FFBE9D"/>
<path d="M129.966 37.2063C127.665 35.945 124.781 36.6609 123.336 38.851C121.778 41.2116 121.103 44.6204 123.515 46.0947C125.243 47.1514 133.251 49.7506 133.251 49.7506L136.768 40.0526L129.966 37.2148V37.2063Z" fill="white"/>
<path d="M128.64 48.1825L125.192 46.7764" stroke="#DEDEDE" stroke-width="0.42" stroke-linecap="round" stroke-linejoin="round"/>
<path d="M132.071 67.7657L145.315 47.9011C146.855 45.8473 149.806 45.4894 151.791 47.1171C153.802 48.7618 153.674 52.3495 151.894 54.2414L136.126 70.6546L132.079 67.7572L132.071 67.7657Z" fill="#FFBE9D"/>
<path d="M122.163 69.3509L126.878 66.1211L126.236 65.0814C126.005 64.7065 126.048 64.2122 126.356 63.8884C126.672 63.556 127.177 63.4793 127.571 63.7094L132.841 66.7262L136.562 70.169C134.141 72.862 132.353 73.0665 131.267 72.7512C131.155 72.8108 131.036 72.8705 130.924 72.9131L126.886 74.6686C126.518 74.8902 126.048 74.7879 125.808 74.43C125.637 74.1743 125.526 73.7397 126.279 73.2284L125.526 73.7482C125.141 73.9783 124.636 73.8675 124.388 73.4841C124.157 73.1517 124.319 72.6489 124.756 72.2825L124.165 72.6063C123.746 72.862 123.19 72.7086 122.951 72.2569C122.754 71.8649 122.908 71.3877 123.267 71.1405L124.097 70.5696L123.07 70.9701C122.608 71.2087 122.027 71.0212 121.796 70.5269C121.599 70.1094 121.77 69.6066 122.155 69.3424L122.163 69.3509Z" fill="#FFBE9D"/>
<path d="M118.322 12.518C117.971 11.913 117.852 10.3364 117.852 10.3364C121.282 10.3364 124.816 11.8704 126.527 14.9979C129.034 19.5912 127.211 26.707 121.308 28.8631C115.644 30.9424 118.656 13.0975 118.656 13.0975L118.322 12.518Z" fill="black"/>
<path d="M113.899 29.9625L114.275 35.9108C114.404 37.9987 115.764 39.0384 117.826 38.8935C119.588 38.7742 121.18 37.7516 121.274 35.9961L120.221 26.6646L113.89 29.9625H113.899Z" fill="#FFBE9D"/>
<path d="M114.155 34.9223L121.137 28.1133L113.847 29.3575L114.155 34.9223Z" fill="#FFBE9D"/>
<path d="M115.713 30.9255C112.188 30.934 109.27 28.1729 109.168 25.301L108.962 18.5346C108.834 14.9384 111.589 11.8875 115.191 11.6404C117.903 11.4529 122.822 15.4582 122.976 17.7847L123.087 23.2302C123.173 27.44 119.939 30.6358 115.713 30.9255Z" fill="#FFBE9D"/>
<path d="M109.099 16.9155C108.954 13.3789 112.059 11.1717 114.386 10.6092C116.32 10.1405 118.356 10.2002 120.247 10.8308C122.497 11.5807 124.935 13.2596 123.276 16.941C124.362 17.4779 125.329 18.083 125.329 18.083L121.274 22.9234C121.274 22.9234 120.983 21.594 120.555 18.7477C118.442 17.9125 118.519 16.6854 118.296 15.356C113.591 16.8473 109.091 16.9155 109.091 16.9155H109.099Z" fill="black"/>
<path d="M126.373 22.4463C126.475 23.9547 125.338 25.2586 123.823 25.3608C122.309 25.4631 121 24.3297 120.897 22.8213C120.795 21.3129 121.932 20.0091 123.447 19.9068C124.961 19.8045 126.27 20.938 126.373 22.4463Z" fill="#FFBE9D"/>
<path d="M122.737 23.52C122.737 23.52 122.6 21.5429 124.516 21.7219" stroke="black" stroke-width="0.36" stroke-linecap="round" stroke-linejoin="round"/>
<path d="M112.924 23.52L112.787 24.6534L113.719 24.6875" stroke="black" stroke-width="0.36" stroke-linecap="round" stroke-linejoin="round"/>
<path d="M117.081 18.3727C117.081 18.3727 115.499 18.2449 115.482 18.8841C115.482 18.8841 115.482 19.3187 116.868 19.4039C118.245 19.4891 118.604 19.3868 118.733 18.9778C118.861 18.5687 117.826 18.3727 117.081 18.3642V18.3727Z" fill="black"/>
<path d="M110.708 18.5429C110.708 18.5429 112.017 18.4066 112.119 19.0117C112.119 19.0117 112.179 19.4207 111.041 19.5144C109.895 19.6082 109.527 19.4633 109.416 19.131C109.296 18.756 110.092 18.5515 110.708 18.5429Z" fill="black"/>
<path d="M112.248 25.8208H116.337C116.337 25.8208 116.337 27.2866 114.292 27.1843C112.136 27.082 112.248 25.8208 112.248 25.8208Z" fill="white"/>
<path d="M115.285 21.9603C115.285 21.9603 116.157 21.04 117.381 21.9603" stroke="black" stroke-width="0.36" stroke-linecap="round" stroke-linejoin="round"/>
<path d="M109.835 21.9603C109.835 21.9603 110.46 21.1763 111.298 21.9603" stroke="black" stroke-width="0.36" stroke-linecap="round" stroke-linejoin="round"/>
<path d="M112.641 22.4204H113.967" stroke="black" stroke-width="0.36" stroke-miterlimit="10"/>
<path d="M119.469 22.4205L121.163 21.4575" stroke="black" stroke-width="0.36" stroke-miterlimit="10"/>
<path d="M116.731 25.0966C118.243 25.0966 119.468 23.8757 119.468 22.3696C119.468 20.8635 118.243 19.6426 116.731 19.6426C115.219 19.6426 113.993 20.8635 113.993 22.3696C113.993 23.8757 115.219 25.0966 116.731 25.0966Z" stroke="black" stroke-width="0.36" stroke-miterlimit="10"/>
<path d="M112.65 22.2077C112.65 23.6223 111.495 24.7728 110.074 24.7728C108.654 24.7728 107.499 23.6223 107.499 22.2077C107.499 20.793 108.654 19.6426 110.074 19.6426C111.495 19.6426 112.65 20.793 112.65 22.2077Z" stroke="black" stroke-width="0.36" stroke-miterlimit="10"/>
<path d="M37.3252 121.045L23.894 132.399L30.3268 139.949L43.7579 128.595L37.3252 121.045Z" fill="#FFBE9D"/>
<path d="M25.7251 128.97L34.2122 139.214C34.2122 139.214 32.1247 141.216 34.4689 144.744C36.8131 148.272 36.5821 151.468 34.486 153.624L17.6572 133.308C17.6572 133.308 20.5405 131.22 25.7251 128.962V128.97Z" fill="#53584F"/>
<mask id="mask0_46_656" style="mask-type:luminance" maskUnits="userSpaceOnUse" x="17" y="128" width="20" height="26">
<path d="M25.7251 128.97L34.2122 139.214C34.2122 139.214 32.1247 141.216 34.4689 144.744C36.8131 148.272 36.5821 151.468 34.486 153.624L17.6572 133.308C17.6572 133.308 20.5405 131.22 25.7251 128.962V128.97Z" fill="white"/>
</mask>
<g mask="url(#mask0_46_656)">
<path d="M37.1896 147.062C37.1896 147.062 34.1438 143.347 26.6063 147.062L33.5962 155.508C33.5962 155.508 38.3189 150.352 37.181 147.054L37.1896 147.062Z" fill="white"/>
</g>
<path d="M34.5011 153.636L17.6692 133.319L16.2108 134.518L33.0428 154.834L34.5011 153.636Z" fill="white"/>
<path d="M33.3824 141.106C33.3824 141.106 32.8605 140.458 30.8414 139.981" stroke="white" stroke-width="0.5175" stroke-linecap="round" stroke-linejoin="round"/>
<path d="M33.6903 143.415C33.6903 143.415 32.6466 142.29 31.1579 142.333" stroke="white" stroke-width="0.5175" stroke-linecap="round" stroke-linejoin="round"/>
<path d="M53.8301 75.5547C53.8301 75.5547 54.4718 90.4169 53.3425 99.0582L29.5494 124.377L37.9938 135.788C37.9938 135.788 60.5377 118.735 64.6187 111.483C68.7082 104.231 65.9277 91.823 65.9277 91.823L53.8216 75.5547H53.8301Z" fill="#3F443B"/>
<path d="M75.3488 133.905L65.4088 134.083L65.7255 151.626L75.6654 151.448L75.3488 133.905Z" fill="#FFBE9D"/>
<path d="M64.2082 148.042L77.5463 147.991C77.5463 147.991 77.7773 150.872 82.0038 151.289C86.2302 151.715 88.5659 153.922 88.9167 156.905L62.4714 157.016C62.4714 157.016 62.6768 153.471 64.2082 148.042Z" fill="#53584F"/>
<mask id="mask1_46_656" style="mask-type:luminance" maskUnits="userSpaceOnUse" x="62" y="147" width="27" height="11">
<path d="M64.2082 148.042L77.5463 147.991C77.5463 147.991 77.7773 150.872 82.0038 151.289C86.2302 151.715 88.5659 153.922 88.9167 156.905L62.4714 157.016C62.4714 157.016 62.6768 153.471 64.2082 148.042Z" fill="white"/>
</mask>
<g mask="url(#mask1_46_656)">
<path d="M85.5285 150.667C85.5285 150.667 80.7117 150.667 78.8295 158.831L89.8149 158.788C89.8149 158.788 88.7968 151.886 85.52 150.667H85.5285Z" fill="white"/>
</g>
<path d="M88.8984 156.911L62.4534 157.017L62.461 158.9L88.906 158.795L88.8984 156.911Z" fill="white"/>
<path d="M78.4788 149.823C78.4788 149.823 77.6489 149.823 75.9977 151.067" stroke="white" stroke-width="0.5175" stroke-linecap="round" stroke-linejoin="round"/>
<path d="M80.4636 151.051C80.4636 151.051 78.9322 151.136 78.0167 152.32" stroke="white" stroke-width="0.5175" stroke-linecap="round" stroke-linejoin="round"/>
<path d="M53.3168 61.843C53.1201 61.8004 47.0798 66.5727 58.2106 96.2886C60.3239 101.939 60.5206 107.93 61.3163 113.903L63.7204 144.455L76.5281 143.73L75.7239 104.947L72.2075 64.0587L53.3254 61.8345L53.3168 61.843Z" fill="#3F443B"/>
<path d="M54.2665 84.4858C54.2665 84.4858 60.2982 101.112 61.4446 115.582" stroke="#7B8675" stroke-width="0.5475" stroke-miterlimit="10"/>
<path d="M75.4415 35.519L85.9991 51.2419C88.1038 54.3439 88.1637 58.3066 84.8698 60.1132C81.9267 61.7324 78.2307 60.8035 76.4083 57.9828L65.423 43.2143C63.4723 40.189 63.9771 35.357 67.1084 33.576C69.966 31.9568 73.5935 32.7919 75.433 35.5019L75.4415 35.519Z" fill="#6B7665"/>
<path d="M103.093 51.7702L80.7288 50.7305C77.6232 50.543 76.1431 52.9974 76.2885 56.0993C76.4168 58.9712 78.8466 61.1955 81.7298 61.0847L96.4796 60.7182L103.033 54.6165L103.093 51.7787V51.7702Z" fill="#6B7665"/>
<path d="M103.076 52.7841L105.318 52.5625L103.033 54.6078L103.076 52.7841Z" fill="#FFBE9D"/>
<path d="M77.0927 41.3904C77.3494 38.2543 75.9634 35.195 73.4053 33.3542C71.4204 31.9311 68.1436 31.8885 66.1245 31.7265C66.1245 31.7265 66.6122 30.8403 63.4466 31.1982C59.8019 31.6158 55.43 33.2434 53.2655 36.192C51.657 38.3907 50.7758 41.024 50.733 43.7425L46.0703 72.8619C46.0703 72.8619 53.736 81.0003 74.0812 71.5325L77.0927 41.3904Z" fill="#6B7665"/>
<path d="M75.5527 56.8236C75.5441 54.0114 76.2029 46.069 75.5356 40.6831" stroke="#3F443B" stroke-width="0.54" stroke-miterlimit="10"/>
<path d="M80.1214 80.3101C77.7771 79.671 76.3911 77.2593 77.0328 74.9243C77.6745 72.5893 80.0957 71.2087 82.4399 71.8479C84.7841 72.487 86.1701 74.8987 85.5285 77.2337C84.8868 79.5687 82.4656 80.9493 80.1214 80.3101Z" fill="#FFBE9D"/>
<path d="M85.0408 73.8164C85.0408 73.8164 86.1188 72.1291 83.9457 71.3536C81.7726 70.5781 78.5301 70.7741 77.0328 74.9328L85.0408 73.8164Z" fill="#FFBE9D"/>
<path d="M80.2925 70.8252L58.1679 58.2979C55.49 56.7214 53.0516 58.2383 51.7597 61.059C50.562 63.6753 51.7084 66.7602 54.3264 67.9618L76.1174 78.5546L80.284 70.8167L80.2925 70.8252Z" fill="#6B7665"/>
<path d="M64.8583 40.9046L62.2488 60.6584C61.6842 64.357 59.0234 67.3055 55.3702 66.4107C52.1105 65.6097 50.0229 62.4225 50.6133 59.1245L52.2559 39.7797C52.8805 36.2431 56.5508 33.0389 60.0586 33.8485C63.2584 34.5899 65.3545 37.6578 64.8583 40.8961V40.9046Z" fill="#6B7665"/>
<path d="M73.8073 67.1437L62.2488 60.6585L63.9513 43.9385" stroke="#3F443B" stroke-width="0.54" stroke-miterlimit="10"/>
<path d="M51.4089 51.3696L50.6132 59.3462C50.3052 63.0021 52.2388 66.4875 55.507 68.1919L66.8688 74.072" stroke="#3F443B" stroke-width="0.54" stroke-miterlimit="10"/>
<path d="M60.358 17.6314C60.358 17.6314 55.8407 9.58669 61.9921 9.1265C65.6625 8.8538 66.7918 7.78856 71.3519 6.54436C76.6222 5.11268 83.2955 11.3422 75.2618 16.498L63.515 13.0807L60.3495 17.6314H60.358Z" fill="black"/>
<path d="M70.9412 20.0686C70.83 21.594 71.985 22.9149 73.5165 23.0257C75.0479 23.1365 76.374 21.986 76.4852 20.4606C76.5965 18.9352 75.4415 17.6143 73.91 17.5035C72.3786 17.3927 71.0525 18.5431 70.9412 20.0686Z" fill="#D8968F"/>
<path d="M70.7616 23.2217L70.2568 32.2891C70.0943 34.8371 68.3318 34.9053 65.8165 34.7263C63.669 34.573 62.6338 33.7293 62.514 31.5818L63.5493 21.9775L70.7702 23.2132L70.7616 23.2217Z" fill="#FFBE9D"/>
<path d="M70.3081 31.3516L64.6358 26.6645L70.6504 25.3948L70.3081 31.3516Z" fill="#D8968F"/>
<path d="M67.5875 28.1134L68.1264 28.1475C71.7968 28.4032 74.9452 25.5824 75.0821 21.9265L75.3302 15.2794C75.4671 11.6405 72.678 8.54706 69.0248 8.2914C65.286 8.02722 61.3932 10.7883 61.128 14.5124L60.9997 20.9379C60.9227 24.6961 63.823 27.8578 67.5875 28.1219V28.1134Z" fill="#FFBE9D"/>
<path d="M71.4118 19.4976L71.6771 22.0456L70.7873 21.9774" stroke="black" stroke-width="0.3675" stroke-linecap="round" stroke-linejoin="round"/>
<path d="M68.1265 16.302C68.1265 16.302 69.6323 16.2338 69.6238 16.8559C69.6238 16.8559 69.6066 17.2735 68.2891 17.3161C66.9715 17.3502 66.6379 17.2394 66.5352 16.8389C66.4325 16.4384 67.4164 16.285 68.1265 16.302Z" fill="black"/>
<path d="M73.8587 16.6684C73.8587 16.6684 72.6182 16.4895 72.4984 17.069C72.4984 17.069 72.4214 17.461 73.5079 17.5888C74.5945 17.7166 74.9538 17.5888 75.065 17.2735C75.1934 16.9156 74.449 16.694 73.8587 16.6599V16.6684Z" fill="black"/>
<path d="M71.754 23.2131L67.5618 22.9233C67.5618 22.9233 67.4506 24.3806 69.8804 24.5595C71.4974 24.6703 71.7455 23.2216 71.7455 23.2216L71.754 23.2131Z" fill="white"/>
<path d="M69.2131 19.3443C69.2131 19.3443 68.5201 18.7648 67.4934 19.225" stroke="black" stroke-width="0.3675" stroke-linecap="round" stroke-linejoin="round"/>
<path d="M74.2352 19.6937C74.2352 19.6937 73.7817 19.1228 72.7551 19.5915" stroke="black" stroke-width="0.3675" stroke-linecap="round" stroke-linejoin="round"/>
<path d="M62.0007 19.4636C62.0007 19.4636 66.4496 17.0605 65.192 13.1574C65.192 13.1574 72.3273 10.3196 75.2619 14.0011L76.4254 9.64638L71.1295 7.07275L62.3601 9.83386L59.9303 12.9614L60.3752 17.2394L62.0179 19.4722L62.0007 19.4636Z" fill="black"/>
<path d="M57.4663 19.1228C57.355 20.6482 58.51 21.9691 60.0415 22.0799C61.5729 22.1907 62.899 21.0402 63.0103 19.5148C63.1215 17.9894 61.9665 16.6685 60.435 16.5577C58.9036 16.4469 57.5775 17.5973 57.4663 19.1228Z" fill="#FFBE9D"/>
<path d="M61.1537 20.2049C61.1537 20.2049 61.2906 18.2022 59.3485 18.3812" stroke="black" stroke-width="0.3675" stroke-linecap="round" stroke-linejoin="round"/>
<path d="M64.2765 31.1216C64.2765 31.1216 63.5835 30.7211 61.0938 31.6159C61.0938 31.6159 62.4884 36.2688 68.3062 36.0387C70.7188 35.945 71.4118 34.0957 71.3862 32.3573C71.3862 32.3914 71.3862 32.3232 71.3862 32.3573C71.3862 32.3573 69.4868 31.1983 65.8165 31.0364L64.285 31.1216H64.2765Z" fill="#FFBE9D"/>
</svg>
