<svg width="1200" height="345" viewBox="0 0 1200 345" fill="none" xmlns="http://www.w3.org/2000/svg">
<path d="M832.78 62.171L819.435 253.955L660.242 147.12L832.78 62.171Z" fill="#44513C"/>
<path d="M818.654 254.078L831.998 62.2945L991.191 169.129L818.654 254.078Z" fill="#44513C"/>
<path d="M373.035 66.9149L372.131 259.16L206.357 162.843L373.035 66.9149Z" fill="#44513C"/>
<path d="M371.359 259.333L372.263 67.0884L538.037 163.405L371.359 259.333Z" fill="#44513C"/>
<path d="M166.702 48.5819L165.799 240.827L0.0241868 144.51L166.702 48.5819Z" fill="#44513C"/>
<path d="M165.026 241L165.93 48.7554L331.705 145.072L165.026 241Z" fill="#44513C"/>
<path d="M1035.81 48.5829L1034.9 240.828L869.129 144.511L1035.81 48.5829Z" fill="#44513C"/>
<path d="M1033.3 241.001L1034.2 48.7564L1199.98 145.073L1033.3 241.001Z" fill="#44513C"/>
<rect x="0.0239258" y="144.586" width="1199.95" height="199.992" fill="#44513C"/>
</svg>
