<svg width="821" height="400" viewBox="0 0 821 400" fill="none" xmlns="http://www.w3.org/2000/svg">
<path d="M569.628 71.7675L560.5 294.673L451.607 170.502L569.628 71.7675Z" fill="#44513C"/>
<path d="M559.395 294.816L568.523 71.9103L677.415 196.081L559.395 294.816Z" fill="#44513C"/>
<path d="M255.15 77.2806L254.532 300.722L141.137 188.776L255.15 77.2806Z" fill="#44513C"/>
<path d="M253.433 300.923L254.051 77.4818L367.446 189.428L253.433 300.923Z" fill="#44513C"/>
<path d="M114.013 55.9729L113.394 279.414L0.000102673 167.468L114.013 55.9729Z" fill="#44513C"/>
<path d="M112.866 279.615L113.484 56.1742L226.878 168.12L112.866 279.615Z" fill="#44513C"/>
<path d="M708.504 55.9729L707.886 279.414L594.492 167.468L708.504 55.9729Z" fill="#44513C"/>
<path d="M706.787 279.615L707.405 56.1742L820.8 168.12L706.787 279.615Z" fill="#44513C"/>
<rect y="167.554" width="820.8" height="232.446" fill="#44513C"/>
</svg>
