<svg width="720" height="300" viewBox="0 0 720 300" fill="none" xmlns="http://www.w3.org/2000/svg">
<path d="M499.674 37.0496L491.666 152.124L396.147 88.0212L499.674 37.0496Z" fill="#44513C"/>
<path d="M490.697 152.198L498.704 37.1232L594.224 101.226L490.697 152.198Z" fill="#44513C"/>
<path d="M223.815 39.896L223.273 155.247L123.805 97.4554L223.815 39.896Z" fill="#44513C"/>
<path d="M222.31 155.352L222.852 40.0001L322.321 97.7921L222.31 155.352Z" fill="#44513C"/>
<path d="M100.011 28.896L99.4686 144.247L1.98864e-06 86.4554L100.011 28.896Z" fill="#44513C"/>
<path d="M99.0053 144.352L99.5476 29.0001L199.016 86.7921L99.0053 144.352Z" fill="#44513C"/>
<path d="M621.495 28.896L620.953 144.247L521.484 86.4554L621.495 28.896Z" fill="#44513C"/>
<path d="M619.989 144.352L620.531 29.0001L720 86.7921L619.989 144.352Z" fill="#44513C"/>
<rect y="86.5" width="720" height="213.5" fill="#44513C"/>
</svg>
