<svg width="821" height="401" viewBox="0 0 821 401" fill="none" xmlns="http://www.w3.org/2000/svg">
<path d="M569.673 43.0119L560.554 174.325L451.767 101.176L569.673 43.0119Z" fill="#44513C"/>
<path d="M559.45 174.41L568.569 43.0969L677.356 116.246L559.45 174.41Z" fill="#44513C"/>
<path d="M255.501 46.2607L254.883 177.89L141.6 111.942L255.501 46.2607Z" fill="#44513C"/>
<path d="M253.786 178.008L254.404 46.3795L367.688 112.327L253.786 178.008Z" fill="#44513C"/>
<path d="M114.501 33.7084L113.884 165.337L0.599893 99.3902L114.501 33.7084Z" fill="#44513C"/>
<path d="M113.356 165.456L113.974 33.8272L227.257 99.7744L113.356 165.456Z" fill="#44513C"/>
<path d="M708.414 33.7084L707.797 165.337L594.513 99.3902L708.414 33.7084Z" fill="#44513C"/>
<path d="M706.699 165.456L707.317 33.8272L820.6 99.7744L706.699 165.456Z" fill="#44513C"/>
<rect x="0.999512" y="99.4414" width="819.201" height="301.293" fill="#44513C"/>
</svg>
