<svg width="375" height="300" viewBox="0 0 375 300" fill="none" xmlns="http://www.w3.org/2000/svg">
<path d="M260.246 19.2965L256.076 79.2313L206.326 45.8443L260.246 19.2965Z" fill="#44513C"/>
<path d="M255.57 79.2699L259.741 19.3351L309.491 52.7221L255.57 79.2699Z" fill="#44513C"/>
<path d="M116.571 20.779L116.289 80.8579L64.4822 50.7579L116.571 20.779Z" fill="#44513C"/>
<path d="M115.788 80.9124L116.071 20.8335L167.877 50.9335L115.788 80.9124Z" fill="#44513C"/>
<path d="M52.0888 15.05L51.8064 75.1289L-0.000188711 45.0289L52.0888 15.05Z" fill="#44513C"/>
<path d="M51.5655 75.1829L51.8479 15.104L103.654 45.204L51.5655 75.1829Z" fill="#44513C"/>
<path d="M323.694 15.05L323.412 75.1289L271.605 45.0289L323.694 15.05Z" fill="#44513C"/>
<path d="M322.909 75.1829L323.192 15.104L374.998 45.204L322.909 75.1829Z" fill="#44513C"/>
<rect y="45.0518" width="375" height="62.5" fill="#44513C"/>
<rect y="105" width="375" height="195" fill="#44513C"/>
</svg>
