<svg width="1440" height="413" viewBox="0 0 1440 413" fill="none" xmlns="http://www.w3.org/2000/svg">
<path d="M999.347 74.0992L983.333 304.249L792.293 176.042L999.347 74.0992Z" fill="#44513C"/>
<path d="M981.395 304.397L997.409 74.2474L1188.45 202.454L981.395 304.397Z" fill="#44513C"/>
<path d="M447.631 79.792L446.546 310.495L247.609 194.911L447.631 79.792Z" fill="#44513C"/>
<path d="M444.62 310.703L445.704 80.0002L644.642 195.584L444.62 310.703Z" fill="#44513C"/>
<path d="M200.022 57.792L198.937 288.495L4.05218e-06 172.911L200.022 57.792Z" fill="#44513C"/>
<path d="M198.011 288.703L199.095 58.0002L398.032 173.584L198.011 288.703Z" fill="#44513C"/>
<path d="M1242.99 57.792L1241.91 288.495L1042.97 172.911L1242.99 57.792Z" fill="#44513C"/>
<path d="M1239.98 288.703L1241.06 58.0002L1440 173.584L1239.98 288.703Z" fill="#44513C"/>
<rect y="173" width="1440" height="240" fill="#44513C"/>
</svg>
