<svg width="169" height="168" viewBox="0 0 169 168" fill="none" xmlns="http://www.w3.org/2000/svg">
<path d="M139.256 32.0513H10.4758C8.55619 32.0513 7 33.6083 7 35.5289V128.069C7 129.989 8.55619 131.546 10.4758 131.546H139.256C141.175 131.546 142.732 129.989 142.732 128.069V35.5289C142.732 33.6083 141.175 32.0513 139.256 32.0513Z" fill="#F5F5F5"/>
<path d="M12.0122 32.0513H153.312C156.079 32.0513 158.324 34.2978 158.324 37.066V47.2833H7V37.066C7 34.2978 9.24539 32.0513 12.0122 32.0513Z" fill="#99C779"/>
<path d="M19.5789 36.4283C20.2392 36.4283 20.7746 35.8927 20.7746 35.232C20.7746 34.5712 20.2392 34.0356 19.5789 34.0356C18.9185 34.0356 18.3832 34.5712 18.3832 35.232C18.3832 35.8927 18.9185 36.4283 19.5789 36.4283Z" fill="#FAFAFA"/>
<path d="M27.935 35.232C27.935 35.8927 27.3997 36.4283 26.7393 36.4283C26.0789 36.4283 25.5436 35.8927 25.5436 35.232C25.5436 34.5712 26.0789 34.0356 26.7393 34.0356C27.3997 34.0356 27.935 34.5712 27.935 35.232Z" fill="#FAFAFA"/>
<path d="M33.9064 36.4283C34.5667 36.4283 35.1021 35.8927 35.1021 35.232C35.1021 34.5712 34.5667 34.0356 33.9064 34.0356C33.246 34.0356 32.7107 34.5712 32.7107 35.232C32.7107 35.8927 33.246 36.4283 33.9064 36.4283Z" fill="#FAFAFA"/>
<path d="M157.789 117.9C157.789 117.9 157.782 117.949 157.775 117.977H155.557L121.216 117.865L98.5537 117.796H97.8655L96.2735 117.789L75.5436 117.726L27.7786 117.58H26.0268H24.8102H24.1081H23.7953C23.7953 117.58 23.7466 117.504 23.6632 117.358C23.6562 117.344 23.6493 117.33 23.6354 117.316C23.6076 117.26 23.5728 117.198 23.5311 117.128C23.3087 116.718 22.9541 116.05 22.544 115.16C22.4397 114.93 22.3285 114.687 22.2103 114.423C22.1199 114.214 22.0226 113.998 21.9322 113.776C21.8975 113.699 21.8697 113.623 21.8349 113.546C21.8002 113.47 21.7723 113.386 21.7376 113.31C21.5638 112.885 21.39 112.433 21.2093 111.953C21.0355 111.48 20.8617 110.987 20.6948 110.472C20.6948 110.458 20.6879 110.451 20.6809 110.437C20.5836 110.145 20.4932 109.853 20.4029 109.547C20.2708 109.102 20.1387 108.643 20.0136 108.17C19.8954 107.718 19.7772 107.259 19.6729 106.786C19.4783 105.951 19.3114 105.075 19.1724 104.177C18.8874 102.369 18.7275 100.442 18.7553 98.4463C18.7831 96.5962 18.9778 94.6905 19.3949 92.7639C20.4376 87.9369 22.8638 82.9709 27.577 78.4221C44.9145 61.7016 59.8258 70.9661 67.3962 70.5001C68.7518 70.4166 69.9406 69.881 71.1154 69.0255C73.2635 67.4606 75.3351 64.8385 78.2339 62.0216C82.5718 57.7997 88.7588 53.1536 99.7772 50.9766C113.409 48.2849 132.144 49.0431 140.243 57.1251C145.144 62.0146 146.159 69.5889 139.798 80.7034C139.409 81.3781 138.999 82.0667 138.554 82.7691C138.185 83.3603 137.858 83.9237 137.58 84.4593C136.878 85.8086 136.468 86.998 136.294 88.0621C135.877 90.6147 136.837 92.4161 138.568 93.9045C139.061 94.3288 139.624 94.7322 140.229 95.1217C142.245 96.3945 144.796 97.4934 147.334 98.7732C148.738 99.4826 150.135 100.248 151.442 101.138C152.659 101.959 153.792 102.891 154.772 103.969C155.412 104.671 155.988 105.443 156.482 106.292C156.51 106.341 156.538 106.389 156.565 106.438C157.198 107.565 157.678 108.837 157.97 110.277C157.984 110.347 157.998 110.423 158.011 110.5C158.394 112.586 158.366 115.028 157.796 117.921L157.789 117.9Z" fill="#D9EDCB"/>
<path d="M139.791 80.6895L63.2044 93.7168L57.7125 87.1232L140.236 57.1042C145.137 61.9938 146.152 69.5681 139.791 80.6826V80.6895Z" fill="#CFDBC6"/>
<path d="M157.775 117.97L121.216 117.858L98.5538 117.789H97.8655L96.2736 117.782C81.7029 109.693 77.2607 101.207 77.2607 101.207C77.7821 101.075 115.071 93.3897 140.229 95.1006C142.245 96.3735 144.796 97.4724 147.334 98.7522C148.738 99.4616 150.135 100.227 151.442 101.117C156.107 104.275 159.583 108.956 157.768 117.963L157.775 117.97Z" fill="#D1E7C2"/>
<path d="M157.775 117.97L23.7884 117.559C23.7884 117.559 16.6003 105.666 19.388 92.7428C21.0355 93.8626 22.9055 94.6763 24.0943 93.7513C25.5958 92.5828 29.892 89.1747 33.1453 86.5874C35.3838 84.8068 37.1287 83.4227 37.1287 83.4227C37.1287 83.4227 38.957 81.663 40.1526 82.1568C40.7088 82.3864 41.2441 82.9289 41.7168 83.4297C42.266 84.007 42.7248 84.5216 43.0306 84.4034C43.3018 84.2991 45.3108 82.2473 47.6396 79.9729C50.1214 77.5455 52.9646 74.8677 54.487 73.9983C54.487 73.9983 55.9052 72.5447 57.4415 74.207C58.227 75.0555 59.4366 77.2325 60.7922 79.8477C63.9135 85.8849 67.7925 94.266 68.9674 94.1547C70.6566 93.9947 73.2774 90.2458 74.8763 89.8702C76.4682 89.4947 83.7258 102.619 86.8193 103.183C89.9128 103.746 95.8217 98.9608 100.604 100.366C105.387 101.771 113.124 109.651 120.292 108.246C126.034 107.119 139.013 100.769 147.327 98.7591C153.729 101.993 160.09 106.431 157.768 117.97H157.775Z" fill="#8CB96E"/>
<path d="M157.858 117.518L138.616 117.698L121.209 117.865L23.7814 117.566C23.7814 117.566 20.3681 111.912 19.1585 104.164C18.8735 102.355 18.7136 100.429 18.7414 98.4324C31.0876 99.3713 54.5704 106.167 61.091 107.321C68.4946 108.636 93.8126 109.95 101.501 112.009C109.19 114.075 117.344 113.414 121.473 112.76C125.596 112.106 138.554 112.197 142.801 109.714C145.464 108.149 151.748 106.973 152.061 107.627C152.721 109.004 153.201 110.416 153.541 111.599C153.813 111.473 154.091 111.355 154.362 111.251C154.195 110.416 153.966 108.81 154.48 108.205C155.182 107.37 155.62 108.636 155.509 109.762C155.46 110.229 155.279 110.653 155.078 110.987C155.509 110.646 156.211 110.124 156.635 110.062C157.031 110.006 157.462 110.096 157.719 110.173C157.65 109.776 157.511 109.283 157.247 108.726C156.864 107.919 155.314 107.412 154.202 106.96C153.208 106.556 152.554 106.201 153.402 105.721C154.299 105.214 155.46 105.694 156.399 106.306C156.461 106.347 156.517 106.382 156.572 106.424C157.205 107.551 157.685 108.824 157.977 110.263C158.387 112.308 158.394 114.701 157.872 117.525L157.858 117.518Z" fill="#D9EDCB"/>
<path d="M157.859 117.517L138.616 117.698L121.209 117.865L98.5468 117.796H97.8586L96.2666 117.789L75.5367 117.726L23.7884 117.566C23.7884 117.566 20.3751 111.911 19.1655 104.163C29.0022 105.012 48.4808 106.862 71.7759 109.797C105.248 114.019 122.697 116.801 140.883 111.167C144.24 110.131 147.146 109.192 149.69 108.378C150.518 108.114 151.31 107.864 152.061 107.62C152.805 107.384 153.521 107.161 154.195 106.952C154.967 106.716 155.697 106.5 156.392 106.299C156.454 106.34 156.51 106.375 156.566 106.417C157.198 107.544 157.678 108.816 157.97 110.256C158.38 112.301 158.387 114.694 157.866 117.517H157.859Z" fill="#7B8675"/>
<path d="M155.558 117.517L121.216 117.865L98.5538 117.796H97.8656L96.2736 117.789L75.5437 117.726L23.7676 117.517C23.7676 117.517 23.6981 117.406 23.5382 117.107C23.3157 116.697 22.9612 116.029 22.551 115.139C28.0707 113.212 38.0185 109.296 47.452 112.322C61.5152 116.829 117.914 117.531 127.897 115.702C137.879 113.873 150.559 111.174 154.181 114.534C155.161 115.445 155.537 116.217 155.571 117.511L155.558 117.517Z" fill="#D9EDCB"/>
<path d="M23.6285 117.295C23.6007 117.239 23.566 117.177 23.5242 117.107C23.3018 116.697 22.9473 116.029 22.5371 115.139C22.4328 114.909 22.3216 114.666 22.2034 114.401C22.1131 114.193 22.0157 113.977 21.9254 113.755C21.8906 113.678 21.8628 113.602 21.828 113.525C21.7933 113.449 21.7655 113.365 21.7307 113.289C24.1151 107.704 29.4749 96.5751 34.4801 97.9661C39.4158 99.3363 29.1273 111.327 23.6285 117.288V117.295Z" fill="#6B7665"/>
<path d="M20.3959 109.526C20.2639 109.081 20.1318 108.622 20.0066 108.149C19.8885 107.697 19.7703 107.238 19.666 106.765C20.6532 101.757 22.259 95.6503 24.1985 95.8729C26.4995 96.1372 22.7943 104.553 20.3959 109.526Z" fill="#6B7665"/>
<path d="M39.1099 112.593C37.4414 113.483 32.6309 115.709 28.5363 117.573H26.3744H24.8728C28.3625 114.318 34.4731 109.568 39.8398 109.616C40.3542 109.616 40.7991 109.992 40.8825 110.493C40.9659 111.028 40.667 111.766 39.1168 112.593H39.1099Z" fill="#6B7665"/>
<path d="M157.859 117.518C157.838 117.643 157.81 117.775 157.782 117.9H138.436C138.436 117.9 138.498 117.824 138.616 117.698C139.346 116.913 142.189 114.103 145.394 114.589C149.12 115.153 149.961 114.026 149.961 114.026C150.483 113.504 151.053 113.045 151.637 112.649C149.058 111.689 144.358 109.783 146.52 109.401C148.543 109.046 150.962 111.014 152.262 112.252C152.429 112.155 152.596 112.065 152.763 111.974C151.734 110.361 150.684 109.248 149.676 108.371C149.12 107.892 148.578 107.481 148.064 107.099C147.07 106.368 146.166 105.742 145.436 104.922C143.343 102.557 145.234 101.833 145.234 101.833C147.751 101.938 149.621 103.607 150.983 105.701C151.38 106.313 151.734 106.96 152.047 107.613C152.707 108.99 153.187 110.402 153.528 111.585C153.799 111.46 154.077 111.341 154.348 111.237C154.181 110.402 153.952 108.796 154.466 108.191C155.168 107.356 155.606 108.622 155.495 109.749C155.446 110.215 155.266 110.639 155.064 110.973C155.495 110.632 156.197 110.11 156.621 110.048C157.017 109.992 157.448 110.082 157.706 110.159C157.636 109.762 157.497 109.269 157.233 108.712C156.851 107.905 155.3 107.398 154.188 106.946C153.194 106.542 152.541 106.187 153.389 105.708C154.285 105.2 155.446 105.68 156.385 106.292C156.447 106.334 156.503 106.368 156.559 106.41C157.191 107.537 157.671 108.81 157.963 110.249C158.373 112.294 158.38 114.687 157.859 117.511V117.518Z" fill="#6B7665"/>
<path d="M113.368 93.473C113.368 93.473 111.345 92.5479 109.808 93.3547C108.272 94.1615 109.211 100.825 111.407 101.472C111.407 101.472 115.516 102.786 113.368 93.473Z" fill="black"/>
<path d="M119.228 103.447C119.228 103.447 119.214 103.426 119.207 103.419C119.158 103.343 119.075 103.162 119.019 103.023C119.43 101.027 119.152 99.8719 119.152 99.8719C119.2 99.2877 119.548 95.2328 118.748 93.3479C118.366 92.4368 117.719 92.4368 117.719 92.4368C117.719 92.4368 116.447 94.1965 116.35 94.9754C116.26 95.6918 118.359 102.091 118.477 103.183L118.512 104.295L118.839 104.219C118.839 104.219 118.867 104.212 118.88 104.205C118.922 104.184 118.957 104.156 118.978 104.115L119.242 103.697C119.291 103.614 119.291 103.517 119.242 103.44L119.228 103.447ZM118.609 103.266H118.623C118.623 103.266 118.623 103.266 118.616 103.266H118.609Z" fill="#FFBE9D"/>
<path d="M120.257 115.535C120.257 115.535 120.577 115.918 121.091 115.911C121.411 115.911 121.703 116.001 121.918 116.182C122.106 116.342 122.03 116.648 121.786 116.704L119.367 117.26C119.138 117.316 118.908 117.156 118.873 116.919C118.853 116.739 118.825 116.544 118.797 116.391C118.734 116.029 119.026 115.661 119.026 115.661L120.257 115.542V115.535Z" fill="black"/>
<path d="M120.688 115.57C120.688 115.57 119.993 116.112 118.616 116.078C118.616 116.078 117.177 109.901 116.899 109.526C116.837 109.435 116.698 109.206 116.531 108.907C116.517 108.879 116.503 108.851 116.489 108.83C115.933 107.836 115.071 106.173 115.008 105.916C114.925 105.575 115.919 101.2 116.732 101.339C117.344 101.444 117.865 101.722 118.095 101.854C118.171 101.896 118.213 101.931 118.213 101.931C118.213 101.931 118.241 102.056 118.296 102.271C118.345 102.466 118.415 102.737 118.491 103.057C118.498 103.099 118.512 103.141 118.519 103.183C118.971 105.019 119.777 108.295 119.895 108.858C120.062 109.644 120.681 115.577 120.681 115.577L120.688 115.57Z" fill="black"/>
<path d="M118.498 103.057L116.489 108.83C115.933 107.836 115.071 106.173 115.008 105.916C114.925 105.575 115.919 101.2 116.732 101.339C117.344 101.444 117.865 101.722 118.095 101.854C118.171 101.896 118.213 101.931 118.213 101.931C118.213 101.931 118.241 102.056 118.296 102.271C118.345 102.466 118.415 102.737 118.491 103.057H118.498Z" fill="black"/>
<path d="M113.528 116.092C113.528 116.092 113.743 116.516 114.223 116.62C114.529 116.683 114.786 116.843 114.946 117.065C115.085 117.253 114.946 117.517 114.716 117.517H112.276C112.068 117.517 111.908 117.337 111.929 117.128C111.95 116.947 111.964 116.738 111.977 116.572C111.998 116.217 112.346 115.932 112.346 115.932L113.528 116.085V116.092Z" fill="black"/>
<path d="M112.339 87.9089C112.193 87.2829 112.374 86.8169 112.659 86.3648C112.937 85.9336 113.326 85.9197 113.701 85.551C114.056 85.2102 114.709 84.9807 115.231 84.9807C116.899 84.9807 118.345 86.0031 118.018 87.7419C117.914 88.2914 118.005 88.7296 117.553 89.3695C116.997 90.1763 116.315 90.8162 115.231 90.8162C114.654 90.8162 114.146 90.684 113.701 90.2598C113.458 90.0302 113.111 90.0024 112.895 89.752C112.464 89.2443 112.499 88.5835 112.339 87.895V87.9089Z" fill="black"/>
<path d="M116.76 91.9847L114.682 93.0489L114.264 91.6022C114.264 91.6022 114.529 91.1014 114.647 90.2807C114.695 89.9329 114.723 89.5364 114.688 89.0913L116.385 89.9607C116.385 89.9607 116.343 90.1207 116.315 90.3502C116.287 90.6006 116.273 90.9345 116.343 91.2614C116.406 91.5396 116.531 91.7969 116.753 91.9847H116.76Z" fill="#FFBE9D"/>
<path d="M111.943 102.459C111.943 102.459 111.546 107.711 111.637 116.071C111.637 116.071 112.116 116.321 112.693 116.377C113.771 116.481 114.028 116.057 114.028 116.057C114.028 116.057 115.126 111.974 115.405 110.138C115.655 108.441 117.323 102.32 117.323 102.32L111.95 102.452L111.943 102.459Z" fill="black"/>
<path d="M118.116 92.1238C117.907 92.0334 117.351 91.8108 116.496 91.6717C116.503 91.9708 116.427 92.249 115.898 92.3186C115.196 92.409 114.577 91.936 114.258 91.6091C114.258 91.6091 113.764 91.6648 113.194 91.79C112.909 91.8526 112.596 91.936 112.325 92.0404C111.991 92.1655 111.699 92.3186 111.546 92.5064C111.011 93.1671 110.121 95.1563 110.121 95.1563C110.121 95.1563 111.595 95.7058 111.964 96.0188V96.0883L112.2 98.001L111.512 101.813C111.512 101.813 111.505 101.882 111.505 101.91C111.505 102.167 111.679 102.397 111.936 102.452C111.936 102.452 111.991 102.459 112.103 102.48C112.832 102.585 115.78 102.932 118.102 102.306C118.623 102.167 118.964 101.666 118.922 101.131L118.547 96.3944C118.748 96.3596 118.978 96.3248 119.172 96.3039C119.332 96.29 119.457 96.2831 119.506 96.297C119.506 96.297 119.242 92.5481 118.116 92.1308V92.1238Z" fill="#3F443B"/>
<path opacity="0.4" d="M113.041 99.6006C112.992 100.929 112.867 102.056 112.102 102.48C111.991 102.466 111.936 102.452 111.936 102.452C111.678 102.39 111.505 102.16 111.505 101.91C111.505 101.875 111.505 101.84 111.512 101.812L112.2 98.0009L111.97 96.0882L111.984 96.0396C111.984 96.0396 113.097 97.9036 113.034 99.6076L113.041 99.6006Z" fill="#3F443B"/>
<path opacity="0.4" d="M119.172 96.2971C118.978 96.318 118.547 96.3875 118.547 96.3875L118.331 94.4053C118.331 94.4053 119.061 95.8033 119.172 96.2971Z" fill="#3F443B"/>
<path d="M111.644 101.131L111.825 100.143C114.842 95.7755 115.071 94.9896 113.715 93.0282C113.326 92.4648 112.617 92.1171 112.332 92.0336C112.61 91.9293 112.916 91.8528 113.201 91.7832C113.486 91.9154 113.75 92.0475 113.959 92.2283C118.102 95.8173 111.651 101.131 111.651 101.131H111.644Z" fill="black"/>
<path d="M116.35 91.2613C115.384 91.2335 114.647 90.2876 114.647 90.2876L116.315 90.3571C116.287 90.6075 116.274 90.9414 116.343 91.2683L116.35 91.2613Z" fill="#FFBE9D"/>
<path d="M116.44 90.677C116.44 90.677 114.306 90.9344 114.264 89.432C114.216 87.9297 115.106 86.956 115.697 86.9699C116.878 86.9907 117.073 87.4706 117.212 87.9645C117.351 88.4653 117.421 90.5657 116.44 90.6701V90.677Z" fill="#FFBE9D"/>
<path d="M115.87 89.8149C115.87 89.8149 115.919 90.0027 116.385 89.9679C116.385 89.9679 116.774 89.9401 116.76 89.7314C116.76 89.7314 116.378 89.5923 115.87 89.8149Z" fill="white"/>
<path d="M116.225 86.9908C116.225 86.9908 114.403 86.9908 114.821 88.2428C115.085 89.0287 114.209 89.1539 114.209 89.1539L113.785 87.888L114.049 86.9004L116.225 86.9908Z" fill="black"/>
<path d="M115.168 95.5249C114.64 95.5597 114.313 95.824 114.118 96.1022C114.118 96.1022 114.112 96.0883 114.105 96.0813C114.042 95.9979 113.945 96.2135 113.847 96.436C113.792 96.5682 113.806 96.6934 113.833 96.7769C113.833 96.7977 113.833 96.8116 113.833 96.8116C113.833 96.8116 111.852 96.9925 111.56 97.1246C111.56 97.1246 111.72 96.6864 112.005 96.0326C111.748 95.7753 110.9 95.3997 110.337 95.2258C109.906 96.3248 109.746 97.4028 109.982 98.4531C110.01 98.5644 110.107 98.6409 110.219 98.6478C110.851 98.6756 112.937 98.6687 114.459 97.4028H114.487C114.855 97.375 115.196 97.0133 115.328 96.5334C115.46 96.0535 115.467 96.1996 115.571 95.8657C115.676 95.5319 115.182 95.5249 115.182 95.5249H115.168Z" fill="#FFBE9D"/>
<path d="M60.7922 79.8547C60.0484 80.0911 59.0196 80.2233 58.8875 79.2217C58.6998 77.7681 54.5288 80.585 52.3737 81.1901C50.2187 81.8021 51.4353 79.3121 51.3866 78.6097C51.3588 78.1784 49.2594 79.1522 47.6396 79.9729C50.1214 77.5455 52.9646 74.8677 54.4871 73.9983C54.4871 73.9983 55.9052 72.5447 57.4415 74.207C58.2271 75.0555 59.4367 77.2325 60.7922 79.8477V79.8547Z" fill="#CFDBC6"/>
<path d="M41.7099 83.4298C41.6612 83.3881 41.258 83.0612 40.5281 83.4298C39.7495 83.8332 38.7137 84.0488 38.2479 83.9097C37.7822 83.7706 33.1384 86.5875 33.1384 86.5875C35.3769 84.8069 37.1217 83.4228 37.1217 83.4228C37.1217 83.4228 38.95 81.6632 40.1457 82.157C40.7019 82.3865 41.2371 82.929 41.7099 83.4298Z" fill="#CFDBC6"/>
<path d="M161.87 117.518H17.6639C17.5718 117.518 17.4971 117.592 17.4971 117.685V117.733C17.4971 117.825 17.5718 117.9 17.6639 117.9H161.87C161.962 117.9 162.036 117.825 162.036 117.733V117.685C162.036 117.592 161.962 117.518 161.87 117.518Z" fill="black"/>
<path d="M64.5809 116.377L63.6564 116.857C63.6564 116.857 63.1072 116.14 62.6136 115.271C62.266 114.666 61.9532 113.977 61.8767 113.421C61.689 112.064 60.25 109.832 60.403 109.456C60.5489 109.074 63.3991 108.42 63.3991 108.42C63.3991 108.42 63.9553 112.231 64.3237 114.701C64.4349 115.417 64.5253 116.022 64.5809 116.384V116.377Z" fill="#FFBE9D"/>
<path d="M63.8787 111.056C63.3504 111.314 62.8638 111.46 62.4397 111.543C61.8141 111.668 61.3413 111.647 61.1328 111.627C61.0563 111.62 61.0146 111.613 61.0146 111.613C61.0146 111.613 60.5002 111.244 59.9093 110.382C59.3671 109.596 58.9639 108.462 58.9639 108.448L63.3156 108.024L63.8857 111.056H63.8787Z" fill="black"/>
<path d="M62.4397 111.543C61.8141 111.668 61.3414 111.647 61.1328 111.626L61.6194 109.728C61.6194 109.728 62.252 110.715 62.4397 111.543Z" fill="black"/>
<path d="M64.5808 116.377L63.6563 116.857C63.6563 116.857 63.1071 116.14 62.6135 115.271C62.9959 115.243 63.6632 115.125 64.3236 114.694C64.4349 115.41 64.5252 116.015 64.5808 116.377Z" fill="#847263"/>
<path d="M62.4814 109.289C62.4814 109.289 61.3135 110.938 60.6114 113.247C60.4445 113.789 59.8815 114.471 59.3045 115.076C58.7483 115.66 58.1852 116.175 57.9836 116.425L57.0452 115.973C57.0452 115.973 57.3788 115.027 57.8655 114.165C58.0462 113.845 58.2478 113.539 58.4633 113.296C58.7622 112.962 58.6649 108.726 58.9638 108.448C59.2628 108.17 62.4883 109.289 62.4883 109.289H62.4814Z" fill="#FFBE9D"/>
<path d="M63.0376 108.309L61.3136 111.807C61.3136 111.807 60.0275 111.849 59.1238 111.341C58.6025 111.049 58.373 110.708 58.373 110.708L58.9083 108.309H63.0307H63.0376Z" fill="black"/>
<path d="M59.9579 96.6239C59.9579 96.6239 59.374 95.3928 57.9558 96.1231C56.5446 96.8534 57.9211 99.6494 57.1772 100.345C56.4334 101.034 57.4484 101.486 57.2954 101.979C57.1425 102.473 57.5735 103.037 58.5676 102.974C59.5547 102.904 60.5975 102.96 61.0493 102.098C61.4942 101.228 61.3969 99.3225 61.2231 99.0582C61.0493 98.787 59.9649 96.6308 59.9649 96.6308L59.9579 96.6239Z" fill="#847263"/>
<path d="M62.245 103.196L59.8397 101.743C59.8397 101.743 59.9023 101.666 60.083 101.145C60.1595 100.922 60.2012 100.727 60.2221 100.574C60.2221 100.56 60.2221 100.546 60.2221 100.533C60.2499 100.31 60.2221 100.185 60.2221 100.185L60.7504 100.373L61.7236 100.727C61.7097 100.978 61.7445 101.152 61.8001 101.27C61.9252 101.562 62.1616 101.562 62.1685 101.562L62.2311 103.196H62.245Z" fill="#FFBE9D"/>
<path d="M61.8141 101.263C60.8756 101.347 60.3403 100.728 60.2221 100.575C60.2082 100.554 60.1943 100.54 60.1943 100.54C60.1943 100.54 60.2082 100.54 60.2291 100.533C60.3056 100.512 60.5141 100.449 60.7644 100.373L61.7376 100.728C61.7237 100.978 61.7585 101.152 61.8141 101.27V101.263Z" fill="#847263"/>
<path d="M61.8558 100.929C61.8558 100.929 59.7633 101.159 59.7216 99.7469C59.6799 98.335 59.367 97.6812 60.82 97.556C62.2659 97.4308 62.6065 97.9524 62.6969 98.4323C62.9611 99.9277 62.4536 100.867 61.8627 100.929H61.8558Z" fill="#FFBE9D"/>
<path d="M57.9559 96.123C57.9281 96.0604 57.9072 96.0117 57.9072 96.0117C57.9281 96.0395 57.942 96.0813 57.9559 96.123Z" fill="#5D4F44"/>
<path d="M67.3616 95.7058C67.2851 95.6571 67.1461 95.6641 66.9653 95.7058C66.8332 95.7476 66.6803 95.8032 66.5204 95.8936C66.5065 95.8936 66.4996 95.8936 66.4857 95.9075C66.1103 96.1092 66.1242 97.0621 66.1242 97.076C65.8878 97.2708 64.9632 99.1348 64.7547 99.6425C64.5392 100.15 62.5371 101.694 62.5371 101.694L63.0376 103.391C63.6355 103.085 65.4638 100.992 65.8392 100.373C66.2215 99.7538 66.7637 97.702 66.6942 97.3612C66.7012 97.3473 66.7429 97.2777 66.8124 97.1803C66.9236 97.0065 67.1044 96.7422 67.2156 96.61C67.299 96.5126 67.3755 96.3179 67.4102 96.1371C67.4519 95.9354 67.438 95.7476 67.3616 95.7058Z" fill="#FFBE9D"/>
<path d="M60.9313 98.2445C60.1944 98.0567 60.4725 99.3713 60.2848 99.2809C60.0762 99.1835 59.7147 99.1835 59.7703 99.4339C59.826 99.6843 59.9094 99.7747 59.9511 99.9347C59.9928 100.095 59.9511 100.408 59.7773 100.345C59.6035 100.282 58.0046 98.4532 59.1377 97.0274C60.2709 95.6015 63.6355 96.4779 62.5788 97.9733C62.3911 98.2376 61.4596 98.3836 60.9313 98.2515V98.2445Z" fill="#847263"/>
<path d="M63.6145 108.823C63.6145 108.823 62.9888 109.157 61.9947 109.143C61.3621 109.136 60.0274 108.858 59.1654 108.552C58.6718 108.378 58.3381 108.184 58.3799 108.03C58.4355 107.801 58.8595 106.048 59.2488 104.428C59.6034 102.946 59.9301 101.569 59.9301 101.569C59.9301 101.569 60.9103 102.265 61.4803 102.021C62.0503 101.778 61.9808 101.5 61.9808 101.5C61.9808 101.5 62.3562 101.346 62.53 101.402C62.7038 101.458 63.2043 101.173 63.2043 101.173C63.2043 101.173 63.7535 101.597 63.7744 102.508C63.7744 102.64 63.7744 102.786 63.7466 102.946L63.3503 103.405C63.3503 103.405 64.1915 106.055 63.6214 108.837L63.6145 108.823Z" fill="black"/>
<path d="M66.1101 117.51H63.3572C63.3572 117.51 63.3016 117.065 63.3711 116.676C63.3781 116.627 63.4059 116.585 63.4407 116.551C63.6005 116.606 63.8369 116.641 64.1011 116.551C64.3166 116.474 64.4765 116.356 64.5877 116.245C64.6155 116.272 65.1855 116.815 65.4497 116.815C65.7139 116.815 66.131 116.947 66.1171 117.504L66.1101 117.51Z" fill="#847263"/>
<path d="M59.3045 115.069C58.7483 115.653 58.1852 116.168 57.9836 116.418L57.0452 115.966C57.0452 115.966 57.3788 115.02 57.8655 114.158C58.0323 114.422 58.4772 114.958 59.3114 115.069H59.3045Z" fill="#847263"/>
<path d="M58.1852 116.182C58.1852 116.182 58.1505 116.78 58.3521 116.857C58.5537 116.933 58.9221 117.135 58.9221 117.51H57.5457C57.5457 117.51 56.5933 117.044 56.4682 116.843C56.343 116.641 57.1008 115.792 57.1008 115.792C57.1008 115.792 57.5665 116.307 58.1922 116.175L58.1852 116.182Z" fill="#847263"/>
<path d="M59.1724 108.545C58.6788 108.371 58.3451 108.177 58.3868 108.024C58.4424 107.794 58.8665 106.041 59.2558 104.421C59.367 104.212 59.4435 104.087 59.4435 104.087C59.4435 104.087 60.1804 107.453 59.1724 108.552V108.545Z" fill="#D9EDCB"/>
<path d="M61.3136 106.5C61.0981 106.361 60.5698 106.445 60.4863 106.459C60.1874 106.285 59.3324 105.687 58.9222 105.339C58.8318 105.262 58.8388 105.102 58.9014 105.005C59.0682 104.748 59.3463 104.31 59.4436 104.087C59.5826 103.76 60.4863 101.903 59.965 101.75C59.965 101.75 58.1019 102.146 57.372 105.04C57.3025 105.325 57.372 105.624 57.5666 105.84C57.9073 106.215 58.6511 106.758 60.3751 106.959C60.3751 106.959 60.9174 107.3 61.4457 106.994C61.6125 106.897 61.543 106.653 61.3066 106.5H61.3136Z" fill="#FFBE9D"/>
<path d="M59.9372 101.555C59.9372 101.555 58.8457 101.632 57.949 102.821C57.949 102.821 58.2479 103.913 59.666 104.205C59.666 104.205 60.542 102.237 59.9302 101.548L59.9372 101.555Z" fill="black"/>
<path d="M111.025 55.8312L71.1084 69.0044C73.2565 67.4395 75.3281 64.8174 78.2269 62.0005L111.025 55.8242V55.8312Z" fill="#CFDBC6"/>
<path d="M109.788 60.2271C108.821 60.2271 108.036 61.013 108.036 61.9798C108.036 62.9466 108.821 63.7325 109.788 63.7325C110.754 63.7325 111.54 62.9466 111.54 61.9798C111.54 61.013 110.754 60.2271 109.788 60.2271Z" fill="#CFDBC6"/>
<path d="M106.923 87.6169C106.638 87.0327 105.387 86.2676 105.297 86.205C104.463 84.8835 102.558 81.7745 102.335 81.4267C102.064 80.9955 99.6103 73.9011 99.6103 73.9011L94.8693 73.0039C94.8693 73.0039 99.1724 81.8997 99.8884 82.9778C100.91 84.5357 103.788 86.5945 104.525 87.1092C104.595 87.3248 104.845 88.1107 104.963 88.2916C105.095 88.4933 105.825 89.0636 105.895 89.0427C105.957 89.0219 105.992 88.9523 105.922 88.8202C105.86 88.688 105.568 88.2916 105.63 88.2916C105.7 88.2916 106.625 89.3696 106.875 89.2444C107.125 89.1193 107.209 88.1942 106.917 87.6169H106.923Z" fill="#FFBE9D"/>
<path d="M94.5148 72.3637C94.5148 72.3637 92.4223 71.2648 89.4262 71.0422C87.8203 70.924 86.3327 71.9186 85.8321 73.4487C85.8043 73.5392 85.7765 73.6296 85.7487 73.727C85.0466 76.2587 85.4289 83.9234 87.7925 85.9195C90.1561 87.9157 94.5078 87.0741 94.5078 87.0741V72.3637H94.5148Z" fill="black"/>
<path d="M101.042 90.225C101.042 90.225 100.785 93.3967 100.493 97.2012C100.09 102.376 98.5467 115.264 98.5467 115.264C98.5467 115.264 98.8735 115.779 97.2885 115.445C97.2885 115.445 95.342 111.056 94.9388 106.007C94.9388 105.923 94.9249 105.84 94.9179 105.756C94.5426 100.616 93.9586 89.7869 93.9586 89.7869L101.049 90.225H101.042Z" fill="black"/>
<path d="M101.126 89.126C101.126 89.126 100.785 93.3896 100.486 97.1941L94.9249 105.999C94.9249 105.916 94.911 105.833 94.904 105.749C94.5286 100.609 93.9447 89.7798 93.9447 89.7798L101.126 89.126Z" fill="black"/>
<path d="M100.799 89.3418L87.8342 114.033C87.8342 114.033 86.6246 114.576 86.4717 114.103C86.4717 114.103 87.6187 102.793 89.6347 100.255C90.7748 98.8219 92.1095 94.5166 92.1721 93.0142C92.2346 91.5119 92.5822 88.5281 92.5822 88.5281L100.799 89.3418Z" fill="black"/>
<path d="M90.0379 117.511C90.0379 117.511 88.154 117.538 87.6117 117.003C87.5492 116.94 87.3406 116.307 87.3406 116.3C87.3267 116.252 87.2294 116.015 86.8401 115.89C86.5829 115.807 86.3743 115.807 86.1241 115.709C85.9433 115.64 85.5957 115.466 85.422 115.368C84.838 115.028 84.9701 114.847 84.9701 114.847C84.9701 114.847 85.0952 114.728 85.269 114.562C85.3177 114.513 85.3663 114.464 85.415 114.408C85.6653 114.137 85.9503 113.803 86.0198 113.56C86.0824 113.351 86.1936 113.219 86.3048 113.136C86.4438 113.024 86.569 112.997 86.569 112.997C86.569 112.997 86.7775 113.824 87.1807 113.72C87.9663 113.518 88.1122 113.546 88.1401 113.553C88.1401 113.553 88.7796 114.805 88.9604 115.25C89.2801 116.043 89.6903 116.342 89.9405 116.599C90.0031 116.669 90.0518 116.739 90.0865 116.815C90.2186 117.114 90.1213 117.448 90.017 117.504L90.0379 117.511Z" fill="#847263"/>
<path d="M90.0379 117.511C90.0379 117.511 88.154 117.538 87.6117 117.003C87.5492 116.94 87.3406 116.307 87.3406 116.3C87.3267 116.252 87.2294 116.015 86.8401 115.89C86.5829 115.806 86.3743 115.806 86.1241 115.709C85.9433 115.64 85.5957 115.466 85.422 115.368C84.838 115.027 84.9701 114.847 84.9701 114.847C84.9701 114.847 85.0952 114.728 85.269 114.561C85.3177 114.513 85.3663 114.464 85.415 114.408C85.4776 114.645 85.6444 115.076 86.0963 115.25C86.7358 115.5 87.431 115.925 87.6326 116.272C87.8342 116.62 87.9663 116.926 88.3556 117.058C88.7449 117.191 89.7737 117.225 89.8432 117.191C89.8988 117.163 89.9544 116.905 90.1004 116.815C90.2325 117.114 90.1352 117.448 90.0309 117.504L90.0379 117.511Z" fill="#3F443B"/>
<path d="M97.0521 117.517H97.8307C98.0879 117.476 98.2826 117.399 98.5537 117.364C98.9569 117.309 99.1446 117.476 99.1863 117.517L99.1932 117.524H102.495C102.579 117.406 102.495 117.128 102.419 116.926C102.363 116.787 102.252 116.683 102.106 116.641C101.758 116.537 101.063 116.446 100.431 115.876C100.076 115.556 98.7136 114.694 98.7136 114.694H98.7066C98.7066 114.694 98.5328 114.735 97.9141 115.257C97.5943 115.528 97.0452 114.874 97.0452 114.874C97.0452 114.874 96.9409 114.958 96.8644 115.118C96.8018 115.243 96.7601 115.417 96.7949 115.626C96.8436 115.925 96.6837 116.474 96.5585 116.85C96.4821 117.079 96.4195 117.239 96.4195 117.239C96.4195 117.239 96.3847 117.427 97.0521 117.51V117.517Z" fill="#847263"/>
<path d="M97.0521 117.531H97.8237C98.081 117.49 98.2756 117.406 98.5467 117.372C98.9499 117.316 99.1376 117.483 99.1793 117.525L99.1863 117.531H102.488C102.572 117.413 102.488 117.135 102.412 116.933C102.315 116.843 102.28 117.323 102.231 117.399C102.175 117.476 99.5339 117.427 99.3809 117.316C99.228 117.205 98.7692 117.01 98.1366 117.163C97.5804 117.295 96.7601 116.954 96.5585 116.864C96.4821 117.093 96.4195 117.253 96.4195 117.253C96.4195 117.253 96.3847 117.448 97.0521 117.538V117.531Z" fill="#3F443B"/>
<path d="M94.0143 71.9187C94.0143 71.9187 97.1078 73.4419 98.9013 72.8785C98.9013 72.8785 98.4634 72.3151 97.6917 71.8908C97.7334 71.6335 97.7682 71.3901 97.796 71.1814C97.8933 70.4163 97.9003 69.9781 97.9003 69.9781L96.0025 68.448L95.5784 68.1072C95.5923 68.4689 95.5715 68.8097 95.5228 69.1157C95.5228 69.1435 95.5158 69.1644 95.5089 69.1852C95.203 71.0284 94.0143 71.9187 94.0143 71.9187Z" fill="#FFBE9D"/>
<path d="M92.2485 88.1383C92.2416 88.333 92.6448 88.5556 92.8186 88.6321C93.6041 88.9868 94.3549 89.272 95.1265 89.4737C95.6618 89.6197 96.211 89.7171 96.788 89.7728C98.4494 89.9397 100.403 89.5711 101.077 89.578C101.147 89.578 101.209 89.5502 101.265 89.5085C101.307 89.4737 101.348 87.4427 101.307 84.8902C101.307 84.7928 101.307 84.6815 101.3 84.5841V84.5494C101.293 83.5548 101.251 82.5045 101.209 81.4612C101.112 79.166 100.931 76.9473 100.625 75.7231C100.264 74.2764 99.4435 73.3305 98.6927 72.628L98.1575 72.0925C98.1575 72.0925 98.074 72.0438 98.0323 72.0507C97.4345 72.162 96.781 72.1551 96.1484 71.8421C95.4393 71.4943 94.6677 71.1187 94.5426 71.2022C93.0758 72.3011 92.3389 75.5492 92.3528 79.2355C92.3528 79.3538 92.3528 79.472 92.3528 79.5833C92.3528 79.9658 92.3737 80.3484 92.3945 80.7379C92.5544 83.4643 92.3945 85.8222 92.2972 87.1924C92.2694 87.5888 92.2485 87.9018 92.2416 88.1174L92.2485 88.1383Z" fill="black"/>
<path d="M99.2426 82.9364L99.294 82.763C99.3336 82.6297 99.4738 82.548 99.6138 82.5895L99.8804 82.6687C100.014 82.7083 100.095 82.8486 100.054 82.9886L100.002 83.162C99.9628 83.2953 99.8225 83.377 99.6826 83.3355L99.416 83.2563C99.2827 83.2167 99.2011 83.0764 99.2426 82.9364Z" fill="black"/>
<path d="M98.5143 83.0951L97.5565 86.3222C97.492 86.5395 97.6157 86.7679 97.8329 86.8324L99.0591 87.1967C99.2762 87.2612 99.5045 87.1374 99.569 86.9202L100.527 83.6931C100.591 83.4759 100.468 83.2474 100.25 83.1829L99.0243 82.8186C98.8071 82.7541 98.5788 82.8779 98.5143 83.0951Z" fill="#D9EDCB"/>
<path d="M98.4702 83.2212L97.5526 86.3093C97.4901 86.5249 97.6152 86.7614 97.8307 86.824L99.0542 87.1857C99.2697 87.2483 99.506 87.1231 99.5686 86.9075L100.465 83.8819C100.285 83.8193 99.8675 83.6942 99.5686 83.715C99.2766 83.7359 98.7275 83.3951 98.4702 83.2212Z" fill="#3F443B"/>
<path d="M98.3853 83.5137L97.7856 85.5339L99.7982 86.1319L100.398 84.1117L98.3853 83.5137Z" fill="black"/>
<path d="M92.2485 88.1383C92.2416 88.3331 92.6448 88.5557 92.8186 88.6322C93.6041 88.9869 94.3549 89.2721 95.1265 89.4738C97.2676 82.5602 94.7025 75.8623 94.7025 75.8623L92.3528 79.6042C92.3528 79.9868 92.3737 80.3693 92.3945 80.7588C92.5544 83.4853 92.3945 85.8431 92.2972 87.2133C92.2694 87.6097 92.2485 87.9227 92.2416 88.1383H92.2485Z" fill="#D9EDCB"/>
<path d="M95.5367 76.9406C94.772 76.4885 93.2288 75.6608 91.9566 75.5286C91.6785 75.5008 91.5048 75.2087 91.6229 74.9513C92.0261 74.0333 93.1593 72.1066 94.5426 71.2164C94.6747 71.1329 94.772 71.2025 94.9041 71.279C95.4116 71.5641 96.51 72.4127 96.5795 73.4142C96.642 74.3045 96.3362 75.8416 96.1485 76.6693C96.0859 76.9475 95.7731 77.0797 95.5298 76.9336L95.5367 76.9406Z" fill="black"/>
<path d="M95.495 69.1577C95.495 69.1577 95.495 69.1646 95.5089 69.1855C95.6271 69.4011 96.4474 70.7852 97.796 71.1817C97.8933 70.4166 97.9003 69.9784 97.9003 69.9784L96.0025 68.4482C95.7522 68.7404 95.5784 69.0116 95.5158 69.1159C95.5019 69.1438 95.488 69.1577 95.488 69.1577H95.495Z" fill="#FFBE9D"/>
<path d="M98.4494 69.9365C98.4494 69.9365 95.495 70.4303 95.2169 68.5802C94.9388 66.7301 94.3688 65.5546 96.2457 65.1582C98.1227 64.7687 98.5954 65.4155 98.8387 66.0067C99.082 66.5979 99.2141 69.7556 98.4494 69.9295V69.9365Z" fill="#FFBE9D"/>
<path d="M99.2976 64.9428C98.6859 64.6576 95.6967 63.2387 94.4176 64.5324C94.3967 64.3377 94.3967 64.1012 94.3967 64.1012C94.3063 64.2681 94.2646 64.5185 94.2438 64.6924C94.1325 64.5533 93.917 64.5324 93.917 64.5324C94.07 64.602 94.1325 64.7411 94.1603 64.8593C92.8882 66.7512 94.8207 68.6708 95.0849 68.9699C95.356 69.2759 95.5159 69.1855 95.5159 69.1855C95.5159 69.1855 95.9956 68.5317 95.7662 68.1005C95.7662 68.1005 95.3769 67.704 95.5993 67.4536C95.8287 67.2032 95.9539 67.5858 96.1346 67.5719C96.3154 67.558 96.6351 67.0363 96.656 66.5634C96.6768 66.0904 98.3939 66.8138 99.0891 66.5842C99.7773 66.3547 100.382 65.4366 99.3046 64.9358L99.2976 64.9428Z" fill="black"/>
<path d="M92.2902 81.2735L92.1998 80.7101C93.5693 80.4876 94.6816 79.8268 95.4949 78.7487C96.1136 77.935 96.5446 76.8708 96.6837 75.8275C96.9548 73.8036 96.4265 72.6559 95.057 72.3082C93.8335 71.9952 92.4223 72.955 92.4084 72.962L92.0817 72.489C92.1512 72.4403 93.7223 71.3762 95.196 71.7517C96.35 72.0439 97.6361 72.9967 97.2468 75.904C97.1564 76.5717 96.8714 77.8793 95.9468 79.0965C95.0361 80.2928 93.8057 81.0231 92.2902 81.2735Z" fill="black"/>
<path d="M100.215 85.1546C100.146 84.8834 99.1863 85.099 98.9848 84.8973C98.9361 84.8486 99.4297 84.8138 99.5756 84.7721C99.7216 84.7304 99.7494 84.6678 99.7216 84.6052C99.6938 84.5426 98.7901 84.3548 98.5468 84.3826C98.4008 84.4035 97.9698 84.5704 97.657 84.6956C97.657 84.6956 93.9031 81.983 93.2427 81.3153C92.763 80.8354 95.5854 76.9683 95.5367 76.9405C94.772 76.4814 93.2288 75.6537 91.9566 75.5216C91.901 75.5216 91.8662 75.5077 91.8176 75.4868C90.9486 77.3578 90.0588 79.8199 89.8711 82.2821C89.8711 82.2821 93.0689 85.405 97.1008 85.9475C97.1008 85.9475 98.658 86.3162 99.3045 86.3022C100.187 86.2814 100.278 85.412 100.208 85.1407L100.215 85.1546Z" fill="#FFBE9D"/>
<path d="M67.4033 96.1369C67.3685 96.3177 67.299 96.5055 67.2086 96.6099C67.0974 96.742 66.9167 97.0063 66.8054 97.1802C66.4926 96.902 66.4787 96.276 66.5135 95.9004C66.6734 95.817 66.8263 95.7544 66.9584 95.7126C67.1669 95.8031 67.3129 95.9561 67.4033 96.1369Z" fill="#FFBE9D"/>
<path d="M73.6945 72.9691C73.6667 72.8718 73.3052 71.752 71.5604 72.1206C71.5604 72.1206 72.4363 72.0093 72.6726 72.3501C72.6726 72.3501 71.9775 72.0302 71.5465 72.3014C71.1154 72.5727 71.039 73.4629 71.1085 73.7342C71.1711 74.0055 71.6507 74.8192 71.9705 74.8192C72.0887 74.8192 72.2208 74.7775 72.332 74.7288C72.2833 74.8749 72.2416 75.0279 72.1999 75.2018C71.8593 76.7876 72.9159 77.9978 73.4651 77.6987C73.8127 77.504 74.0769 78.123 74.0769 78.123L76.9827 74.2698C76.9827 74.2698 74.9597 71.8354 73.6945 72.9761V72.9691Z" fill="black"/>
<path d="M81.3761 95.3442C81.2996 95.6363 81.0424 96.3041 80.8477 96.3041C80.6879 96.3041 80.6322 95.4903 80.4237 95.3164C80.1248 95.066 79.8815 94.5374 79.8398 94.4122C79.7633 94.1479 79.6868 94.0923 79.6868 94.0923C79.6868 94.0923 77.3024 89.7244 77.1147 88.6115C77.0521 88.2499 76.8992 87.5195 76.7115 86.6988C76.5099 85.8086 76.2805 84.8209 76.1067 84.0767C76.8714 83.9306 77.7125 83.875 78.4007 83.8611C78.5398 84.7653 78.6649 85.6903 78.7761 86.4902C78.936 87.6865 79.0612 88.6115 79.1307 88.8132C79.3392 89.3557 79.9093 92.2978 80.4515 93.821C80.5141 93.974 80.6879 94.3635 80.8825 94.4957C81.1189 94.6626 81.4595 95.0521 81.3761 95.3442Z" fill="#FFBE9D"/>
<path d="M67.8133 91.6857C67.8759 91.8387 68.1539 91.9778 68.5571 92.0821C69.4608 92.3047 70.9763 92.3395 72.0886 91.9222C73.2773 91.484 74.1393 85.1964 74.5078 81.9761C74.6329 80.8494 74.7024 80.0982 74.7024 80.0982C74.7024 80.0982 74.0211 79.0271 71.3795 79.3818C68.7379 79.7365 68.4668 80.6268 68.2304 82.2335C67.994 83.8401 67.6048 91.178 67.8133 91.6787V91.6857Z" fill="#847263"/>
<path d="M78.2548 92.0056C76.9339 87.7907 78.3799 86.8726 78.2408 84.7652C78.1018 82.6577 76.4682 80.3903 76.4682 80.3903C76.4682 80.3903 76.3847 80.3834 76.2457 80.3695C76.1345 80.3138 76.1067 79.8548 76.1067 79.3679C76.1067 78.7906 76.1553 78.1716 76.1553 78.1716L74.195 77.7821L74.0768 77.7612C74.0768 79.1245 73.7222 80.0217 73.465 80.2304C73.2217 80.2582 72.179 80.3903 71.5325 80.6616C71.2892 80.7659 71.1084 80.8841 71.0389 81.0233C70.5036 82.2056 69.9614 85.1895 69.586 87.3178C69.3775 88.5071 69.2176 89.4252 69.1341 89.62C68.9047 90.1555 68.2096 93.0698 67.6048 94.5721C67.5353 94.7182 67.3476 95.1007 67.146 95.2259C66.9026 95.3789 66.5481 95.7545 66.6176 96.0536C66.6802 96.3527 66.7497 96.8187 67.0556 96.8187C67.1877 96.8187 67.4032 96.5613 67.6117 96.2483C67.7508 96.3248 67.7855 96.0953 67.9384 95.9562C68.1053 95.8101 68.1887 95.1842 68.1887 95.1842C68.2791 94.9268 68.3556 94.8712 68.3556 94.8712C68.3556 94.8712 70.9207 90.6076 71.1571 89.5017C71.2335 89.14 71.4212 88.4167 71.6367 87.6099C71.6715 87.4847 71.7063 87.3595 71.7341 87.2343C72.1164 88.2776 72.318 88.7575 72.3041 89.2096C72.2902 89.8495 71.8522 90.4268 70.9485 92.4647C70.448 93.5914 79.5895 96.304 78.2478 91.9987L78.2548 92.0056Z" fill="#FFBE9D"/>
<path d="M76.1623 78.1646C76.1623 78.1646 76.1206 78.7837 76.1136 79.3609C75.0153 79.3331 74.4383 78.3316 74.2019 77.7751L76.1623 78.1646Z" fill="#FFBE9D"/>
<path d="M74.0004 77.5664C74.0004 77.5664 73.4234 76.6622 73.2913 75.8832C73.194 75.3268 73.472 73.275 75.5367 73.574C75.5367 73.574 76.1345 73.6297 76.6976 74.0122C77.1425 74.3183 77.789 74.9651 77.066 76.7596L76.8783 77.3647L74.0004 77.5664Z" fill="black"/>
<path d="M76.5238 78.714C76.5238 78.714 73.9308 78.7558 73.9308 77.1421C73.9308 75.5285 73.5902 74.4435 75.2447 74.3461C76.8992 74.2488 77.219 74.8678 77.3511 75.4033C77.4831 75.9389 77.1912 78.6584 76.5169 78.7071L76.5238 78.714Z" fill="#FFBE9D"/>
<path d="M80.1456 116.363L79.3114 116.565C79.3114 116.565 78.0045 114.77 76.9131 112.329C76.2249 110.778 75.627 109.011 75.5019 107.37C75.4463 106.626 75.488 105.909 75.6687 105.249C75.6687 105.249 75.4393 103.684 75.1195 101.597C74.765 99.274 74.3062 96.3111 73.9517 94.1341L74.1672 94.0715L78.8109 92.6943C78.8109 92.6943 79.7216 96.2554 79.3045 101.827C79.221 102.967 79.075 104.198 78.8595 105.499C78.4911 107.725 78.644 109.957 78.9499 111.814C79.3879 114.471 80.1456 116.37 80.1456 116.37V116.363Z" fill="black"/>
<path d="M79.3045 101.82L75.5088 107.37C75.4532 106.626 75.4949 105.909 75.6757 105.249C75.6757 105.249 75.4463 103.684 75.1265 101.597C74.772 99.274 74.3132 96.3111 73.9586 94.1341L74.1741 94.0715L78.8178 92.6943C78.8178 92.6943 79.7285 96.2554 79.3114 101.827L79.3045 101.82Z" fill="black"/>
<path d="M75.2308 105.617C75.064 105.923 73.4373 107.884 71.7967 110.061C71.6576 110.249 71.5116 110.451 71.3587 110.66C70.3924 112.023 69.2802 113.796 68.6197 114.659C68.015 115.445 67.4727 114.464 67.7786 113.762C68.2583 112.656 68.6684 110.722 69.1342 109.296C69.2384 108.969 69.3497 108.663 69.4678 108.406C69.9684 107.286 70.9486 106.055 72.1303 104.838C72.3389 104.629 70.4063 99.5937 70.5384 95.7126C70.5871 94.1755 70.8026 92.8193 71.2961 91.9985L76.1693 92.242C76.1693 92.242 76.8366 102.612 75.2308 105.624V105.617Z" fill="black"/>
<path d="M77.2816 74.513C76.8784 74.0262 76.5795 74.1305 76.4126 74.2765C75.0223 73.5045 74.0838 74.6521 74.0838 74.6521C73.91 75.8137 73.0758 76.4744 73.0758 76.4744C73.0758 76.4744 73.5485 76.7665 74.6399 76.4883C74.9736 76.4049 75.2725 76.1684 75.5228 75.8832C75.0848 76.6205 74.48 77.156 74.48 77.156C75.78 76.5509 76.3014 74.7425 76.357 74.5548C76.5169 74.6939 76.8297 75.0068 76.9201 75.3059C77.0522 75.7163 77.1078 76.5648 77.3511 76.537C77.3511 76.537 77.8864 75.2503 77.2816 74.52V74.513Z" fill="black"/>
<path d="M70.3508 93.9393C70.3438 94.1062 70.3508 94.2384 70.3786 94.3288C70.4829 94.6557 70.8374 94.8018 71.6994 94.7183C72.2277 94.6627 72.4641 93.7793 72.5684 93.0282C72.8812 94.1062 73.3261 94.7114 73.9031 94.8365C74.7373 95.0243 78.95 95.5321 79.2281 93.529C79.534 91.3241 78.6233 87.4222 78.5746 85.3217C78.6997 84.5775 78.7415 83.9307 78.7276 83.3743C78.6928 81.8789 78.2548 81.0373 77.9142 80.6965C77.8169 80.62 77.7196 80.5783 77.3372 80.5087C77.1426 80.4739 76.8715 80.4391 76.4822 80.3835C76.4822 80.3835 76.3153 80.3626 76.3223 80.3696C76.3918 80.4948 77.1634 81.6285 77.087 81.9971C77.0105 82.3866 74.063 82.331 73.8266 82.1154C73.5903 81.8998 72.9855 80.2861 72.9855 80.2861C72.9855 80.2861 71.7898 80.4183 71.1989 80.8426C71.1989 80.8426 71.1989 80.8426 71.1989 80.8495C71.1294 80.8982 71.0738 80.9538 71.0459 81.0095C70.4203 82.1988 69.7946 85.2035 69.3567 87.3527C70.4203 87.9369 71.3518 87.763 71.6368 87.6865C71.2614 90.1557 70.4064 92.8056 70.3508 93.9324V93.9393Z" fill="#3F443B"/>
<path d="M76.4752 80.3833C76.4752 80.3833 76.4752 80.3833 76.4752 80.3903C76.5934 80.5711 78.3869 83.4436 78.5607 85.3146C78.6858 84.5704 78.7276 83.9235 78.7137 83.3671C78.4842 82.6577 77.4485 81.0788 76.9062 80.4389C76.8645 80.3903 76.4683 80.3833 76.4683 80.3833H76.4752Z" fill="#847263"/>
<path d="M76.9202 112.329C78.0046 114.777 79.3185 116.565 79.3185 116.565L80.1527 116.363C80.1527 116.363 79.395 114.471 78.957 111.807C78.6998 112.002 78.1298 112.253 76.9202 112.329Z" fill="#FFBE9D"/>
<path d="M78.6581 117.51H79.2281C79.4158 117.482 79.5618 117.427 79.7564 117.399C80.0554 117.357 80.1874 117.482 80.2152 117.51H82.6344C82.697 117.42 82.6344 117.225 82.5788 117.072C82.5371 116.975 82.4537 116.898 82.3494 116.863C82.0922 116.787 81.5847 116.724 81.1259 116.3C80.8617 116.064 79.8677 115.431 79.8677 115.431C79.8677 115.431 79.7425 115.458 79.2907 115.848C79.0543 116.043 78.6581 115.57 78.6581 115.57C78.6581 115.57 78.5816 115.632 78.526 115.751C78.4843 115.841 78.4495 115.966 78.4773 116.119C78.5121 116.335 78.3939 116.745 78.3035 117.016C78.2479 117.183 78.1993 117.302 78.1993 117.302C78.1993 117.302 78.1715 117.441 78.665 117.503L78.6581 117.51Z" fill="black"/>
<path d="M78.6579 117.511H79.228C79.4157 117.483 79.5617 117.427 79.7563 117.399C80.0552 117.358 80.1873 117.483 80.2151 117.511H82.6343C82.6969 117.42 82.6343 117.225 82.5787 117.072C82.5022 117.01 82.4814 117.358 82.4466 117.413C82.4049 117.469 80.4723 117.434 80.3611 117.351C80.2499 117.267 79.9162 117.128 79.4504 117.239C79.0472 117.337 78.4424 117.086 78.2965 117.024C78.2408 117.191 78.1922 117.309 78.1922 117.309C78.1922 117.309 78.1644 117.448 78.6579 117.511Z" fill="#D9EDCB"/>
<path opacity="0.4" d="M70.3507 93.9391C70.9277 93.7444 71.6715 93.2297 72.5613 92.0821C74.9249 89.0287 72.7629 85.4398 72.471 85.3772C72.179 85.3077 71.6368 87.7003 71.6368 87.7003C71.2614 90.1694 70.4063 92.8194 70.3507 93.9461V93.9391Z" fill="#3F443B"/>
<path d="M71.6715 80.0703C71.6715 80.0703 74.049 81.6909 74.2228 85.1198C74.4035 88.5488 71.31 89.2513 71.31 89.2513L71.5116 88.1662C71.5116 88.1662 74.0142 87.2621 73.3608 84.5286C72.7073 81.7952 70.7469 80.3068 70.7469 80.3068L71.6646 80.0703H71.6715Z" fill="#847263"/>
<path d="M75.78 77.7612C75.78 77.7612 75.8287 77.9629 76.3223 77.9211C76.3223 77.9211 76.7394 77.8933 76.7255 77.6708C76.7255 77.6708 76.3223 77.5177 75.78 77.7612Z" fill="white"/>
<path d="M71.3587 110.66C70.3924 112.023 69.2802 113.796 68.6197 114.659C68.015 115.445 67.4727 114.464 67.7786 113.762C68.2583 112.656 68.6684 110.722 69.1342 109.296C69.447 109.769 70.0866 110.388 71.3657 110.66H71.3587Z" fill="#FFBE9D"/>
<path d="M69.9127 117.51C69.9127 117.51 68.4946 117.33 68.14 116.87C68.0983 116.815 68.0079 116.321 68.0079 116.314C68.001 116.272 67.9523 116.091 67.6743 115.952C67.4935 115.862 67.3336 115.841 67.1529 115.744C67.0208 115.674 66.7775 115.507 66.6593 115.417C66.2561 115.097 66.3743 114.979 66.3743 114.979C66.3743 114.979 66.4855 114.902 66.6315 114.791C66.6732 114.763 66.7149 114.728 66.7566 114.693C66.9721 114.52 67.2224 114.29 67.2989 114.116C67.3684 113.97 67.4657 113.88 67.5561 113.824C67.6743 113.755 67.7716 113.748 67.7716 113.748C67.7716 113.748 67.8411 114.387 68.1539 114.36C68.7657 114.29 68.8769 114.325 68.8978 114.339C68.8978 114.339 69.2523 115.347 69.3357 115.702C69.4887 116.335 69.7667 116.599 69.9336 116.822C69.9753 116.877 70.0031 116.94 70.0239 116.996C70.0934 117.239 69.9822 117.476 69.8988 117.51H69.9127Z" fill="black"/>
<path d="M69.9127 117.51C69.9127 117.51 68.4946 117.33 68.14 116.871C68.0983 116.815 68.0079 116.321 68.0079 116.314C68.001 116.272 67.9523 116.092 67.6743 115.953C67.4935 115.862 67.3336 115.841 67.1529 115.744C67.0208 115.674 66.7775 115.507 66.6593 115.417C66.2561 115.097 66.3743 114.979 66.3743 114.979C66.3743 114.979 66.4855 114.902 66.6315 114.791C66.6732 114.763 66.7149 114.728 66.7566 114.694C66.7775 114.881 66.8609 115.222 67.1807 115.396C67.6395 115.653 68.1122 116.05 68.2304 116.328C68.3486 116.606 68.4111 116.857 68.6962 116.996C68.9812 117.135 69.7459 117.267 69.8015 117.253C69.8501 117.239 69.9197 117.051 70.0378 116.996C70.1074 117.239 69.9961 117.476 69.9127 117.51Z" fill="#D9EDCB"/>
<path d="M39.4088 123.309L37.3895 120.72L25.0646 130.343C23.9777 130.313 22.6415 130.842 21.4149 131.805L13.1983 138.225C11.184 139.796 10.2118 141.931 11.2289 143.233C12.246 144.535 14.5445 144.111 16.5637 142.54L24.7804 136.125C26.0119 135.167 26.8495 133.995 27.0838 132.937L39.4088 123.314V123.309Z" fill="black"/>
<path d="M64.2781 101.81C58.0558 93.8281 46.5435 92.4065 38.5662 98.632C30.5889 104.862 29.1679 116.376 35.3902 124.357C41.6125 132.339 53.1248 133.76 61.1021 127.53C69.0794 121.304 70.5004 109.786 64.2731 101.805L64.2781 101.81ZM58.7588 124.527C52.4417 129.46 43.3277 128.333 38.3967 122.013C33.4657 115.692 34.5925 106.568 40.9095 101.64C47.2266 96.7064 56.3406 97.8338 61.2716 104.154C66.2026 110.474 65.0758 119.593 58.7588 124.527Z" fill="#3F443B"/>
<path opacity="0.5" d="M58.7588 124.527C52.4418 129.46 43.3277 128.333 38.3967 122.013C33.4658 115.692 34.5925 106.569 40.9096 101.64C47.2266 96.7065 56.3407 97.8339 61.2717 104.154C66.2027 110.474 65.0759 119.593 58.7588 124.527Z" fill="#E9FDDB"/>
<path d="M53.5646 64.9498C52.4316 64.9498 51.3612 64.4153 50.6814 63.5245L40.7036 50.4495C39.5003 48.8694 39.8128 46.6231 41.4068 45.4225C43.0007 44.2296 45.2667 44.5394 46.4777 46.1196L53.4865 55.2984L73.0359 28.1957C74.2001 26.5846 76.4582 26.2128 78.0834 27.3669C79.7086 28.521 80.0837 30.7596 78.9195 32.3707L56.5103 63.4471C55.8383 64.3766 54.7679 64.9498 53.6193 64.9498H53.5724H53.5646Z" fill="#263238"/>
<path d="M155.077 24H93.1584C90.1413 24 87.6943 26.177 87.6943 29.1886V42.4036C87.6943 45.2622 89.8911 47.6062 92.6856 47.8426L95.2091 60.5847L105.101 47.794H155.07C158.087 47.794 160.346 45.4222 160.346 42.4036V29.1886C160.346 26.17 158.087 24 155.07 24H155.077Z" fill="white"/>
<path d="M149.787 28.6252H90.9965V30.6075H149.787V28.6252Z" fill="#6B7665"/>
<path d="M155.731 32.5898H90.9965V34.5721H155.731V32.5898Z" fill="#6B7665"/>
<path d="M138.553 37.2151H90.9965V39.1973H138.553V37.2151Z" fill="#6B7665"/>
<path d="M143.836 41.1794H90.9965V43.1617H143.836V41.1794Z" fill="#6B7665"/>
</svg>
