<svg width="244" height="77" viewBox="0 0 244 77" fill="none" xmlns="http://www.w3.org/2000/svg">
<mask id="path-1-inside-1_15_2614" fill="white">
<path fill-rule="evenodd" clip-rule="evenodd" d="M16.671 40.2812L22.662 30.0851L27.8053 38.8429L25.2989 43.1105L22.7926 47.378L17.7798 55.9132H37.8189L42.9445 64.625H2.375L16.671 40.2812ZM25.365 25.4731L30.3035 17.0612L58.2528 64.625H48.355L25.365 25.4731ZM33.0526 12.375H42.937L73.625 64.625H63.7272L33.0526 12.375Z"/>
</mask>
<path fill-rule="evenodd" clip-rule="evenodd" d="M16.671 40.2812L22.662 30.0851L27.8053 38.8429L25.2989 43.1105L22.7926 47.378L17.7798 55.9132H37.8189L42.9445 64.625H2.375L16.671 40.2812ZM25.365 25.4731L30.3035 17.0612L58.2528 64.625H48.355L25.365 25.4731ZM33.0526 12.375H42.937L73.625 64.625H63.7272L33.0526 12.375Z" fill="white"/>
<path d="M16.671 40.2812L15.3777 39.5214L15.3776 39.5217L16.671 40.2812ZM22.662 30.0851L23.9554 29.3255L22.6623 27.1236L21.3687 29.3252L22.662 30.0851ZM27.8053 38.8429L29.0987 39.6025L29.5449 38.8429L29.0988 38.0833L27.8053 38.8429ZM17.7798 55.9132L16.4864 55.1536L15.1593 57.4132H17.7798V55.9132ZM37.8189 55.9132L39.1118 55.1526L38.6768 54.4132H37.8189V55.9132ZM42.9445 64.625V66.125H45.5673L44.2373 63.8644L42.9445 64.625ZM2.375 64.625L1.08155 63.8654L-0.245412 66.125H2.375V64.625ZM25.365 25.4731L24.0715 24.7137L23.6256 25.4732L24.0715 26.2327L25.365 25.4731ZM30.3035 17.0612L31.5968 16.3012L30.3029 14.0994L29.01 16.3017L30.3035 17.0612ZM58.2528 64.625V66.125H60.874L59.5461 63.8651L58.2528 64.625ZM48.355 64.625L47.0615 65.3845L47.4963 66.125H48.355V64.625ZM33.0526 12.375V10.875H30.4326L31.759 13.1344L33.0526 12.375ZM42.937 12.375L44.2304 11.6153L43.7956 10.875H42.937V12.375ZM73.625 64.625V66.125H76.2456L74.9184 63.8653L73.625 64.625ZM63.7272 64.625L62.4336 65.3844L62.8684 66.125H63.7272V64.625ZM17.9643 41.0411L23.9552 30.845L21.3687 29.3252L15.3777 39.5214L17.9643 41.0411ZM21.3685 30.8447L26.5119 39.6025L29.0988 38.0833L23.9554 29.3255L21.3685 30.8447ZM17.7798 57.4132H37.8189V54.4132H17.7798V57.4132ZM36.5261 56.6738L41.6516 65.3856L44.2373 63.8644L39.1118 55.1526L36.5261 56.6738ZM42.9445 63.125H2.375V66.125H42.9445V63.125ZM3.66845 65.3846L17.9645 41.0408L15.3776 39.5217L1.08155 63.8654L3.66845 65.3846ZM26.6586 26.2325L31.5971 17.8206L29.01 16.3017L24.0715 24.7137L26.6586 26.2325ZM29.0103 17.8211L56.9596 65.3849L59.5461 63.8651L31.5968 16.3012L29.0103 17.8211ZM58.2528 63.125H48.355V66.125H58.2528V63.125ZM49.6485 63.8655L26.6585 24.7136L24.0715 26.2327L47.0615 65.3845L49.6485 63.8655ZM33.0526 13.875H42.937V10.875H33.0526V13.875ZM41.6436 13.1347L72.3316 65.3847L74.9184 63.8653L44.2304 11.6153L41.6436 13.1347ZM73.625 63.125H63.7272V66.125H73.625V63.125ZM65.0208 63.8656L34.3461 11.6156L31.759 13.1344L62.4336 65.3844L65.0208 63.8656ZM21.4992 46.6184L16.4864 55.1536L19.0733 56.6728L24.086 48.1377L21.4992 46.6184ZM26.5119 38.0833L24.0055 42.3508L26.5924 43.8701L29.0987 39.6025L26.5119 38.0833ZM24.0055 42.3508L21.4992 46.6184L24.086 48.1377L26.5924 43.8701L24.0055 42.3508Z" fill="white" mask="url(#path-1-inside-1_15_2614)"/>
<path d="M92.8203 48.1055C92.2578 48.0352 90.8105 48 88.4785 48H87.916V28.5586H84.4355C83.4043 28.5586 82.7949 28.6113 82.6074 28.7168C82.4199 28.8223 82.2734 28.916 82.168 28.998L82.1152 28.9805V24.4805L82.168 24.4277C82.5547 24.5566 83.5977 24.6211 85.2969 24.6211H96.3184C97.3496 24.6211 97.959 24.5684 98.1465 24.4629C98.334 24.3574 98.4805 24.2637 98.5859 24.1816L98.6387 24.1992V28.6992L98.5859 28.752C98.1992 28.623 97.1562 28.5586 95.457 28.5586H92.8203V48.1055ZM109.977 38.9121C109.625 38.9355 109.25 38.9473 108.852 38.9473C108.453 38.9473 107.861 38.918 107.076 38.8594V48H102.418V24.498C104.059 24.2871 106.074 24.1816 108.465 24.1816C111.723 24.1816 114.148 24.7852 115.742 25.9922C117.348 27.1875 118.15 29.0391 118.15 31.5469C118.15 33.4922 117.418 35.1562 115.953 36.5391C115.473 36.9844 114.922 37.3711 114.301 37.6992L117.887 45.2578C118.59 46.8164 119.129 47.7422 119.504 48.0352L119.416 48.123C118.279 47.9355 116.492 47.9414 114.055 48.1406L109.977 38.9121ZM108.799 28.3301C108.201 28.3301 107.627 28.3594 107.076 28.418V35.1328C107.65 35.2148 108.324 35.2559 109.098 35.2559C109.871 35.2559 110.521 35.1914 111.049 35.0625C111.576 34.9219 112.033 34.7109 112.42 34.4297C113.252 33.8086 113.668 32.877 113.668 31.6348C113.668 30.3926 113.234 29.5195 112.367 29.0156C111.559 28.5586 110.369 28.3301 108.799 28.3301ZM125.111 48.1406C124.104 48.0469 122.926 48 121.578 48H120.189L127.836 26.5723C128.176 25.6113 128.346 25.0547 128.346 24.9023C128.346 24.7383 128.34 24.6387 128.328 24.6035L128.346 24.5684C129.107 24.6035 129.916 24.6211 130.771 24.6211C131.475 24.6211 132.318 24.6094 133.303 24.5859L133.32 24.6211C133.297 24.668 133.285 24.7324 133.285 24.8145C133.285 25.0371 133.461 25.6289 133.812 26.5898L141.617 48.0527C141.383 48.041 141.107 48.0352 140.791 48.0352C140.791 48.0352 140.486 48.0234 139.877 48C139.584 48 139.32 48 139.086 48H136.361L134.709 42.9375H126.764L125.111 48.1406ZM133.338 38.7188L130.684 30.5449L128.1 38.7188H133.338ZM145.01 24.5508C146.182 24.5977 146.891 24.6211 147.137 24.6211H148.402C149.023 24.6211 149.521 24.5742 149.896 24.4805L149.879 48H145.01V24.5508ZM159.916 48C158.193 48 157.051 48.0352 156.488 48.1055V24.5156C156.77 24.5859 157.35 24.6211 158.229 24.6211C159.119 24.6211 160.15 24.5977 161.322 24.5508V43.7812H164.961C166.016 43.7812 166.859 43.7461 167.492 43.6758C167.41 46.418 167.369 47.8418 167.369 47.9473V48.123C166.221 48.041 164.293 48 161.586 48H159.916ZM171.201 24.498C172.83 24.2871 174.5 24.1816 176.211 24.1816C179.398 24.1816 181.818 24.9316 183.471 26.4316C185.135 27.9199 185.967 30.1523 185.967 33.1289C185.967 35.7891 185.059 37.8926 183.242 39.4395C181.543 40.8926 179.357 41.6191 176.686 41.6191C176.381 41.6191 176.047 41.6016 175.684 41.5664V48H171.201V24.498ZM176.738 28.418C176.387 28.418 176.035 28.4297 175.684 28.4531V37.6992C176.059 37.7461 176.516 37.7695 177.055 37.7695C177.594 37.7695 178.156 37.6582 178.742 37.4355C179.328 37.2012 179.82 36.8789 180.219 36.4688C181.051 35.6133 181.467 34.4883 181.467 33.0938C181.467 29.9766 179.891 28.418 176.738 28.418ZM191.275 48.1406C190.268 48.0469 189.09 48 187.742 48H186.354L194 26.5723C194.34 25.6113 194.51 25.0547 194.51 24.9023C194.51 24.7383 194.504 24.6387 194.492 24.6035L194.51 24.5684C195.271 24.6035 196.08 24.6211 196.936 24.6211C197.639 24.6211 198.482 24.6094 199.467 24.5859L199.484 24.6211C199.461 24.668 199.449 24.7324 199.449 24.8145C199.449 25.0371 199.625 25.6289 199.977 26.5898L207.781 48.0527C207.547 48.041 207.271 48.0352 206.955 48.0352C206.955 48.0352 206.65 48.0234 206.041 48C205.748 48 205.484 48 205.25 48H202.525L200.873 42.9375H192.928L191.275 48.1406ZM199.502 38.7188L196.848 30.5449L194.264 38.7188H199.502ZM214.057 48C212.334 48 211.191 48.0352 210.629 48.1055V24.5156C210.91 24.5859 211.49 24.6211 212.369 24.6211C213.26 24.6211 214.291 24.5977 215.463 24.5508V43.7812H219.102C220.156 43.7812 221 43.7461 221.633 43.6758C221.551 46.418 221.51 47.8418 221.51 47.9473V48.123C220.361 48.041 218.434 48 215.727 48H214.057ZM239.791 25.9219L239.457 31.0898L239.334 31.125C238.467 29.8242 236.99 28.9805 234.904 28.5938C234.248 28.4648 233.615 28.4004 233.006 28.4004C232.408 28.4004 231.893 28.4531 231.459 28.5586C231.037 28.6641 230.674 28.8164 230.369 29.0156C229.725 29.4375 229.402 29.9883 229.402 30.668C229.402 31.5586 229.684 32.2266 230.246 32.6719C230.949 33.2109 232.115 33.5918 233.744 33.8145C235.373 34.0254 236.68 34.3184 237.664 34.6934C238.648 35.0684 239.457 35.543 240.09 36.1172C241.285 37.1953 241.883 38.7188 241.883 40.6875C241.883 43.2656 240.91 45.252 238.965 46.6465C237.301 47.8418 235.203 48.4395 232.672 48.4395C230.633 48.4395 228.617 48.0527 226.625 47.2793C225.969 47.0215 225.395 46.7227 224.902 46.3828L225.096 40.5117L225.166 40.459C226.619 42.9668 229.004 44.2207 232.32 44.2207C234.676 44.2207 236.234 43.6523 236.996 42.5156C237.254 42.1289 237.383 41.7012 237.383 41.2324C237.383 40.752 237.307 40.3594 237.154 40.0547C237.002 39.7383 236.75 39.4688 236.398 39.2461C235.719 38.8008 234.576 38.502 232.971 38.3496C231.365 38.1973 230.053 37.9102 229.033 37.4883C228.014 37.0664 227.199 36.5449 226.59 35.9238C225.488 34.7988 224.938 33.2285 224.938 31.2129C224.938 29.127 225.67 27.4395 227.135 26.1504C228.623 24.8379 230.627 24.1816 233.146 24.1816C235.678 24.1816 237.893 24.7617 239.791 25.9219Z" fill="white"/>
</svg>
