<svg width="171" height="54" viewBox="0 0 171 54" fill="none" xmlns="http://www.w3.org/2000/svg">
<mask id="path-1-inside-1_221_1765" fill="white">
<path fill-rule="evenodd" clip-rule="evenodd" d="M11.6698 28.197L15.8635 21.0597L19.4638 27.1901L17.7094 30.1774L15.9549 33.1647L12.446 39.1393H26.4733L30.0612 45.2376H1.6626L11.6698 28.197ZM17.7556 17.8313L21.2126 11.9429L40.7771 45.2376H33.8486L17.7556 17.8313ZM23.1369 8.6626H30.056L51.5376 45.2376H44.6091L23.1369 8.6626Z"/>
</mask>
<path fill-rule="evenodd" clip-rule="evenodd" d="M11.6698 28.197L15.8635 21.0597L19.4638 27.1901L17.7094 30.1774L15.9549 33.1647L12.446 39.1393H26.4733L30.0612 45.2376H1.6626L11.6698 28.197ZM17.7556 17.8313L21.2126 11.9429L40.7771 45.2376H33.8486L17.7556 17.8313ZM23.1369 8.6626H30.056L51.5376 45.2376H44.6091L23.1369 8.6626Z" fill="white"/>
<path d="M11.6698 28.197L10.7645 27.6651L10.7644 27.6653L11.6698 28.197ZM15.8635 21.0597L16.7689 20.5279L15.8637 18.9866L14.9582 20.5277L15.8635 21.0597ZM19.4638 27.1901L20.3692 27.7219L20.6815 27.1901L20.3692 26.6584L19.4638 27.1901ZM12.446 39.1393L11.5406 38.6076L10.6116 40.1893H12.446V39.1393ZM26.4733 39.1393L27.3783 38.6069L27.0738 38.0893H26.4733V39.1393ZM30.0612 45.2376V46.2876H31.8972L30.9662 44.7052L30.0612 45.2376ZM1.6626 45.2376L0.75718 44.7059L-0.171691 46.2876H1.6626V45.2376ZM17.7556 17.8313L16.8501 17.2997L16.538 17.8313L16.8502 18.363L17.7556 17.8313ZM21.2126 11.9429L22.1178 11.411L21.2121 9.86967L20.3071 11.4113L21.2126 11.9429ZM40.7771 45.2376V46.2876H42.6119L41.6823 44.7056L40.7771 45.2376ZM33.8486 45.2376L32.9432 45.7693L33.2475 46.2876H33.8486V45.2376ZM23.1369 8.6626V7.6126H21.3029L22.2314 9.19419L23.1369 8.6626ZM30.056 8.6626L30.9614 8.13084L30.657 7.6126H30.056V8.6626ZM51.5376 45.2376V46.2876H53.372L52.443 44.7058L51.5376 45.2376ZM44.6091 45.2376L43.7036 45.7692L44.008 46.2876H44.6091V45.2376ZM12.5751 28.7289L16.7688 21.5916L14.9582 20.5277L10.7645 27.6651L12.5751 28.7289ZM14.9581 21.5914L18.5584 27.7219L20.3692 26.6584L16.7689 20.5279L14.9581 21.5914ZM12.446 40.1893H26.4733V38.0893H12.446V40.1893ZM25.5683 39.6718L29.1562 45.77L30.9662 44.7052L27.3783 38.6069L25.5683 39.6718ZM30.0612 44.1876H1.6626V46.2876H30.0612V44.1876ZM2.56802 45.7693L12.5752 28.7287L10.7644 27.6653L0.75718 44.7059L2.56802 45.7693ZM18.6611 18.3629L22.118 12.4745L20.3071 11.4113L16.8501 17.2997L18.6611 18.3629ZM20.3073 12.4749L39.8718 45.7696L41.6823 44.7056L22.1178 11.411L20.3073 12.4749ZM40.7771 44.1876H33.8486V46.2876H40.7771V44.1876ZM34.754 44.7059L18.661 17.2996L16.8502 18.363L32.9432 45.7693L34.754 44.7059ZM23.1369 9.7126H30.056V7.6126H23.1369V9.7126ZM29.1506 9.19436L50.6322 45.7694L52.443 44.7058L30.9614 8.13084L29.1506 9.19436ZM51.5376 44.1876H44.6091V46.2876H51.5376V44.1876ZM45.5146 44.706L24.0424 8.13101L22.2314 9.19419L43.7036 45.7692L45.5146 44.706ZM15.0495 32.633L11.5406 38.6076L13.3514 39.6711L16.8603 33.6965L15.0495 32.633ZM18.5584 26.6584L16.804 29.6457L18.6148 30.7092L20.3692 27.7219L18.5584 26.6584ZM16.804 29.6457L15.0495 32.633L16.8603 33.6965L18.6148 30.7092L16.804 29.6457Z" fill="white" mask="url(#path-1-inside-1_221_1765)"/>
<path d="M64.7471 33.6704C64.3721 33.6235 63.4072 33.6001 61.8525 33.6001H61.4775V20.6392H59.1572C58.4697 20.6392 58.0635 20.6743 57.9385 20.7446C57.8135 20.8149 57.7158 20.8774 57.6455 20.9321L57.6104 20.9204V17.9204L57.6455 17.8853C57.9033 17.9712 58.5986 18.0142 59.7314 18.0142H67.0791C67.7666 18.0142 68.1729 17.979 68.2979 17.9087C68.4229 17.8384 68.5205 17.7759 68.5908 17.7212L68.626 17.7329V20.7329L68.5908 20.7681C68.333 20.6821 67.6377 20.6392 66.5049 20.6392H64.7471V33.6704ZM76.1846 27.5415C75.9502 27.5571 75.7002 27.5649 75.4346 27.5649C75.1689 27.5649 74.7744 27.5454 74.251 27.5063V33.6001H71.1455V17.9321C72.2393 17.7915 73.583 17.7212 75.1768 17.7212C77.3486 17.7212 78.9658 18.1235 80.0283 18.9282C81.0986 19.7251 81.6338 20.9595 81.6338 22.6313C81.6338 23.9282 81.1455 25.0376 80.1689 25.9595C79.8486 26.2563 79.4814 26.5142 79.0674 26.7329L81.458 31.772C81.9268 32.811 82.2861 33.4282 82.5361 33.6235L82.4775 33.6821C81.7197 33.5571 80.5283 33.561 78.9033 33.6938L76.1846 27.5415ZM75.3994 20.4868C75.001 20.4868 74.6182 20.5063 74.251 20.5454V25.022C74.6338 25.0767 75.083 25.104 75.5986 25.104C76.1143 25.104 76.5479 25.061 76.8994 24.9751C77.251 24.8813 77.5557 24.7407 77.8135 24.5532C78.3682 24.1392 78.6455 23.5181 78.6455 22.6899C78.6455 21.8618 78.3564 21.2798 77.7783 20.9438C77.2393 20.6392 76.4463 20.4868 75.3994 20.4868ZM86.2744 33.6938C85.6025 33.6313 84.8174 33.6001 83.9189 33.6001H82.9932L88.0908 19.3149C88.3174 18.6743 88.4307 18.3032 88.4307 18.2017C88.4307 18.0923 88.4268 18.0259 88.4189 18.0024L88.4307 17.979C88.9385 18.0024 89.4775 18.0142 90.0479 18.0142C90.5166 18.0142 91.0791 18.0063 91.7354 17.9907L91.7471 18.0142C91.7314 18.0454 91.7236 18.0884 91.7236 18.1431C91.7236 18.2915 91.8408 18.686 92.0752 19.3267L97.2783 33.6353C97.1221 33.6274 96.9385 33.6235 96.7275 33.6235C96.7275 33.6235 96.5244 33.6157 96.1182 33.6001C95.9229 33.6001 95.7471 33.6001 95.5908 33.6001H93.7744L92.6729 30.2251H87.376L86.2744 33.6938ZM91.7588 27.4126L89.9893 21.9634L88.2666 27.4126H91.7588ZM99.54 17.9673C100.321 17.9985 100.794 18.0142 100.958 18.0142H101.802C102.216 18.0142 102.548 17.9829 102.798 17.9204L102.786 33.6001H99.54V17.9673ZM109.478 33.6001C108.329 33.6001 107.567 33.6235 107.192 33.6704V17.9438C107.38 17.9907 107.767 18.0142 108.353 18.0142C108.946 18.0142 109.634 17.9985 110.415 17.9673V30.7876H112.841C113.544 30.7876 114.106 30.7642 114.528 30.7173C114.474 32.5454 114.446 33.4946 114.446 33.5649V33.6821C113.681 33.6274 112.396 33.6001 110.591 33.6001H109.478ZM117.001 17.9321C118.087 17.7915 119.2 17.7212 120.341 17.7212C122.466 17.7212 124.079 18.2212 125.181 19.2212C126.29 20.2134 126.845 21.7017 126.845 23.686C126.845 25.4595 126.239 26.8618 125.028 27.8931C123.896 28.8618 122.438 29.3462 120.657 29.3462C120.454 29.3462 120.231 29.3345 119.989 29.311V33.6001H117.001V17.9321ZM120.692 20.5454C120.458 20.5454 120.224 20.5532 119.989 20.5688V26.7329C120.239 26.7642 120.544 26.7798 120.903 26.7798C121.263 26.7798 121.638 26.7056 122.028 26.5571C122.419 26.4009 122.747 26.186 123.013 25.9126C123.567 25.3423 123.845 24.5923 123.845 23.6626C123.845 21.5845 122.794 20.5454 120.692 20.5454ZM130.384 33.6938C129.712 33.6313 128.927 33.6001 128.028 33.6001H127.103L132.2 19.3149C132.427 18.6743 132.54 18.3032 132.54 18.2017C132.54 18.0923 132.536 18.0259 132.528 18.0024L132.54 17.979C133.048 18.0024 133.587 18.0142 134.157 18.0142C134.626 18.0142 135.188 18.0063 135.845 17.9907L135.856 18.0142C135.841 18.0454 135.833 18.0884 135.833 18.1431C135.833 18.2915 135.95 18.686 136.185 19.3267L141.388 33.6353C141.231 33.6274 141.048 33.6235 140.837 33.6235C140.837 33.6235 140.634 33.6157 140.228 33.6001C140.032 33.6001 139.856 33.6001 139.7 33.6001H137.884L136.782 30.2251H131.485L130.384 33.6938ZM135.868 27.4126L134.099 21.9634L132.376 27.4126H135.868ZM145.571 33.6001C144.423 33.6001 143.661 33.6235 143.286 33.6704V17.9438C143.474 17.9907 143.86 18.0142 144.446 18.0142C145.04 18.0142 145.728 17.9985 146.509 17.9673V30.7876H148.935C149.638 30.7876 150.2 30.7642 150.622 30.7173C150.567 32.5454 150.54 33.4946 150.54 33.5649V33.6821C149.774 33.6274 148.489 33.6001 146.685 33.6001H145.571ZM162.728 18.8813L162.505 22.3267L162.423 22.3501C161.845 21.4829 160.86 20.9204 159.47 20.6626C159.032 20.5767 158.61 20.5337 158.204 20.5337C157.806 20.5337 157.462 20.5688 157.173 20.6392C156.892 20.7095 156.649 20.811 156.446 20.9438C156.017 21.2251 155.802 21.5923 155.802 22.0454C155.802 22.6392 155.989 23.0845 156.364 23.3813C156.833 23.7407 157.61 23.9946 158.696 24.1431C159.782 24.2837 160.653 24.479 161.31 24.729C161.966 24.979 162.505 25.2954 162.927 25.6782C163.724 26.397 164.122 27.4126 164.122 28.7251C164.122 30.4438 163.474 31.7681 162.177 32.6978C161.067 33.4946 159.669 33.8931 157.981 33.8931C156.622 33.8931 155.278 33.6353 153.95 33.1196C153.513 32.9478 153.13 32.7485 152.802 32.522L152.931 28.6079L152.978 28.5728C153.946 30.2446 155.536 31.0806 157.747 31.0806C159.317 31.0806 160.356 30.7017 160.864 29.9438C161.036 29.686 161.122 29.4009 161.122 29.0884C161.122 28.7681 161.071 28.5063 160.97 28.3032C160.868 28.0923 160.7 27.9126 160.466 27.7642C160.013 27.4673 159.251 27.2681 158.181 27.1665C157.11 27.0649 156.235 26.8735 155.556 26.5923C154.876 26.311 154.333 25.9634 153.927 25.5493C153.192 24.7993 152.825 23.7524 152.825 22.4087C152.825 21.0181 153.313 19.8931 154.29 19.0337C155.282 18.1587 156.618 17.7212 158.298 17.7212C159.985 17.7212 161.462 18.1079 162.728 18.8813Z" fill="white"/>
</svg>
