<svg width="76" height="76" viewBox="0 0 76 76" fill="none" xmlns="http://www.w3.org/2000/svg">
<mask id="path-1-inside-1_15_2628" fill="white">
<path fill-rule="evenodd" clip-rule="evenodd" d="M16.671 39.7812L22.662 29.5851L27.8053 38.3429L25.2989 42.6105L22.7926 46.878L17.7798 55.4132H37.8189L42.9445 64.125H2.375L16.671 39.7812ZM25.365 24.9731L30.3035 16.5612L58.2528 64.125H48.355L25.365 24.9731ZM33.0526 11.875H42.937L73.625 64.125H63.7272L33.0526 11.875Z"/>
</mask>
<path fill-rule="evenodd" clip-rule="evenodd" d="M16.671 39.7812L22.662 29.5851L27.8053 38.3429L25.2989 42.6105L22.7926 46.878L17.7798 55.4132H37.8189L42.9445 64.125H2.375L16.671 39.7812ZM25.365 24.9731L30.3035 16.5612L58.2528 64.125H48.355L25.365 24.9731ZM33.0526 11.875H42.937L73.625 64.125H63.7272L33.0526 11.875Z" fill="#44513C"/>
<path d="M16.671 39.7812L15.3777 39.0214L15.3776 39.0217L16.671 39.7812ZM22.662 29.5851L23.9554 28.8255L22.6623 26.6236L21.3687 28.8252L22.662 29.5851ZM27.8053 38.3429L29.0987 39.1025L29.5449 38.3429L29.0988 37.5833L27.8053 38.3429ZM17.7798 55.4132L16.4864 54.6536L15.1593 56.9132H17.7798V55.4132ZM37.8189 55.4132L39.1118 54.6526L38.6768 53.9132H37.8189V55.4132ZM42.9445 64.125V65.625H45.5673L44.2373 63.3644L42.9445 64.125ZM2.375 64.125L1.08155 63.3654L-0.245412 65.625H2.375V64.125ZM25.365 24.9731L24.0715 24.2137L23.6256 24.9732L24.0715 25.7327L25.365 24.9731ZM30.3035 16.5612L31.5968 15.8012L30.3029 13.5994L29.01 15.8017L30.3035 16.5612ZM58.2528 64.125V65.625H60.874L59.5461 63.3651L58.2528 64.125ZM48.355 64.125L47.0615 64.8845L47.4963 65.625H48.355V64.125ZM33.0526 11.875V10.375H30.4326L31.759 12.6344L33.0526 11.875ZM42.937 11.875L44.2304 11.1153L43.7956 10.375H42.937V11.875ZM73.625 64.125V65.625H76.2456L74.9184 63.3653L73.625 64.125ZM63.7272 64.125L62.4336 64.8844L62.8684 65.625H63.7272V64.125ZM17.9643 40.5411L23.9552 30.345L21.3687 28.8252L15.3777 39.0214L17.9643 40.5411ZM21.3685 30.3447L26.5119 39.1025L29.0988 37.5833L23.9554 28.8255L21.3685 30.3447ZM17.7798 56.9132H37.8189V53.9132H17.7798V56.9132ZM36.5261 56.1738L41.6516 64.8856L44.2373 63.3644L39.1118 54.6526L36.5261 56.1738ZM42.9445 62.625H2.375V65.625H42.9445V62.625ZM3.66845 64.8846L17.9645 40.5408L15.3776 39.0217L1.08155 63.3654L3.66845 64.8846ZM26.6586 25.7325L31.5971 17.3206L29.01 15.8017L24.0715 24.2137L26.6586 25.7325ZM29.0103 17.3211L56.9596 64.8849L59.5461 63.3651L31.5968 15.8012L29.0103 17.3211ZM58.2528 62.625H48.355V65.625H58.2528V62.625ZM49.6485 63.3655L26.6585 24.2136L24.0715 25.7327L47.0615 64.8845L49.6485 63.3655ZM33.0526 13.375H42.937V10.375H33.0526V13.375ZM41.6436 12.6347L72.3316 64.8847L74.9184 63.3653L44.2304 11.1153L41.6436 12.6347ZM73.625 62.625H63.7272V65.625H73.625V62.625ZM65.0208 63.3656L34.3461 11.1156L31.759 12.6344L62.4336 64.8844L65.0208 63.3656ZM21.4992 46.1184L16.4864 54.6536L19.0733 56.1728L24.086 47.6377L21.4992 46.1184ZM26.5119 37.5833L24.0055 41.8508L26.5924 43.3701L29.0987 39.1025L26.5119 37.5833ZM24.0055 41.8508L21.4992 46.1184L24.086 47.6377L26.5924 43.3701L24.0055 41.8508Z" fill="#44513C" mask="url(#path-1-inside-1_15_2628)"/>
</svg>
