<svg width="172" height="54" viewBox="0 0 172 54" fill="none" xmlns="http://www.w3.org/2000/svg">
<mask id="path-1-inside-1_219_1750" fill="white">
<path fill-rule="evenodd" clip-rule="evenodd" d="M12.2699 28.5969L16.4636 21.4596L20.0639 27.59L18.3095 30.5773L16.555 33.5646L13.0461 39.5392H27.0734L30.6613 45.6375H2.2627L12.2699 28.5969ZM18.3557 18.2312L21.8127 12.3428L41.3772 45.6375H34.4487L18.3557 18.2312ZM23.737 9.0625H30.6561L52.1377 45.6375H45.2092L23.737 9.0625Z"/>
</mask>
<path fill-rule="evenodd" clip-rule="evenodd" d="M12.2699 28.5969L16.4636 21.4596L20.0639 27.59L18.3095 30.5773L16.555 33.5646L13.0461 39.5392H27.0734L30.6613 45.6375H2.2627L12.2699 28.5969ZM18.3557 18.2312L21.8127 12.3428L41.3772 45.6375H34.4487L18.3557 18.2312ZM23.737 9.0625H30.6561L52.1377 45.6375H45.2092L23.737 9.0625Z" fill="#44513C"/>
<path d="M12.2699 28.5969L11.3646 28.065L11.3645 28.0652L12.2699 28.5969ZM16.4636 21.4596L17.369 20.9278L16.4638 19.3865L15.5583 20.9276L16.4636 21.4596ZM20.0639 27.59L20.9693 28.1218L21.2816 27.59L20.9693 27.0583L20.0639 27.59ZM13.0461 39.5392L12.1407 39.0075L11.2117 40.5892H13.0461V39.5392ZM27.0734 39.5392L27.9784 39.0068L27.6739 38.4892H27.0734V39.5392ZM30.6613 45.6375V46.6875H32.4973L31.5663 45.1051L30.6613 45.6375ZM2.2627 45.6375L1.35728 45.1058L0.428407 46.6875H2.2627V45.6375ZM18.3557 18.2312L17.4502 17.6996L17.1381 18.2312L17.4503 18.7629L18.3557 18.2312ZM21.8127 12.3428L22.7179 11.8109L21.8122 10.2696L20.9072 11.8112L21.8127 12.3428ZM41.3772 45.6375V46.6875H43.212L42.2824 45.1055L41.3772 45.6375ZM34.4487 45.6375L33.5433 46.1692L33.8476 46.6875H34.4487V45.6375ZM23.737 9.0625V8.0125H21.903L22.8315 9.59409L23.737 9.0625ZM30.6561 9.0625L31.5615 8.53074L31.2571 8.0125H30.6561V9.0625ZM52.1377 45.6375V46.6875H53.9721L53.0431 45.1057L52.1377 45.6375ZM45.2092 45.6375L44.3037 46.1691L44.6081 46.6875H45.2092V45.6375ZM13.1752 29.1288L17.3689 21.9915L15.5583 20.9276L11.3646 28.065L13.1752 29.1288ZM15.5582 21.9913L19.1585 28.1218L20.9693 27.0583L17.369 20.9278L15.5582 21.9913ZM13.0461 40.5892H27.0734V38.4892H13.0461V40.5892ZM26.1684 40.0717L29.7563 46.1699L31.5663 45.1051L27.9784 39.0068L26.1684 40.0717ZM30.6613 44.5875H2.2627V46.6875H30.6613V44.5875ZM3.16811 46.1692L13.1753 29.1286L11.3645 28.0652L1.35728 45.1058L3.16811 46.1692ZM19.2612 18.7628L22.7181 12.8744L20.9072 11.8112L17.4502 17.6996L19.2612 18.7628ZM20.9074 12.8748L40.4719 46.1695L42.2824 45.1055L22.7179 11.8109L20.9074 12.8748ZM41.3772 44.5875H34.4487V46.6875H41.3772V44.5875ZM35.3541 45.1058L19.2611 17.6995L17.4503 18.7629L33.5433 46.1692L35.3541 45.1058ZM23.737 10.1125H30.6561V8.0125H23.737V10.1125ZM29.7507 9.59426L51.2323 46.1693L53.0431 45.1057L31.5615 8.53074L29.7507 9.59426ZM52.1377 44.5875H45.2092V46.6875H52.1377V44.5875ZM46.1147 45.1059L24.6425 8.53091L22.8315 9.59409L44.3037 46.1691L46.1147 45.1059ZM15.6496 33.0329L12.1407 39.0075L13.9515 40.071L17.4604 34.0964L15.6496 33.0329ZM19.1585 27.0583L17.4041 30.0456L19.2149 31.1091L20.9693 28.1218L19.1585 27.0583ZM17.4041 30.0456L15.6496 33.0329L17.4604 34.0964L19.2149 31.1091L17.4041 30.0456Z" fill="#44513C" mask="url(#path-1-inside-1_219_1750)"/>
<path d="M65.3472 34.0703C64.9722 34.0234 64.0073 34 62.4526 34H62.0776V21.0391H59.7573C59.0698 21.0391 58.6636 21.0742 58.5386 21.1445C58.4136 21.2148 58.3159 21.2773 58.2456 21.332L58.2105 21.3203V18.3203L58.2456 18.2852C58.5034 18.3711 59.1987 18.4141 60.3315 18.4141H67.6792C68.3667 18.4141 68.773 18.3789 68.898 18.3086C69.023 18.2383 69.1206 18.1758 69.1909 18.1211L69.2261 18.1328V21.1328L69.1909 21.168C68.9331 21.082 68.2378 21.0391 67.105 21.0391H65.3472V34.0703ZM76.7847 27.9414C76.5503 27.957 76.3003 27.9648 76.0347 27.9648C75.769 27.9648 75.3745 27.9453 74.8511 27.9063V34H71.7456V18.332C72.8394 18.1914 74.1831 18.1211 75.7769 18.1211C77.9487 18.1211 79.5659 18.5234 80.6284 19.3281C81.6987 20.125 82.2339 21.3594 82.2339 23.0313C82.2339 24.3281 81.7456 25.4375 80.769 26.3594C80.4487 26.6563 80.0815 26.9141 79.6675 27.1328L82.0581 32.1719C82.5269 33.2109 82.8862 33.8281 83.1362 34.0234L83.0776 34.082C82.3198 33.957 81.1284 33.9609 79.5034 34.0937L76.7847 27.9414ZM75.9995 20.8867C75.6011 20.8867 75.2183 20.9063 74.8511 20.9453V25.4219C75.2339 25.4766 75.6831 25.5039 76.1987 25.5039C76.7144 25.5039 77.148 25.4609 77.4995 25.375C77.8511 25.2813 78.1558 25.1406 78.4136 24.9531C78.9683 24.5391 79.2456 23.918 79.2456 23.0898C79.2456 22.2617 78.9565 21.6797 78.3784 21.3438C77.8394 21.0391 77.0464 20.8867 75.9995 20.8867ZM86.8745 34.0937C86.2026 34.0312 85.4175 34 84.519 34H83.5933L88.6909 19.7148C88.9175 19.0742 89.0308 18.7031 89.0308 18.6016C89.0308 18.4922 89.0269 18.4258 89.019 18.4023L89.0308 18.3789C89.5386 18.4023 90.0776 18.4141 90.648 18.4141C91.1167 18.4141 91.6792 18.4063 92.3355 18.3906L92.3472 18.4141C92.3315 18.4453 92.3237 18.4883 92.3237 18.543C92.3237 18.6914 92.4409 19.0859 92.6753 19.7266L97.8784 34.0352C97.7222 34.0273 97.5386 34.0234 97.3276 34.0234C97.3276 34.0234 97.1245 34.0156 96.7183 34C96.523 34 96.3472 34 96.1909 34H94.3745L93.273 30.625H87.9761L86.8745 34.0937ZM92.3589 27.8125L90.5894 22.3633L88.8667 27.8125H92.3589ZM100.14 18.3672C100.921 18.3984 101.394 18.4141 101.558 18.4141H102.402C102.816 18.4141 103.148 18.3828 103.398 18.3203L103.386 34H100.14V18.3672ZM110.078 34C108.929 34 108.167 34.0234 107.792 34.0703V18.3438C107.98 18.3906 108.367 18.4141 108.953 18.4141C109.546 18.4141 110.234 18.3984 111.015 18.3672V31.1875H113.441C114.144 31.1875 114.707 31.1641 115.128 31.1172C115.074 32.9453 115.046 33.8945 115.046 33.9648V34.082C114.281 34.0273 112.996 34 111.191 34H110.078ZM117.601 18.332C118.687 18.1914 119.8 18.1211 120.941 18.1211C123.066 18.1211 124.679 18.6211 125.781 19.6211C126.89 20.6133 127.445 22.1016 127.445 24.0859C127.445 25.8594 126.839 27.2617 125.628 28.293C124.496 29.2617 123.039 29.7461 121.257 29.7461C121.054 29.7461 120.832 29.7344 120.589 29.7109V34H117.601V18.332ZM121.292 20.9453C121.058 20.9453 120.824 20.9531 120.589 20.9688V27.1328C120.839 27.1641 121.144 27.1797 121.503 27.1797C121.863 27.1797 122.238 27.1055 122.628 26.957C123.019 26.8008 123.347 26.5859 123.613 26.3125C124.167 25.7422 124.445 24.9922 124.445 24.0625C124.445 21.9844 123.394 20.9453 121.292 20.9453ZM130.984 34.0937C130.312 34.0312 129.527 34 128.628 34H127.703L132.8 19.7148C133.027 19.0742 133.14 18.7031 133.14 18.6016C133.14 18.4922 133.136 18.4258 133.128 18.4023L133.14 18.3789C133.648 18.4023 134.187 18.4141 134.757 18.4141C135.226 18.4141 135.789 18.4063 136.445 18.3906L136.457 18.4141C136.441 18.4453 136.433 18.4883 136.433 18.543C136.433 18.6914 136.55 19.0859 136.785 19.7266L141.988 34.0352C141.832 34.0273 141.648 34.0234 141.437 34.0234C141.437 34.0234 141.234 34.0156 140.828 34C140.632 34 140.457 34 140.3 34H138.484L137.382 30.625H132.085L130.984 34.0937ZM136.468 27.8125L134.699 22.3633L132.976 27.8125H136.468ZM146.171 34C145.023 34 144.261 34.0234 143.886 34.0703V18.3438C144.074 18.3906 144.46 18.4141 145.046 18.4141C145.64 18.4141 146.328 18.3984 147.109 18.3672V31.1875H149.535C150.238 31.1875 150.8 31.1641 151.222 31.1172C151.167 32.9453 151.14 33.8945 151.14 33.9648V34.082C150.375 34.0273 149.089 34 147.285 34H146.171ZM163.328 19.2813L163.105 22.7266L163.023 22.75C162.445 21.8828 161.46 21.3203 160.07 21.0625C159.632 20.9766 159.21 20.9336 158.804 20.9336C158.406 20.9336 158.062 20.9688 157.773 21.0391C157.492 21.1094 157.25 21.2109 157.046 21.3438C156.617 21.625 156.402 21.9922 156.402 22.4453C156.402 23.0391 156.589 23.4844 156.964 23.7813C157.433 24.1406 158.21 24.3945 159.296 24.543C160.382 24.6836 161.253 24.8789 161.91 25.1289C162.566 25.3789 163.105 25.6953 163.527 26.0781C164.324 26.7969 164.722 27.8125 164.722 29.125C164.722 30.8438 164.074 32.168 162.777 33.0977C161.667 33.8945 160.269 34.293 158.582 34.293C157.222 34.293 155.878 34.0352 154.55 33.5195C154.113 33.3477 153.73 33.1484 153.402 32.9219L153.531 29.0078L153.578 28.9727C154.546 30.6445 156.136 31.4805 158.347 31.4805C159.917 31.4805 160.957 31.1016 161.464 30.3438C161.636 30.0859 161.722 29.8008 161.722 29.4883C161.722 29.168 161.671 28.9063 161.57 28.7031C161.468 28.4922 161.3 28.3125 161.066 28.1641C160.613 27.8672 159.851 27.668 158.781 27.5664C157.71 27.4648 156.835 27.2734 156.156 26.9922C155.476 26.7109 154.933 26.3633 154.527 25.9492C153.792 25.1992 153.425 24.1523 153.425 22.8086C153.425 21.418 153.914 20.293 154.89 19.4336C155.882 18.5586 157.218 18.1211 158.898 18.1211C160.585 18.1211 162.062 18.5078 163.328 19.2813Z" fill="#44513C"/>
</svg>
