<svg width="168" height="169" viewBox="0 0 168 169" fill="none" xmlns="http://www.w3.org/2000/svg">
<path d="M135.692 29H78.2294C77.2742 29 76.4999 29.7783 76.4999 30.7384V82.4493C76.4999 83.4094 77.2742 84.1877 78.2294 84.1877H135.692C136.647 84.1877 137.421 83.4094 137.421 82.4493V30.7384C137.421 29.7783 136.647 29 135.692 29Z" fill="#D9EDCB"/>
<path d="M78.5176 29H135.401C136.515 29 137.418 29.9086 137.418 31.0282V35.1604H76.4999V31.0282C76.4999 29.9086 77.4038 29 78.5176 29Z" fill="#53584F"/>
<path d="M80.2163 32.5753C80.4822 32.5753 80.6977 32.3587 80.6977 32.0915C80.6977 31.8243 80.4822 31.6077 80.2163 31.6077C79.9505 31.6077 79.735 31.8243 79.735 32.0915C79.735 32.3587 79.9505 32.5753 80.2163 32.5753Z" fill="white"/>
<path d="M83.5803 32.0915C83.5803 32.3587 83.3648 32.5753 83.0989 32.5753C82.833 32.5753 82.6176 32.3587 82.6176 32.0915C82.6176 31.8243 82.833 31.6077 83.0989 31.6077C83.3648 31.6077 83.5803 31.8243 83.5803 32.0915Z" fill="white"/>
<path d="M85.9842 32.5753C86.25 32.5753 86.4655 32.3587 86.4655 32.0915C86.4655 31.8243 86.25 31.6077 85.9842 31.6077C85.7183 31.6077 85.5028 31.8243 85.5028 32.0915C85.5028 32.3587 85.7183 32.5753 85.9842 32.5753Z" fill="white"/>
<path d="M130.095 40.1309H107.091V40.9691H130.095V40.1309Z" fill="white"/>
<path d="M130.095 43.574H107.091V44.4122H130.095V43.574Z" fill="white"/>
<path d="M130.095 47.0171H107.091V47.8554H130.095V47.0171Z" fill="white"/>
<path d="M130.095 50.4602H107.091V51.2985H130.095V50.4602Z" fill="white"/>
<path d="M118.593 53.906H107.091V54.7443H118.593V53.906Z" fill="white"/>
<path d="M82.6567 61.5151H105.661V60.6769H82.6567V61.5151Z" fill="white"/>
<path d="M82.6567 64.9583H105.661V64.12H82.6567V64.9583Z" fill="white"/>
<path d="M82.6567 68.4041H105.661V67.5658H82.6567V68.4041Z" fill="white"/>
<path d="M82.6567 71.8472H105.661V71.0089H82.6567V71.8472Z" fill="white"/>
<path d="M94.1587 75.29H105.661V74.4518H94.1587V75.29Z" fill="white"/>
<path d="M128.827 61.0059H109.142V77.4702H128.827V61.0059Z" fill="white"/>
<path d="M109.108 72.4968L114.927 68.3983L118.984 71.2225L125.371 65.7935L128.83 69.2365V77.4673H109.142L109.108 72.4968Z" fill="#53584F"/>
<path d="M119.326 67.4504C120.236 67.4504 120.974 66.7086 120.974 65.7936C120.974 64.8785 120.236 64.1367 119.326 64.1367C118.416 64.1367 117.678 64.8785 117.678 65.7936C117.678 66.7086 118.416 67.4504 119.326 67.4504Z" fill="#53584F"/>
<path d="M101.849 40.8735H82.1642V57.3379H101.849V40.8735Z" fill="white"/>
<path d="M82.1306 52.3673L87.9488 48.2688L92.0067 51.093L98.3901 45.6611L101.849 49.107V57.3378H82.1642L82.1306 52.3673Z" fill="#53584F"/>
<path d="M92.348 47.3181C93.2584 47.3181 93.9964 46.5763 93.9964 45.6612C93.9964 44.7462 93.2584 44.0044 92.348 44.0044C91.4377 44.0044 90.6997 44.7462 90.6997 45.6612C90.6997 46.5763 91.4377 47.3181 92.348 47.3181Z" fill="#53584F"/>
<path d="M15.2353 92.5811H76.8487V124.888C76.8487 125.572 76.2978 126.126 75.6172 126.126H16.4668C15.7862 126.126 15.2353 125.572 15.2353 124.888V92.5811Z" fill="#D9EDCB"/>
<path d="M76.8487 92.5811H15.2353V98.813H76.8487V92.5811Z" fill="#53584F"/>
<path d="M18.9961 96.1989C19.2652 96.1989 19.4834 95.9796 19.4834 95.7091C19.4834 95.4385 19.2652 95.2192 18.9961 95.2192C18.727 95.2192 18.5088 95.4385 18.5088 95.7091C18.5088 95.9796 18.727 96.1989 18.9961 96.1989Z" fill="white"/>
<path d="M21.912 96.1989C22.1811 96.1989 22.3993 95.9796 22.3993 95.7091C22.3993 95.4385 22.1811 95.2192 21.912 95.2192C21.6429 95.2192 21.4247 95.4385 21.4247 95.7091C21.4247 95.9796 21.6429 96.1989 21.912 96.1989Z" fill="white"/>
<path d="M24.828 96.1989C25.0971 96.1989 25.3153 95.9796 25.3153 95.7091C25.3153 95.4385 25.0971 95.2192 24.828 95.2192C24.5589 95.2192 24.3407 95.4385 24.3407 95.7091C24.3407 95.9796 24.5589 96.1989 24.828 96.1989Z" fill="white"/>
<path d="M69.441 103.836H46.1744V104.683H69.441V103.836Z" fill="#53584F"/>
<path d="M69.441 107.321H46.1744V108.168H69.441V107.321Z" fill="#53584F"/>
<path d="M69.441 110.803H46.1744V111.65H69.441V110.803Z" fill="#53584F"/>
<path d="M69.441 114.288H46.1744V115.135H69.441V114.288Z" fill="#53584F"/>
<path d="M57.8064 117.77H46.1744V118.617H57.8064V117.77Z" fill="#53584F"/>
<path d="M40.2684 103.246H20.36V119.897H40.2684V103.246Z" fill="white"/>
<path d="M20.3256 114.868L26.2105 110.723L30.3156 113.577L36.7725 108.088L40.2711 111.57V119.894H20.3601L20.3256 114.868Z" fill="#53584F"/>
<path d="M32.3257 108.088C32.3257 109.014 31.5789 109.765 30.6572 109.765C29.7356 109.765 28.9887 109.014 28.9887 108.088C28.9887 107.161 29.7356 106.411 30.6572 106.411C31.5789 106.411 32.3257 107.161 32.3257 108.088Z" fill="#53584F"/>
<path d="M34.0634 114.207C34.0336 114.207 34.0733 113.668 33.8415 112.742C33.7322 112.28 33.5136 111.73 33.1725 111.151C32.828 110.572 32.3279 109.969 31.6523 109.46C30.98 108.954 30.1288 108.524 29.1485 108.351C28.1747 108.185 27.0785 108.215 26.0319 108.614C25.5053 108.797 24.9986 109.077 24.5316 109.427C24.2898 109.593 24.0812 109.799 23.8593 110.003C23.6605 110.226 23.4519 110.442 23.2797 110.692C22.551 111.667 22.1404 112.919 22.1271 114.21C22.1371 115.502 22.5477 116.754 23.2797 117.729C23.4519 117.982 23.6605 118.199 23.8593 118.422C24.0812 118.621 24.2898 118.831 24.5316 118.998C24.9986 119.347 25.5053 119.627 26.0319 119.81C27.0752 120.209 28.1747 120.243 29.1485 120.073C30.1288 119.9 30.9766 119.47 31.6523 118.964C32.3279 118.452 32.8247 117.849 33.1725 117.273C33.5169 116.694 33.7355 116.145 33.8415 115.682C34.0733 114.753 34.0303 114.214 34.0634 114.217C34.0634 114.217 34.0667 114.25 34.0667 114.314C34.0667 114.387 34.0634 114.483 34.0601 114.603C34.0601 114.73 34.0534 114.886 34.0203 115.069C33.9971 115.252 33.9706 115.465 33.9044 115.699C33.8051 116.171 33.5931 116.731 33.252 117.323C32.9075 117.916 32.4074 118.535 31.7251 119.064C31.0429 119.587 30.1785 120.033 29.1749 120.219C28.1814 120.396 27.0553 120.369 25.9789 119.963C25.4391 119.777 24.9158 119.494 24.4355 119.134C24.1871 118.964 23.9719 118.751 23.7433 118.545C23.538 118.318 23.3227 118.095 23.1439 117.836C22.3921 116.834 21.9681 115.545 21.9549 114.217C21.9681 112.889 22.3921 111.6 23.1439 110.598C23.3194 110.339 23.538 110.116 23.7433 109.889C23.9719 109.683 24.1871 109.47 24.4355 109.3C24.9158 108.941 25.4391 108.658 25.9789 108.471C27.0553 108.065 28.178 108.038 29.1749 108.215C30.1785 108.398 31.0429 108.844 31.7251 109.37C32.4107 109.899 32.9108 110.519 33.252 111.111C33.5931 111.707 33.8051 112.266 33.9044 112.736C33.9706 112.969 33.9938 113.182 34.0203 113.365C34.0501 113.548 34.0601 113.704 34.0601 113.831C34.0601 113.951 34.0634 114.044 34.0667 114.121C34.0667 114.184 34.0667 114.217 34.0634 114.217V114.207Z" fill="black"/>
<path d="M28.0555 117.236C28.0091 117.236 27.9694 115.878 27.9694 114.204C27.9694 112.529 28.0091 111.171 28.0555 111.171C28.1018 111.171 28.1416 112.529 28.1416 114.204C28.1416 115.878 28.1018 117.236 28.0555 117.236Z" fill="black"/>
<path d="M31.0727 114.207C31.0727 114.254 29.7214 114.293 28.0555 114.293C26.3896 114.293 25.0383 114.254 25.0383 114.207C25.0383 114.16 26.3896 114.12 28.0555 114.12C29.7214 114.12 31.0727 114.16 31.0727 114.207Z" fill="black"/>
<path d="M123.254 82.3914H37.7826C33.4311 82.3914 29.9035 85.9372 29.9035 90.3111V91.18C29.9035 95.554 33.4311 99.0998 37.7826 99.0998H123.254C127.606 99.0998 131.133 95.554 131.133 91.18V90.3111C131.133 85.9372 127.606 82.3914 123.254 82.3914Z" fill="white"/>
<path d="M108.708 82.2383V99.0965H122.85C127.483 99.0965 131.236 95.3214 131.236 90.6674C131.236 86.0101 127.48 82.2383 122.85 82.2383H108.708Z" fill="#6B7665"/>
<path d="M121.866 90.2014C121.843 90.2014 121.863 89.8851 121.724 89.3392C121.585 88.8065 121.231 88.0242 120.432 87.4183C120.038 87.122 119.541 86.8723 118.968 86.7725C118.399 86.6759 117.76 86.6959 117.15 86.9289C116.842 87.0355 116.547 87.1986 116.276 87.405C116.001 87.6047 115.753 87.8544 115.547 88.144C115.123 88.7133 114.882 89.4424 114.875 90.198C114.882 90.9504 115.12 91.6828 115.547 92.2521C115.753 92.5417 116.001 92.7914 116.276 92.9911C116.547 93.1975 116.842 93.3573 117.15 93.4672C117.76 93.7002 118.402 93.7202 118.968 93.6236C119.541 93.5238 120.038 93.2741 120.432 92.9778C121.231 92.3752 121.585 91.5896 121.724 91.0569C121.863 90.5143 121.843 90.1947 121.866 90.1947C121.866 90.1947 121.909 90.511 121.787 91.0703C121.664 91.6195 121.32 92.4318 120.505 93.071C120.101 93.3839 119.588 93.6503 118.992 93.7601C118.402 93.8666 117.73 93.8533 117.091 93.6103C116.769 93.5004 116.458 93.3307 116.173 93.1176C115.885 92.9079 115.623 92.6482 115.405 92.3453C114.958 91.7494 114.703 90.9804 114.696 90.1914C114.703 89.4024 114.958 88.6334 115.405 88.0375C115.62 87.7346 115.885 87.4749 116.173 87.2652C116.458 87.0521 116.769 86.8823 117.091 86.7725C117.73 86.5328 118.399 86.5161 118.992 86.6227C119.588 86.7325 120.101 86.9989 120.505 87.3118C121.32 87.951 121.668 88.7632 121.787 89.3125C121.909 89.8718 121.866 90.1914 121.866 90.1914V90.2014Z" fill="white"/>
<path d="M125.155 95.1814C125.129 95.2213 124.215 94.6088 123.115 93.8198C122.016 93.0275 121.148 92.355 121.174 92.3151C121.201 92.2751 122.115 92.8844 123.214 93.6767C124.314 94.469 125.182 95.1414 125.155 95.1781V95.1814Z" fill="white"/>
<path d="M101.415 89.1792H39.5314V92.7546H101.415V89.1792Z" fill="#53584F"/>
<path d="M123.254 99.0999C123.254 99.0999 123.45 99.0832 123.827 99.0633C124.016 99.0633 124.251 99.02 124.526 98.9767C124.804 98.9468 125.119 98.8535 125.476 98.7603C126.179 98.5406 127.033 98.1844 127.904 97.5352C128.013 97.4554 128.123 97.3721 128.232 97.2856C128.338 97.1957 128.441 97.0958 128.55 96.9959C128.772 96.8062 128.971 96.5798 129.179 96.3468C129.394 96.1204 129.563 95.8441 129.769 95.5844C129.855 95.4413 129.941 95.2981 130.03 95.1517L130.163 94.9319L130.275 94.6956C130.603 94.0731 130.819 93.354 130.971 92.5916C131.001 92.3986 131.031 92.2021 131.06 92.0057C131.07 91.806 131.08 91.6029 131.09 91.3998C131.107 90.9937 131.103 90.5676 131.09 90.1415C131.067 88.437 130.428 86.5727 129.1 85.0813C127.792 83.5899 125.761 82.518 123.503 82.4614C121.244 82.4381 118.846 82.4614 116.335 82.4547C96.2319 82.4614 68.4645 82.4714 37.7926 82.4814C35.8915 82.4814 34.0236 83.2038 32.6226 84.4588C31.2183 85.7039 30.2811 87.4583 30.0658 89.3059C30.0194 89.5356 30.026 89.7686 30.0095 89.9983C29.9929 90.228 29.9896 90.4611 29.9929 90.6974C29.9863 91.1668 30.0062 91.6262 30.0492 92.0856C30.1419 93.0044 30.4268 93.8933 30.8341 94.7089C31.6555 96.3401 33.0399 97.6584 34.6859 98.3708C35.5073 98.727 36.385 98.9334 37.2693 98.9934C37.7098 99.0267 38.1569 99.02 38.604 99.02C39.0511 99.02 39.4949 99.02 39.9387 99.02C41.7139 99.02 43.4726 99.02 45.2113 99.02C48.6889 99.02 52.0969 99.02 55.4188 99.02C68.7096 99.0267 80.679 99.0333 90.7275 99.04C100.776 99.05 108.91 99.0599 114.534 99.0666C117.342 99.0733 119.525 99.0799 121.005 99.0832C121.744 99.0866 122.307 99.0899 122.688 99.0932C123.065 99.0932 123.261 99.1032 123.261 99.1032C123.261 99.1032 123.065 99.1099 122.688 99.1132C122.307 99.1132 121.744 99.1165 121.005 99.1232C119.525 99.1265 117.342 99.1332 114.534 99.1398C108.91 99.1465 100.779 99.1565 90.7275 99.1665C80.6757 99.1731 68.7063 99.1765 55.4188 99.1864C52.0969 99.1864 48.6922 99.1864 45.2113 99.1864C43.4726 99.1864 41.7139 99.1864 39.9387 99.1864C39.4949 99.1864 39.0511 99.1864 38.604 99.1864C38.1569 99.1864 37.7131 99.1931 37.2593 99.1598C36.3585 99.0999 35.4609 98.8868 34.6197 98.524C32.9372 97.7949 31.523 96.4467 30.6818 94.7821C30.2645 93.9499 29.9764 93.0411 29.8803 92.1023C29.8372 91.6329 29.8174 91.1602 29.824 90.6941C29.824 90.4611 29.824 90.2247 29.8406 89.9883C29.8571 89.752 29.8505 89.5156 29.8969 89.2793C30.1188 87.3917 31.0759 85.5973 32.51 84.3257C33.9374 83.044 35.8518 82.3083 37.7926 82.3049C68.4612 82.3149 96.2286 82.3249 116.335 82.3316C118.849 82.3382 121.24 82.3216 123.506 82.3515C125.798 82.4148 127.851 83.5067 129.173 85.0181C130.511 86.5295 131.153 88.4204 131.173 90.1415C131.186 90.5742 131.186 90.9904 131.17 91.4032C131.16 91.6096 131.147 91.8126 131.137 92.0157C131.107 92.2155 131.077 92.4119 131.047 92.6083C130.895 93.3773 130.673 94.103 130.338 94.7289C130.299 94.8088 130.262 94.8887 130.222 94.9652L130.087 95.1883C129.997 95.3348 129.908 95.4812 129.822 95.6244C129.616 95.8874 129.444 96.1637 129.226 96.3901C129.017 96.6231 128.815 96.8495 128.59 97.0392C128.48 97.1358 128.378 97.2356 128.268 97.3288C128.156 97.4121 128.043 97.4953 127.937 97.5785C127.06 98.2244 126.198 98.5806 125.49 98.7936C125.129 98.8835 124.814 98.9767 124.536 99.0033C124.258 99.0466 124.026 99.0832 123.834 99.0832C123.453 99.0999 123.261 99.1032 123.261 99.1032L123.254 99.0999Z" fill="black"/>
<path d="M81.6362 100.061C81.1505 99.489 81.0988 99.0048 82.1975 98.9088C84.6181 98.6887 86.4016 97.6282 86.6803 97.012C86.9629 96.3957 86.1946 95.7955 85.5377 96.1676C85.0082 96.4678 83.9691 96.6959 83.1809 96.8399C82.532 96.956 81.8671 96.968 81.2182 96.8679C80.6529 96.7799 80.1592 96.6839 79.7173 96.5878C79.7173 96.5878 77.1575 96.0316 76.0507 95.1672L70.6324 100.986L73.1724 103.871C73.1724 103.871 74.3866 105.696 76.5643 105.479C78.7459 105.263 81.676 103.691 81.676 103.691C82.0741 103.078 85.5815 105.255 86.7121 106.072C87.8268 106.876 88.6788 106.68 88.635 105.9C88.6071 105.363 85.2073 102.786 84.0687 102.006C83.4476 101.578 82.2214 100.762 81.6362 100.073" fill="#FFBE9D"/>
<path d="M78.4513 105.115C78.4553 105.147 78.296 105.219 78.0134 105.211C77.7347 105.207 77.3485 105.095 77.0062 104.835C76.6638 104.575 76.4528 104.227 76.3732 103.963C76.2896 103.695 76.3134 103.518 76.3453 103.514C76.4209 103.498 76.5563 104.155 77.1773 104.611C77.7825 105.087 78.4513 105.035 78.4553 105.115H78.4513Z" fill="#EB996E"/>
<path d="M80.5972 104.267C80.5972 104.299 80.442 104.359 80.1752 104.343C79.9085 104.327 79.5422 104.215 79.2198 103.959C78.8973 103.703 78.6943 103.374 78.6146 103.118C78.531 102.862 78.5509 102.694 78.5828 102.69C78.6624 102.67 78.8057 103.29 79.3909 103.735C79.9642 104.195 80.5972 104.183 80.5972 104.263V104.267Z" fill="#EB996E"/>
<path d="M86.4374 43.7422C86.6644 48.5201 92.4608 55.0628 96.7724 56.1232C99.0376 56.6795 101.649 56.4194 103.445 57.948C106.526 60.573 104.723 66.0153 106.801 69.5367C108.079 71.7016 110.615 72.762 112.052 74.8189C114.44 78.2362 112.836 83.3984 109.58 85.9434C106.323 88.4884 101.98 88.9726 97.899 88.8686C88.9177 88.6365 79.7173 85.7673 73.2242 79.3647C70.1746 76.3595 58.2393 67.0757 62.4035 45.0787" fill="black"/>
<path d="M118.86 77.9282L84.7097 67.7361C81.8791 66.5276 79.7373 66.2314 79.7373 66.2314L68.208 66.3075C66.6434 66.3075 65.1664 66.6476 63.785 67.2359L32.7006 77.6161C30.3995 78.3484 28.811 80.7173 28.811 83.4184C28.811 86.7478 31.1997 89.4489 34.1457 89.4489H48.5016C48.4617 89.585 48.4379 89.661 48.4379 89.661L98.3648 89.8491C98.3648 89.8491 98.3648 89.8371 98.3648 89.8291L117.422 89.8731C120.368 89.8731 122.757 87.148 122.757 83.7866C122.757 81.0575 121.169 78.6645 118.868 77.9282H118.86Z" fill="#44513C"/>
<path d="M112.016 81.6377C112.016 81.6377 111.909 81.6377 111.706 81.6217C111.475 81.5937 111.184 81.5617 110.826 81.5217C110.065 81.4257 108.959 81.3016 107.593 81.1695C104.862 80.9014 101.072 80.6653 96.8799 80.7174C92.6878 80.7774 88.9057 81.1135 86.1827 81.4497C84.8211 81.6177 83.7184 81.7698 82.958 81.8858C82.6037 81.9339 82.313 81.9779 82.0821 82.0099C81.8831 82.0339 81.7756 82.0419 81.7716 82.0339C81.7716 82.0259 81.8711 81.9979 82.0702 81.9539C82.2971 81.9059 82.5877 81.8498 82.9381 81.7778C83.6945 81.6257 84.7933 81.4457 86.1548 81.2496C88.8779 80.8574 92.6719 80.4893 96.8759 80.4332C101.076 80.3812 104.878 80.6493 107.613 80.9695C108.978 81.1255 110.081 81.2816 110.842 81.4136C111.196 81.4737 111.487 81.5257 111.713 81.5657C111.913 81.6017 112.016 81.6297 112.016 81.6377Z" fill="black"/>
<g opacity="0.6">
<path d="M104.002 73.2984C104.002 73.2984 103.974 73.3425 103.907 73.4145C103.827 73.4985 103.727 73.6026 103.604 73.7346C103.333 74.0107 102.935 74.4149 102.398 74.9111C101.856 75.4073 101.18 75.9955 100.324 76.5918C99.4637 77.176 98.4166 77.7843 97.1347 78.1204C95.8608 78.4806 94.3599 78.4445 92.867 78.0364C91.3661 77.6322 89.8851 76.8679 88.3723 76.0436C86.8515 75.2312 85.287 74.2909 83.5074 73.7506C81.7478 73.1664 79.7293 73.1824 77.9458 74.0387C76.1503 74.8511 74.6216 76.0956 72.9495 76.9879C72.5355 77.22 72.0976 77.4001 71.6756 77.5922C71.2377 77.7483 70.8077 77.9243 70.3658 78.0324C69.49 78.2925 68.6022 78.4245 67.7343 78.4886C64.2429 78.7407 61.1217 77.6002 58.9958 76.0716C57.9209 75.3033 57.1048 74.4309 56.3563 73.7146C55.6118 72.9943 54.9271 72.4181 54.314 72.0339C53.0679 71.2616 52.2 71.2976 52.2199 71.2456C52.2199 71.2456 52.423 71.2456 52.8052 71.3136C53.1834 71.3817 53.7367 71.5657 54.3697 71.9379C55.0027 72.314 55.7074 72.8823 56.4638 73.5946C57.2282 74.2989 58.0483 75.1592 59.1112 75.9035C61.2172 77.3841 64.2906 78.4846 67.7144 78.2245C68.5663 78.1564 69.4342 78.0244 70.2902 77.7683C70.7241 77.6602 71.1421 77.4882 71.5721 77.3361C71.9861 77.144 72.4121 76.9719 72.8182 76.7438C74.4584 75.8635 75.9871 74.615 77.8304 73.7786C79.6617 72.8943 81.7955 72.8783 83.587 73.4825C85.4104 74.0428 86.9789 74.9951 88.4957 75.8115C90.0046 76.6438 91.4616 77.4041 92.9267 77.8083C94.3838 78.2165 95.8369 78.2645 97.083 77.9243C98.337 77.6122 99.3761 77.024 100.232 76.4597C101.088 75.8835 101.773 75.3073 102.322 74.8271C102.871 74.3469 103.282 73.9547 103.564 73.6906C103.696 73.5666 103.799 73.4705 103.883 73.3905C103.954 73.3225 103.994 73.2904 103.998 73.2944L104.002 73.2984Z" fill="white"/>
</g>
<g opacity="0.2">
<path d="M50.934 81.5698L72.5195 85.6595L70.0273 89.7412L69.3704 89.7532L50.934 81.5698Z" fill="black"/>
</g>
<g opacity="0.6">
<path d="M116.28 77.2801C116.28 77.2801 116.292 77.3961 116.292 77.6122C116.288 77.8283 116.264 78.1524 116.196 78.5606C116.061 79.3729 115.73 80.5654 114.894 81.8059C114.074 83.0424 112.689 84.2989 110.818 84.9512C109.89 85.2793 108.855 85.4674 107.78 85.4274C106.705 85.3874 105.618 85.1393 104.539 84.8311C103.461 84.523 102.422 84.1869 101.394 83.9788C100.371 83.7547 99.36 83.7107 98.4125 83.8227C96.5096 84.0508 94.9012 84.8471 93.7586 85.7395C92.5922 86.6199 91.8796 87.5923 91.4456 88.2805C91.3421 88.4526 91.2505 88.6087 91.1669 88.7487C91.0993 88.8848 91.0395 89.0008 90.9878 89.1049C90.8883 89.297 90.8325 89.397 90.8246 89.393C90.8166 89.393 90.8524 89.281 90.936 89.0809C90.9798 88.9728 91.0316 88.8488 91.0913 88.7087C91.1709 88.5647 91.2545 88.4006 91.3501 88.2245C91.7601 87.5122 92.4608 86.4998 93.6352 85.5834C94.7858 84.6551 96.422 83.8187 98.3807 83.5666C99.3561 83.4466 100.407 83.4866 101.45 83.7107C102.497 83.9188 103.544 84.2589 104.615 84.563C105.686 84.8711 106.749 85.1113 107.788 85.1553C108.827 85.1953 109.83 85.0232 110.73 84.7071C112.549 84.0868 113.907 82.8863 114.727 81.6939C115.563 80.4934 115.917 79.3369 116.085 78.5406C116.248 77.7362 116.248 77.2761 116.276 77.2801H116.28Z" fill="white"/>
</g>
<path d="M32.7244 88.7526C32.7244 88.7526 71.7512 106.06 71.5481 105.668C71.3451 105.275 77.7427 93.9227 77.7427 93.9227L46.1248 78.2163L32.7244 88.7526Z" fill="#44513C"/>
<path d="M50.6393 80.4613C50.6393 80.4613 50.9339 80.5653 51.4435 80.8014C51.9929 81.0615 52.7175 81.4057 53.5893 81.8178C55.3967 82.6862 57.8849 83.9067 60.6279 85.2672C63.3709 86.6278 65.8471 87.8763 67.6346 88.7927C68.4906 89.2409 69.2032 89.609 69.7446 89.8891C70.2383 90.1532 70.509 90.3093 70.501 90.3253C70.4931 90.3413 70.2064 90.2213 69.6969 89.9852C69.1475 89.7251 68.4229 89.3809 67.551 88.9687C65.7436 88.1004 63.2515 86.8799 60.5085 85.5153C57.7655 84.1548 55.2893 82.9063 53.5057 81.9899C52.6498 81.5417 51.9372 81.1736 51.3957 80.8935C50.9021 80.6293 50.6314 80.4733 50.6393 80.4573V80.4613Z" fill="black"/>
<g opacity="0.6">
<path d="M59.2107 85.7114C59.2107 85.7114 59.1908 86.1596 58.8484 86.8759C58.518 87.5882 57.7616 88.5246 56.5195 89.2129C55.9024 89.553 55.1699 89.8411 54.3538 89.9892C53.5337 90.1372 52.6379 90.1452 51.7143 90.0212C49.8591 89.7811 47.9442 89.0048 46.0213 88.1004C44.0985 87.196 42.2672 86.3237 40.4876 85.9075C39.6038 85.6914 38.7359 85.5914 37.9317 85.6114C37.1236 85.6314 36.3791 85.7795 35.7262 85.9875C34.4124 86.4077 33.5008 87.116 33.0031 87.7042C32.4975 88.2885 32.3263 88.6967 32.2945 88.6806C32.2945 88.6806 32.4259 88.2565 32.9195 87.6362C33.4012 87.016 34.3249 86.2597 35.6625 85.8035C36.3313 85.5754 37.0917 85.4153 37.9238 85.3833C38.7558 85.3513 39.6436 85.4513 40.5473 85.6634C42.3667 86.0756 44.2219 86.9519 46.1408 87.8563C48.0557 88.7567 49.9387 89.529 51.7501 89.7731C52.6499 89.9011 53.5217 89.9011 54.314 89.7691C55.1102 89.637 55.8228 89.3689 56.4279 89.0488C57.6461 88.4005 58.4026 87.5162 58.7529 86.8359C59.1152 86.1516 59.1789 85.7114 59.2107 85.7234V85.7114Z" fill="white"/>
</g>
<g opacity="0.6">
<path d="M75.776 97.5721C75.7681 97.6241 74.9121 97.48 73.5148 97.456C72.8181 97.44 71.99 97.48 71.0744 97.5801C70.1627 97.6961 69.1674 97.8802 68.1443 98.1643C67.1251 98.4604 66.1816 98.8286 65.3416 99.2127C64.5095 99.6089 63.785 100.013 63.1997 100.393C62.0253 101.146 61.3684 101.722 61.3366 101.682C61.3246 101.666 61.4799 101.514 61.7745 101.25C62.0651 100.981 62.515 100.629 63.0922 100.225C63.6695 99.817 64.398 99.3928 65.2341 98.9766C66.0781 98.5765 67.0335 98.1923 68.0686 97.8922C69.1077 97.6001 70.1189 97.424 71.0465 97.32C71.9741 97.2319 72.8181 97.2119 73.5227 97.2559C74.2274 97.2919 74.7927 97.356 75.1789 97.432C75.565 97.5 75.78 97.5481 75.776 97.5681V97.5721Z" fill="white"/>
</g>
<g opacity="0.2">
<path d="M80.5893 66.1594C79.9443 67.9722 80.9117 69.929 81.8513 71.6096C82.5042 72.7781 83.173 73.9626 84.1125 74.911C85.0561 75.8594 86.326 76.5597 87.6597 76.5156C89.4114 76.4596 90.9799 75.1551 92.7316 75.2591C93.922 75.3272 94.969 76.0355 95.9563 76.7077C97.6682 77.8722 99.4239 79.0047 101.367 79.721C103.309 80.4332 105.467 80.7054 107.446 80.1051C109.424 79.5049 111.172 77.9362 111.654 75.9154" fill="black"/>
</g>
<path d="M80.7365 65.6591C80.8281 63.5462 80.9395 61.6375 80.9395 61.6375C80.9395 61.6375 85.6333 61.0412 85.8363 56.2233C86.0393 51.4053 85.5616 40.3128 85.5616 40.3128L76.9186 36.1431L67.6188 43.6741L69.0759 65.7992C69.2869 68.9885 71.994 71.4215 75.1709 71.2734C78.1886 71.1333 80.6051 68.7003 80.7325 65.6631L80.7365 65.6591Z" fill="#FFBE9D"/>
<path d="M84.7533 49.0243C84.7573 49.3644 84.4946 49.6446 84.1681 49.6486C83.8377 49.6526 83.567 49.3845 83.559 49.0443C83.555 48.7042 83.8178 48.4241 84.1442 48.4161C84.4747 48.4121 84.7454 48.6802 84.7533 49.0203V49.0243Z" fill="black"/>
<path d="M83.2565 46.5393C83.36 46.5033 83.5869 47.0435 84.1483 47.3596C84.7056 47.6838 85.2829 47.6037 85.3028 47.7118C85.3147 47.7638 85.1794 47.8598 84.9246 47.8999C84.6738 47.9399 84.2995 47.9079 83.9492 47.7078C83.5989 47.5077 83.3799 47.1996 83.2883 46.9635C83.1928 46.7234 83.2047 46.5553 83.2525 46.5393H83.2565Z" fill="black"/>
<path d="M77.6272 49.0243C77.6312 49.3644 77.3685 49.6446 77.042 49.6486C76.7116 49.6526 76.4409 49.3845 76.4329 49.0443C76.4289 48.7042 76.6917 48.4241 77.0181 48.4161C77.3486 48.4121 77.6193 48.6802 77.6272 49.0203V49.0243Z" fill="black"/>
<path d="M75.0235 47.6759C75.0514 47.5279 75.8357 47.6359 76.5921 47.1917C77.3525 46.7636 77.655 46.0273 77.7983 46.0793C77.866 46.0993 77.882 46.3234 77.7546 46.6515C77.6311 46.9756 77.3365 47.3918 76.8628 47.6639C76.389 47.936 75.8834 47.9801 75.5411 47.928C75.1947 47.876 75.0076 47.744 75.0235 47.6759Z" fill="black"/>
<path d="M80.621 53.4222C80.621 53.3822 81.0191 53.3261 81.668 53.2621C81.8312 53.2501 81.9905 53.2221 82.0183 53.1021C82.0581 52.974 81.9944 52.7819 81.9148 52.5738C81.7675 52.1377 81.6123 51.6855 81.449 51.2093C80.8041 49.2645 80.3383 47.6678 80.4139 47.6438C80.4856 47.6198 81.0668 49.1725 81.7118 51.1172C81.867 51.5974 82.0143 52.0536 82.1577 52.4898C82.2174 52.6939 82.3209 52.926 82.2333 53.1861C82.1855 53.3181 82.0661 53.4062 81.9586 53.4342C81.8511 53.4662 81.7596 53.4622 81.6799 53.4662C81.027 53.4782 80.621 53.4662 80.621 53.4262V53.4222Z" fill="black"/>
<path d="M81.5248 55.8632C82.1737 56.3074 79.7293 54.7588 78.4155 54.7588C78.4155 54.7588 79.2237 53.5583 80.5454 54.1345C81.9189 54.7308 81.5208 55.8632 81.5208 55.8632H81.5248Z" fill="white"/>
<path d="M80.9395 61.6335C80.9395 61.6335 77.7985 61.7255 74.7211 59.5886C74.7211 59.5886 76.1821 63.0981 80.8559 62.8179L80.9356 61.6375L80.9395 61.6335Z" fill="#EB996E"/>
<path d="M62.5787 48.4162C62.5628 52.5859 61.4759 63.6104 69.036 65.139L68.7613 49.9568C68.7613 49.9568 76.0826 46.4874 77.3207 39.2604L77.3645 39.3005C77.8343 40.3929 78.6703 42.7339 78.1607 44.6426L85.0162 46.3393L85.8044 47.0636C85.8044 47.0636 88.2448 41.6854 83.5352 36.8074C78.8256 31.9295 74.8007 35.4629 72.2767 35.1588C70.5966 34.9547 64.7723 34.9947 62.3995 45.0748L62.5747 48.4122L62.5787 48.4162Z" fill="black"/>
<path d="M68.9524 50.1249C68.3115 49.7288 67.4396 50.0529 66.934 50.6131C66.1378 51.4895 65.9985 52.9021 66.6076 53.9185C67.2207 54.9349 68.5304 55.4631 69.673 55.159" fill="#FFBE9D"/>
<path d="M68.8052 53.7142C68.8052 53.7503 68.5902 53.7863 68.2558 53.6942C67.9373 53.6102 67.4436 53.3541 67.2525 52.8019C67.161 52.5338 67.1769 52.2416 67.2804 52.0176C67.3799 51.7895 67.5431 51.6374 67.6904 51.5374C67.993 51.3413 68.2199 51.3573 68.2239 51.3853C68.2359 51.4293 68.0368 51.4893 67.8099 51.6934C67.583 51.8895 67.364 52.2857 67.5153 52.7098C67.6586 53.134 68.0408 53.3821 68.3195 53.5062C68.6061 53.6342 68.8051 53.6702 68.8012 53.7142H68.8052Z" fill="#EB996E"/>
<path d="M68.1761 54.6627C67.8297 54.7467 67.6506 55.2269 67.8616 55.519C68.0726 55.8112 68.5822 55.7872 68.7693 55.483C68.9564 55.1749 68.7374 54.7107 68.3871 54.6587" fill="#44513C"/>
<path d="M82.0701 89.8728V81.9536C82.0701 81.9536 70.3737 84.3946 70.1587 89.7768L82.0701 89.8688V89.8728Z" fill="#FFBE9D"/>
<path d="M80.856 64.8228C81.047 67.2358 82.1618 69.5607 83.9134 71.2174C85.6691 72.8741 88.0458 73.8465 90.4544 73.8865C92.1822 73.9185 94.0016 73.5023 95.5781 74.2146C96.9476 74.8309 97.8314 76.1674 98.9102 77.2159C101.442 79.6769 105.376 80.5732 108.72 79.4448C110.137 78.9686 112.386 77.9442 112.649 76.4636C112.848 75.3391 111.479 74.2186 110.674 73.4103C109.866 72.602 108.823 72.0858 107.792 71.6016C99.4596 67.668 90.5141 64.8068 81.3218 64.3186" fill="black"/>
<path d="M133.985 100.386C133.985 91.4347 123.817 84.1772 111.283 84.1772C98.7491 84.1772 88.5808 91.4347 88.5808 100.386C88.5808 107.275 94.6006 113.137 103.083 115.489C102.377 118.455 100.435 122.816 94.9978 124.089C94.9978 124.089 108.105 124.642 116.023 116.243C126.288 114.69 133.985 108.187 133.985 100.395V100.386Z" fill="#5D4F44"/>
<path d="M109.074 107.561L109.011 106.698C108.811 104.944 109.419 102.95 111.106 100.964C112.63 99.2105 113.474 97.9107 113.474 96.424C113.474 94.7325 112.394 93.6019 110.262 93.5752C109.047 93.5752 107.695 93.9758 106.851 94.599L106.044 92.5069C107.196 91.7146 109.083 91.1804 110.879 91.1804C114.762 91.1804 116.522 93.5396 116.522 96.059C116.522 98.3113 115.234 99.9405 113.619 101.828C112.131 103.555 111.596 105.042 111.696 106.733L111.759 107.561H109.092H109.074ZM108.366 112.235C108.366 111.006 109.21 110.143 110.362 110.143C111.578 110.143 112.358 111.006 112.358 112.235C112.358 113.392 111.578 114.291 110.326 114.291C109.174 114.291 108.366 113.392 108.366 112.235Z" fill="white"/>
<path d="M23.6176 45.828C23.6176 39.5465 30.8137 34.4536 39.6838 34.4536C48.554 34.4536 55.75 39.5465 55.75 45.828C55.75 50.6623 51.4898 54.776 45.4869 56.4265C45.9866 58.508 47.3609 61.5687 51.2087 62.4616C51.2087 62.4616 41.9326 62.8496 36.3294 56.9561C29.0647 55.8661 23.6176 51.3027 23.6176 45.8342V45.828Z" fill="#D9EDCB"/>
<path d="M38.2111 50.7728L38.1688 50.1709C38.0358 48.9486 38.441 47.5587 39.5659 46.175C40.5819 44.9527 41.1444 44.0468 41.1444 43.0106C41.1444 41.8317 40.4247 41.0437 39.0034 41.025C38.193 41.025 37.2919 41.3043 36.7294 41.7386L36.1912 40.2805C36.9592 39.7282 38.2172 39.356 39.4147 39.356C42.0032 39.356 43.1765 41.0002 43.1765 42.7562C43.1765 44.326 42.3177 45.4615 41.2411 46.7769C40.2493 47.9806 39.8925 49.0168 39.959 50.1957L40.0013 50.7728H38.2232H38.2111ZM37.7394 54.0303C37.7394 53.174 38.3019 52.5721 39.0699 52.5721C39.8804 52.5721 40.4005 53.174 40.4005 54.0303C40.4005 54.8369 39.8804 55.4636 39.0458 55.4636C38.2777 55.4636 37.7394 54.8369 37.7394 54.0303Z" fill="#44513C"/>
</svg>
