<svg width="168" height="169" viewBox="0 0 168 169" fill="none" xmlns="http://www.w3.org/2000/svg">
<path d="M12.0982 71.3772C12.0982 71.3772 19.4861 56.6015 36.3876 60.1047C53.2891 63.6078 68.3087 62.8448 78.2754 48.9477C88.2421 35.0506 119.606 25.2117 133.998 57.4917C148.391 89.7718 122.184 143.568 83.8047 134.481C45.4249 125.405 44.9138 108.085 19.2421 111.554C-1.10939 114.306 3.51384 81.6208 12.1098 71.3657L12.0982 71.3772Z" fill="#D9EDCB"/>
<mask id="mask0_46_472" style="mask-type:luminance" maskUnits="userSpaceOnUse" x="4" y="35" width="134" height="101">
<path d="M12.1 71.4886C12.1 71.4886 19.4857 56.6475 36.3823 60.1661C53.2789 63.6848 68.2942 62.9184 78.258 48.9598C88.2217 35.0012 119.576 25.1187 133.964 57.5417C148.353 89.9646 122.154 143.999 83.7857 134.871C45.4171 125.755 44.9061 108.359 19.2419 111.843C-1.10371 114.607 3.51818 81.7776 12.1116 71.477L12.1 71.4886Z" fill="white"/>
</mask>
<g mask="url(#mask0_46_472)">
<path d="M247.48 137.671L70.3613 137.125C70.3613 137.125 60.8621 121.413 64.5433 104.342C66.7265 105.829 69.2001 106.897 70.7678 105.678C72.7536 104.133 78.4322 99.6276 82.729 96.2135C85.6902 93.8677 87.9896 92.0329 87.9896 92.0329C87.9896 92.0329 90.405 89.7103 91.9844 90.3606C92.716 90.6626 93.4243 91.3826 94.0514 92.0445C94.7714 92.8109 95.3869 93.4845 95.7817 93.3335C96.1417 93.1942 98.7894 90.4884 101.878 87.4807C105.153 84.2756 108.916 80.7337 110.936 79.584C110.936 79.584 112.806 77.6679 114.838 79.8627C115.883 80.9891 117.474 83.8575 119.263 87.3181C123.385 95.2961 128.518 106.363 130.074 106.212C132.304 106.003 135.776 101.044 137.878 100.545C139.98 100.046 149.572 117.395 153.671 118.138C157.759 118.882 165.575 112.564 171.892 114.422C178.209 116.28 188.44 126.697 197.916 124.839C205.499 123.353 222.663 114.968 233.66 112.309C242.126 116.582 250.522 122.447 247.456 137.694L247.48 137.671Z" fill="#5D4F44"/>
<path d="M119.286 87.3052C118.31 87.6187 116.94 87.7929 116.766 86.469C116.522 84.5529 111.006 88.269 108.149 89.0703C105.304 89.8716 106.907 86.5968 106.849 85.6678C106.814 85.0987 104.038 86.3878 101.89 87.4677C105.165 84.2626 108.927 80.7207 110.948 79.571C110.948 79.571 112.818 77.6549 114.85 79.8498C115.895 80.9762 117.486 83.8446 119.274 87.3052H119.286Z" fill="white"/>
<path d="M94.0631 92.0315C94.005 91.9735 93.4708 91.5438 92.4954 92.0315C91.4618 92.5657 90.1031 92.856 89.476 92.6702C88.8606 92.4844 82.729 96.2121 82.729 96.2121C85.6903 93.8663 87.9896 92.0315 87.9896 92.0315C87.9896 92.0315 90.4051 89.709 91.9844 90.3593C92.716 90.6612 93.4244 91.3812 94.0515 92.0431L94.0631 92.0315Z" fill="white"/>
</g>
<path d="M58.8256 32.1328C58.5677 32.2014 58.3214 32.2815 58.0517 32.3616C58.0517 32.3616 52.8101 33.9631 53.455 40.5979C53.455 40.5979 53.9827 45.4025 54.7918 52.3004C54.7918 52.3691 54.8153 52.4491 54.827 52.5178C56.3866 52.2204 57.6061 53.3757 57.6061 53.3757C57.6061 53.3757 55.9292 53.696 55.2022 53.8447C56.3514 56.6016 59.5409 58.2489 62.5429 57.1622C64.7005 56.3843 67.0575 55.1374 69.0275 53.1813L71.7363 49.921C77.8574 41.0212 69.4145 29.2615 58.8256 32.1442V32.1328Z" fill="#FFBE9D"/>
<path d="M78.6298 72.2201L47.1475 92.2638C43.954 94.3657 42.7114 98.4418 44.1978 101.972C46.0675 106.42 51.4558 108.185 55.59 105.7L87.8503 86.9452C91.5083 84.7736 93.0528 80.2794 91.5083 76.3311C89.4993 71.175 83.2516 69.1892 78.6414 72.2317L78.6298 72.2201Z" fill="#3F443B"/>
<path d="M46.3927 71.2912C46.3927 71.2912 45.3011 62.8023 38.4379 60.9094C37.9386 60.7701 36.1618 58.1456 35.616 58.1224C30.7154 57.8204 30.727 61.1068 31.1915 64.4629C31.5283 66.8784 33.0496 68.9687 35.1863 70.13L40.9927 74.4035L41.5734 80.5698L48.1926 78.1079L46.3927 71.3029V71.2912Z" fill="#FFBE9D"/>
<path d="M32.0857 47.0786L29.647 48.356L39.8314 68.7945L42.3165 67.4591L32.0857 47.0786Z" fill="black"/>
<path d="M56.6003 86.2486L51.0378 70.4436L36.1038 76.2384L44.1979 101.972L56.6003 86.2486Z" fill="#3F443B"/>
<path d="M75.8712 56.8999C75.8712 56.8999 85.9516 59.8173 90.9861 71.5684C96.009 83.3078 99.6001 131.649 99.6001 131.649C99.6001 131.649 80.386 138.495 63.3312 130.184C63.3312 130.184 61.172 76.8802 67.8807 65.9079L75.8712 56.8999Z" fill="#3F443B"/>
<path d="M82.3458 136.485L83.867 123.572L90.2425 125.465L88.9418 137.473C89.4644 137.635 90.0102 137.891 90.556 138.204C87.7457 138.843 84.7612 139.389 81.9509 139.528L82.3458 136.485Z" fill="#6B7665"/>
<path d="M80.2671 102.17C80.4413 99.3244 84.6103 98.1747 87.4205 97.7218C91.2992 97.0947 95.7701 100.846 95.503 104.759L92.4024 134.651L78.4323 132.003L80.2671 102.17Z" fill="#6B7665"/>
<path d="M90.8811 137.612C89.2437 134.616 85.4811 133.512 82.485 135.15C79.4889 136.787 78.3857 140.55 80.0231 143.546C81.6605 146.542 85.4231 147.645 88.4192 146.008C91.4153 144.37 92.5185 140.608 90.8811 137.612Z" fill="#FFBE9D"/>
<path d="M83.5534 146.472C83.5534 146.472 81.5909 148.493 79.8141 145.776C78.0374 143.058 77.2593 138.552 82.4734 135.15L83.5534 146.472Z" fill="#FFBE9D"/>
<path d="M71.9175 80.7206L82.0787 107.476C83.2051 110.531 87.3741 111.564 90.5444 110.809C93.6682 110.078 95.7818 107.151 95.4914 103.958C94.8876 97.2572 92.7276 88.0947 88.338 74.9258C87.0141 70.9659 83.0309 68.5272 78.8968 69.1078C73.4039 69.8743 70.013 75.5181 71.9291 80.7322L71.9175 80.7206Z" fill="#6B7665"/>
<path d="M79.5703 109.126L80.2671 102.17L73.6594 85.1917" fill="#6B7665"/>
<path d="M64.2001 54.9431L69.5175 65.9002L78.6001 59.0163L71.1626 43.7002L64.2001 54.9431Z" fill="#FFBE9D"/>
<path d="M67.0777 61.0998C66.9937 60.9184 68.4001 53.2998 68.4001 53.2998L64.8001 56.1795L67.0672 61.0998H67.0777Z" fill="#F4B8B2"/>
<path d="M54.5709 47.2998L52.8962 49.9967C52.6649 50.365 52.8777 50.9115 53.2478 50.8996L55.2 50.8164L54.5709 47.2998Z" fill="#FFBE9D"/>
<path d="M56.3657 46.7185C56.4761 47.1878 56.3105 47.6974 55.9977 47.8583C55.685 48.0058 55.3446 47.751 55.2342 47.2817C55.1238 46.8124 55.2894 46.3028 55.6022 46.1419C55.9149 45.9944 56.2553 46.2492 56.3657 46.7185Z" fill="black"/>
<path d="M67.0509 42.943C67.0509 42.943 72.0242 27.8747 54.6001 34.9166C54.6001 34.9166 60.4735 25.3729 72.0935 28.8707C74.8052 29.6815 77.9208 32.4148 78.7747 35.1135C80.1709 39.4915 77.9323 43.2905 74.9437 50.8883C74.9437 50.8883 71.7473 51.3516 69.7972 46.464C69.3587 45.3752 67.0509 42.943 67.0509 42.943Z" fill="black"/>
<path d="M65.2096 44.8999C65.2096 44.8999 60.9151 40.2823 63.4965 35.2283C63.4965 35.2283 47.8207 40.6614 48.6303 32.9195C49.698 22.685 70.2432 28.6006 70.2432 28.6006L73.2 34.1945L68.6357 44.0958L65.2096 44.8999Z" fill="black"/>
<path d="M71.7781 43.4789C72.2078 45.4182 70.9885 47.3343 69.0607 47.764C67.1214 48.1937 65.2053 46.9743 64.7756 45.0466C64.346 43.1072 65.5653 41.1911 67.493 40.7615C69.4324 40.3318 71.3485 41.5511 71.7781 43.4789Z" fill="#FFBE9D"/>
<path d="M66.8776 45.3019C66.8776 45.3019 66.3086 42.7587 68.8285 42.6194" stroke="#3F443B" stroke-width="0.36" stroke-linecap="round" stroke-linejoin="round"/>
<path d="M63.0001 28.1271C63.0001 28.1271 57.5727 21.438 51.2671 26.2276C44.9615 31.0172 49.7245 35.9 49.7245 35.9L58.6087 33.0798L63.0001 28.1271Z" fill="black"/>
<path d="M54.6001 42.5C54.6001 42.5 55.7342 44.1975 58.2001 43.5546" stroke="black" stroke-width="0.75" stroke-linecap="round" stroke-linejoin="round"/>
<path d="M163.777 45.6247C163.777 32.3074 148.468 21.5 129.588 21.5C110.709 21.5 95.4 32.296 95.4 45.6247C95.4 55.8706 104.466 64.6036 117.243 68.0991C116.181 72.5115 113.253 78.9982 105.073 80.8892C105.073 80.8892 124.816 81.703 136.741 69.2108C152.202 66.8958 163.8 57.2229 163.8 45.6247H163.777Z" fill="#5D4F44"/>
<path d="M112.8 54.4998C114.788 54.4998 116.4 52.888 116.4 50.8998C116.4 48.9116 114.788 47.2998 112.8 47.2998C110.812 47.2998 109.2 48.9116 109.2 50.8998C109.2 52.888 110.812 54.4998 112.8 54.4998Z" fill="#D9EDCB"/>
<path d="M126.6 51.4998C129.251 51.4998 131.4 49.2165 131.4 46.3998C131.4 43.5832 129.251 41.2998 126.6 41.2998C123.949 41.2998 121.8 43.5832 121.8 46.3998C121.8 49.2165 123.949 51.4998 126.6 51.4998Z" fill="#D9EDCB"/>
<path d="M143.1 47.2998C147.242 47.2998 150.6 43.942 150.6 39.7998C150.6 35.6577 147.242 32.2998 143.1 32.2998C138.958 32.2998 135.6 35.6577 135.6 39.7998C135.6 43.942 138.958 47.2998 143.1 47.2998Z" fill="#D9EDCB"/>
</svg>
