<svg width="168" height="169" viewBox="0 0 168 169" fill="none" xmlns="http://www.w3.org/2000/svg">
<g clip-path="url(#clip0_46_928)">
<path d="M66.885 49.685L69.27 69.59C69.765 73.5275 67.9125 77.3 63.945 77.435C60.3975 77.555 57.3675 74.9075 57.0075 71.375L53.7675 52.175C53.385 48.3875 56.175 44.0674 59.9775 43.8799C63.4425 43.7149 66.45 46.2425 66.885 49.685Z" fill="black"/>
<path d="M65.1975 51.1326C65.475 47.8101 64.0125 44.5701 61.305 42.6201C59.2125 41.1126 55.7475 41.0676 53.625 40.8951C53.625 40.8951 54.1425 39.9501 50.7975 40.3326C46.95 40.7676 42.3375 42.5001 40.0575 45.6276C38.3625 47.9526 37.4325 50.7501 37.3875 53.6226L35.415 75.6801C35.415 75.6801 50.8425 80.1126 65.235 79.5126L65.205 51.1326H65.1975Z" fill="black"/>
<path d="M63.57 67.4901C63.555 64.5126 64.26 56.0976 63.5475 50.3826" stroke="#FFBE9D" stroke-width="0.6525" stroke-miterlimit="10"/>
<path d="M47.535 25.9701C47.535 25.9701 42.7725 17.4426 49.26 16.9551C53.1375 16.6626 54.33 15.5376 59.1375 14.2251C64.7025 12.7026 71.745 19.3101 63.27 24.7701L50.8725 21.1476L47.5275 25.9701H47.535Z" fill="black"/>
<path d="M58.71 28.5427C58.5975 30.1627 59.8125 31.5652 61.4325 31.6777C63.0525 31.7902 64.455 30.5752 64.5675 28.9552C64.68 27.3352 63.465 25.9327 61.845 25.8202C60.225 25.7077 58.8225 26.9227 58.71 28.5427Z" fill="#E49C77"/>
<path d="M58.5149 31.8877L57.9824 41.4952C57.8174 44.1952 55.9499 44.2702 53.2949 44.0827C51.0299 43.9252 49.9349 43.0252 49.8074 40.7527L50.8949 30.5752L58.5149 31.8877Z" fill="#FFBE9D"/>
<path d="M58.035 40.5052L52.05 35.5402L58.395 34.1902L58.035 40.5052Z" fill="#E49C77"/>
<path d="M55.17 37.07L55.74 37.1075C59.61 37.3775 62.94 34.3925 63.0825 30.515L63.345 23.4725C63.4875 19.6175 60.5475 16.34 56.6925 16.07C52.7475 15.7925 48.6375 18.7175 48.36 22.6625L48.225 29.465C48.1425 33.4475 51.2025 36.7925 55.1775 37.0775L55.17 37.07Z" fill="#FFBE9D"/>
<path d="M59.2049 27.9351L59.4824 30.6426L58.5449 30.5751" stroke="black" stroke-width="0.4425" stroke-linecap="round" stroke-linejoin="round"/>
<path d="M55.2225 33.2376L59.655 33.3201C59.655 33.3201 59.6925 31.7676 57.12 31.7226C55.41 31.6926 55.2225 33.2451 55.2225 33.2451V33.2376Z" fill="white"/>
<path d="M49.2675 27.905C49.2675 27.905 53.9625 25.3625 52.635 21.23C52.635 21.23 60.165 18.23 63.255 22.1225L64.4775 17.5025L58.89 14.7725L49.6275 17.6975L47.0625 21.005L47.5275 25.5425L49.26 27.905H49.2675Z" fill="black"/>
<path d="M44.4824 27.5452C44.3699 29.1652 45.5849 30.5677 47.2049 30.6802C48.8249 30.7927 50.2274 29.5777 50.3399 27.9577C50.4524 26.3377 49.2374 24.9352 47.6174 24.8227C45.9974 24.7102 44.5949 25.9252 44.4824 27.5452Z" fill="#FFBE9D"/>
<path d="M48.375 28.6926C48.375 28.6926 48.525 26.5701 46.47 26.7651" stroke="black" stroke-width="0.4425" stroke-linecap="round" stroke-linejoin="round"/>
<path d="M51.6749 40.2575C51.6749 40.2575 50.9399 39.83 48.3149 40.7825C48.3149 40.7825 49.7849 45.71 55.9274 45.4625C58.4699 45.3575 59.2049 43.4075 59.1824 41.5625C59.1824 41.5325 59.1749 41.5925 59.1824 41.5625C59.1824 41.5625 57.1799 40.3325 53.3024 40.1675L51.6824 40.265L51.6749 40.2575Z" fill="#FFBE9D"/>
<path d="M54.765 26.2851C54.765 26.2851 56.265 26.7426 57.3525 25.2126" stroke="black" stroke-width="0.4425" stroke-linecap="round" stroke-linejoin="round"/>
<path d="M60.5475 25.4675C60.5475 25.4675 60.855 27.005 62.7225 27.2375" stroke="black" stroke-width="0.4425" stroke-linecap="round" stroke-linejoin="round"/>
<path d="M56.8725 28.4151C57.063 28.4151 57.2175 28.2606 57.2175 28.0701C57.2175 27.8796 57.063 27.7251 56.8725 27.7251C56.6819 27.7251 56.5275 27.8796 56.5275 28.0701C56.5275 28.2606 56.6819 28.4151 56.8725 28.4151Z" fill="black"/>
<path d="M61.1026 28.7601C61.2931 28.7601 61.4476 28.6056 61.4476 28.4151C61.4476 28.2245 61.2931 28.0701 61.1026 28.0701C60.912 28.0701 60.7576 28.2245 60.7576 28.4151C60.7576 28.6056 60.912 28.7601 61.1026 28.7601Z" fill="black"/>
<path d="M52.6725 25.3853C52.6725 25.3853 51.225 26.8403 52.23 27.2753C52.89 27.5603 52.9875 26.1653 52.6725 25.3853Z" fill="white"/>
<path d="M51.1425 29.78C51.1425 29.78 49.695 31.235 50.7 31.67C51.36 31.955 51.4575 30.56 51.1425 29.78Z" fill="white"/>
<path d="M72.7875 146.142C99.0818 146.142 120.397 124.827 120.397 98.5324C120.397 72.2381 99.0818 50.9224 72.7875 50.9224C46.4932 50.9224 25.1775 72.2381 25.1775 98.5324C25.1775 124.827 46.4932 146.142 72.7875 146.142Z" fill="#D9EDCB"/>
<path d="M98.4599 67.7002H47.9549C46.0951 67.7002 44.5874 69.2079 44.5874 71.0677V126.665C44.5874 128.525 46.0951 130.033 47.9549 130.033H98.4599C100.32 130.033 101.827 128.525 101.827 126.665V71.0677C101.827 69.2079 100.32 67.7002 98.4599 67.7002Z" fill="#7B8675" stroke="white" stroke-width="0.4425" stroke-miterlimit="10"/>
<path d="M88.7775 69.9575H47.0175V128.255H99.3975V78.35L88.7775 69.9575Z" fill="white"/>
<path d="M88.7775 69.9575L99.3975 78.35V69.9575H88.7775Z" fill="#6B7665"/>
<path d="M88.7775 69.9575L99.3975 78.35L90.2625 80.63L88.7775 69.9575Z" fill="#44513C"/>
<path d="M59.16 76.22C59.16 77.315 58.275 78.2 57.18 78.2C56.085 78.2 55.2 77.315 55.2 76.22C55.2 75.125 56.085 74.24 57.18 74.24C58.275 74.24 59.16 75.125 59.16 76.22Z" fill="#7B8675"/>
<path d="M51.8475 83.6976C51.8475 83.6976 57.0225 73.5126 62.8425 83.6976H51.8475Z" fill="#7B8675"/>
<path d="M85.1925 77.96H66.7275V79.415H85.1925V77.96Z" fill="#7B8675"/>
<path d="M66.7275 82.3251V80.8701H88.7325V82.3251" fill="#7B8675"/>
<path d="M87.63 122.833H53.6025V124.775H87.63V122.833Z" fill="#7B8675"/>
<path d="M94.065 126.71H53.6025V128.652H94.065V126.71Z" fill="#7B8675"/>
<path d="M86.9325 119.435H58.02C55.02 119.435 52.59 117.59 52.59 115.31V91.0625C52.59 88.7825 55.02 86.9375 58.02 86.9375H86.9325C89.9325 86.9375 92.3625 88.7825 92.3625 91.0625V115.31C92.3625 117.59 89.9325 119.435 86.9325 119.435Z" fill="#7B8675"/>
<path d="M75.2176 74.375C75.2176 74.375 72.2326 85.55 73.9501 93.5525C75.6676 101.547 77.2951 111.77 77.2951 111.77C77.2951 111.77 76.0651 112.272 77.7451 116.255C79.4251 120.237 81.8026 119.81 83.1076 115.722C84.4126 111.635 81.8626 109.805 81.8626 109.805C81.8626 109.805 78.3751 94.5725 78.7876 93.0725C79.2001 91.5725 81.4276 75.98 81.4276 75.98C81.4276 75.98 78.1651 71.9675 75.2176 74.3825V74.375Z" fill="#FFBE9D"/>
<path d="M110.618 145.123L108 111.733C108 111.733 107.303 95.4576 100.913 88.6476L84.4651 88.2651C84.4651 88.2651 80.6476 93.3801 79.1251 106.108C78.4651 111.658 78.8401 128.66 79.4101 145.115H92.2051L91.2001 107.113L96.5476 145.108H110.618V145.123Z" fill="#44513C"/>
<path d="M91.3125 107.442L86.8575 105.432" stroke="#7B8675" stroke-width="0.69" stroke-miterlimit="10"/>
<path d="M83.8501 61.5651C83.8501 61.5651 78.9151 61.2126 75.1276 68.3826L71.8726 76.2426L84.3826 80.8026L83.8501 61.5651Z" fill="#6B7665"/>
<path d="M89.4 60.4475L82.2825 61.88C82.2825 61.88 79.4475 69.2 81.06 76.34L84.465 88.2725L100.912 88.655L106.26 69.1625L106.778 62.9975L96.48 59.96L89.4 60.455V60.4475Z" fill="#6B7665"/>
<path d="M81.9601 79.5124C81.9601 79.5124 79.9876 74.2099 81.6451 68.7424" stroke="#3F443B" stroke-width="0.6675" stroke-miterlimit="10"/>
<path d="M81.75 90.005L104.61 84.9275L107.752 92.8775C107.752 92.8775 89.7375 96.6275 82.26 94.9925L81.75 90.005Z" fill="#FFBE9D"/>
<path d="M100.597 74.2998L100.852 88.8873C100.995 90.8298 103.702 93.3573 105.622 93.0648C107.302 92.8098 109.012 91.8573 108.937 90.1623L109.072 75.6498L100.59 74.3073L100.597 74.2998Z" fill="#FFBE9D"/>
<path d="M106.777 62.99C106.777 62.99 110.662 64.04 110.617 70.16L111.577 80.93L100.875 79.8275L99.09 68.45L106.785 62.99H106.777Z" fill="#6B7665"/>
<path d="M100.875 79.8275L100.32 72.0425" stroke="#3F443B" stroke-width="0.6675" stroke-miterlimit="10"/>
<path d="M95.5726 33.2151C95.5726 33.2151 86.0551 31.5351 82.5226 42.6876C78.9901 53.8401 81.6001 57.0501 92.0401 55.6026H98.6401C98.6401 55.6026 105.608 56.8551 106.988 53.4951C106.988 53.4951 109.53 49.7001 105.533 41.3826C101.535 33.0651 95.5726 33.2151 95.5726 33.2151Z" fill="black"/>
<path d="M89.145 47.12C89.1975 48.5975 88.035 49.8425 86.5575 49.8875C85.08 49.94 83.835 48.7775 83.79 47.3C83.7375 45.8225 84.9 44.5775 86.3775 44.5325C87.855 44.48 89.1 45.6425 89.145 47.12Z" fill="#FFBE9D"/>
<path d="M89.9701 53.1875L89.1376 61.5425L97.5001 61.1975L96.9151 53.1875H89.9701Z" fill="#FFBE9D"/>
<path d="M89.4451 58.475L95.5951 54.53C95.8876 54.335 94.3201 52.925 93.9751 52.895L89.8426 54.335L89.4526 58.4675L89.4451 58.475Z" fill="#FFBE9D"/>
<path d="M91.9051 55.6399C88.1101 55.5199 85.0801 52.4149 85.0801 49.3174L85.1176 41.9974C85.1176 38.1124 88.1926 34.9174 92.0776 34.7899C96.0526 34.6549 100.088 37.7449 100.223 41.7274L100.133 47.6149C100.058 52.1674 96.4576 55.4974 91.9051 55.6474V55.6399Z" fill="#FFBE9D"/>
<path d="M89.1375 48.605L88.9725 49.6775L89.91 49.745" stroke="black" stroke-width="0.36" stroke-linecap="round" stroke-linejoin="round"/>
<path d="M87.9526 46.7224C87.9526 47.0899 87.6526 47.3899 87.2776 47.3899C86.9101 47.3899 86.6101 47.0899 86.6101 46.7149C86.6101 46.3399 86.9101 46.0474 87.2851 46.0474C87.6526 46.0474 87.9526 46.3474 87.9526 46.7224Z" fill="black"/>
<path d="M93.7501 46.7375C93.7501 47.105 93.4501 47.405 93.0751 47.405C92.7076 47.405 92.4076 47.105 92.4076 46.73C92.4076 46.3625 92.7076 46.0625 93.0826 46.0625C93.4501 46.0625 93.7501 46.3625 93.7501 46.7375Z" fill="black"/>
<path d="M92.1751 43.6626C92.1751 43.6626 92.3475 43.1151 93.3225 43.6851C94.065 44.1126 94.53 44.3976 95.0025 44.5851C95.2725 44.6901 95.4826 44.9151 95.4976 45.1101C95.5126 45.2676 95.3476 45.4176 95.1526 45.4251C94.7626 45.4401 94.0726 45.3351 93.1651 44.8176C92.0026 44.1576 92.1751 43.6701 92.1751 43.6701V43.6626Z" fill="black"/>
<path d="M88.575 43.5274C88.575 43.5274 88.29 43.0699 87.645 43.5649C87.15 43.9399 86.8425 44.1799 86.505 44.3449C86.31 44.4349 86.205 44.6299 86.2425 44.7874C86.2725 44.9224 86.3925 45.0124 86.5575 45.0124C86.88 45.0199 87.465 44.9524 88.0725 44.5099C88.8525 43.9324 88.5825 43.5274 88.5825 43.5274H88.575Z" fill="black"/>
<path d="M92.61 51.8152L88.7325 51.9877C88.7325 51.9877 89.0775 50.8252 90.885 50.8252C92.6925 50.8252 92.61 51.8152 92.61 51.8152Z" fill="white"/>
<path d="M99.8326 60.9425L89.9101 65.9525L87.6226 60.8075L90.6076 59.9525L95.6326 59.585L99.8326 60.9425Z" fill="#FFBE9D"/>
<path d="M83.67 42.56L101.625 42.605C101.625 42.605 102.758 35.12 93.315 34.145C85.44 33.3275 83.67 42.56 83.67 42.56Z" fill="black"/>
<path d="M98.115 41.5475C98.115 41.5475 99.3375 51.395 94.7925 55.91C94.7925 55.91 101.977 57.725 105.112 54.6575C108.247 51.59 101.88 41.54 101.88 41.54H98.115V41.5475Z" fill="black"/>
<path d="M85.3576 92.0149C85.3576 92.0149 81.2101 87.3724 76.6876 86.4049C75.9526 86.2474 75.1801 86.3674 74.4901 86.6674L71.9476 87.7774C71.4301 88.0024 71.1001 88.5199 71.1301 89.0824C71.1901 90.0124 71.4826 91.4449 72.6601 92.5549C73.0201 92.8924 73.5451 92.9824 74.0176 92.8174L76.5526 91.9324C76.5526 91.9324 80.0626 96.5599 83.4226 94.6324L85.3651 92.0149H85.3576Z" fill="#FFBE9D"/>
<path d="M136.628 38.3449C136.628 30.6949 127.988 24.4924 117.338 24.4924C106.688 24.4924 98.0476 30.6949 98.0476 38.3449C98.0476 44.2324 103.163 49.2424 110.37 51.2524C109.77 53.7874 108.12 57.5149 103.5 58.6024C103.5 58.6024 114.638 59.0749 121.365 51.8974C130.088 50.5699 136.628 45.0124 136.628 38.3524V38.3449Z" fill="#44513C"/>
<path d="M115.523 44.195L115.47 43.4675C115.305 41.99 115.808 40.31 117.203 38.6375C118.463 37.16 119.16 36.065 119.16 34.8125C119.16 33.3875 118.268 32.435 116.505 32.4125C115.5 32.4125 114.383 32.75 113.685 33.275L113.018 31.5125C113.97 30.845 115.53 30.395 117.015 30.395C120.225 30.395 121.68 32.3825 121.68 34.505C121.68 36.4025 120.615 37.775 119.28 39.365C118.05 40.82 117.608 42.0725 117.69 43.4975L117.743 44.195H115.538H115.523ZM114.938 48.1325C114.938 47.0975 115.635 46.37 116.588 46.37C117.593 46.37 118.238 47.0975 118.238 48.1325C118.238 49.1075 117.593 49.865 116.558 49.865C115.605 49.865 114.938 49.1075 114.938 48.1325Z" fill="white"/>
<path d="M51.615 103.925L49.5075 101.225L36.63 111.275C35.4975 111.245 34.1025 111.8 32.8125 112.798L24.225 119.495C22.1175 121.138 21.105 123.365 22.17 124.723C23.2275 126.08 25.635 125.645 27.7425 123.995L36.33 117.298C37.6125 116.293 38.49 115.078 38.7375 113.968L51.615 103.918V103.925Z" fill="black"/>
<path d="M77.5951 81.4774C71.0926 73.1449 59.0701 71.6599 50.7376 78.1624C42.4051 84.6649 40.9201 96.6874 47.4226 105.02C53.9251 113.352 65.9476 114.837 74.2801 108.335C82.6126 101.832 84.0976 89.8099 77.5951 81.4774ZM71.8276 105.2C65.2276 110.352 55.7026 109.175 50.5576 102.575C45.4051 95.9749 46.5826 86.4499 53.1826 81.3049C59.7826 76.1524 69.3076 77.3299 74.4526 83.9299C79.6051 90.5299 78.4276 100.055 71.8276 105.2Z" fill="black"/>
<path opacity="0.5" d="M71.835 105.2C65.235 110.353 55.71 109.175 50.565 102.575C45.4125 95.975 46.59 86.45 53.19 81.305C59.79 76.1525 69.315 77.33 74.46 83.93C79.6125 90.53 78.435 100.055 71.835 105.2Z" fill="white"/>
<path d="M73.455 67.1675C71.3925 67.7 69.285 66.455 68.76 64.385C68.2275 62.3225 69.4725 60.2149 71.5425 59.6899C73.605 59.1574 75.7125 60.4024 76.2375 62.4724C76.77 64.5349 75.525 66.6425 73.455 67.1675Z" fill="#FFBE9D"/>
<path d="M74.3775 60.0648C74.3775 60.0648 74.46 58.3098 72.465 58.6548C70.47 59.0073 68.0925 60.5598 68.76 64.3848L74.3775 60.0573V60.0648Z" fill="#FFBE9D"/>
<path d="M69.4575 59.8398L47.1525 59.8548C44.4225 59.8173 43.23 62.0298 43.47 64.7448C43.695 67.2648 45.915 69.1248 48.4275 68.9148L69.645 67.5648L69.45 59.8398H69.4575Z" fill="black"/>
<path d="M40.875 51.1624L39.5625 60.2749C39.5625 60.2749 41.55 68.8924 48.435 68.9149L50.76 60.2749C50.76 60.2749 49.515 60.2524 50.505 53.1874L40.875 51.1624Z" fill="black"/>
<path d="M69.4576 59.8401L52.4101 60.8601C51.0226 60.9426 49.8976 59.7651 50.0326 58.3851L50.7601 50.3826" stroke="#7F7F7F" stroke-width="0.54" stroke-miterlimit="10"/>
<path d="M40.215 49.7449L39.5625 59.8549C39.435 61.3474 40.35 63.2149 41.6475 64.9324C43.875 67.8874 47.4975 69.4474 51.1875 69.1324L69.645 67.5574" stroke="#7F7F7F" stroke-width="0.54" stroke-miterlimit="10"/>
</g>
<defs>
<clipPath id="clip0_46_928">
<rect width="114.878" height="132.15" fill="white" transform="translate(21.75 14)"/>
</clipPath>
</defs>
</svg>
