<svg width="49" height="49" viewBox="0 0 49 49" fill="none" xmlns="http://www.w3.org/2000/svg">
<g clip-path="url(#clip0_219_1747)">
<path d="M3.5 42.5C3.5 42.5 0.5 42.5 0.5 39.5C0.5 36.5 3.5 27.5 18.5 27.5C33.5 27.5 36.5 36.5 36.5 39.5C36.5 42.5 33.5 42.5 33.5 42.5H3.5ZM18.5 24.5C20.8869 24.5 23.1761 23.5518 24.864 21.864C26.5518 20.1761 27.5 17.8869 27.5 15.5C27.5 13.1131 26.5518 10.8239 24.864 9.13604C23.1761 7.44821 20.8869 6.5 18.5 6.5C16.1131 6.5 13.8239 7.44821 12.136 9.13604C10.4482 10.8239 9.5 13.1131 9.5 15.5C9.5 17.8869 10.4482 20.1761 12.136 21.864C13.8239 23.5518 16.1131 24.5 18.5 24.5Z" fill="#44513C"/>
<path fill-rule="evenodd" clip-rule="evenodd" d="M41 15.5C41.3978 15.5 41.7794 15.658 42.0607 15.9393C42.342 16.2206 42.5 16.6022 42.5 17V21.5H47C47.3978 21.5 47.7794 21.658 48.0607 21.9393C48.342 22.2206 48.5 22.6022 48.5 23C48.5 23.3978 48.342 23.7794 48.0607 24.0607C47.7794 24.342 47.3978 24.5 47 24.5H42.5V29C42.5 29.3978 42.342 29.7794 42.0607 30.0607C41.7794 30.342 41.3978 30.5 41 30.5C40.6022 30.5 40.2206 30.342 39.9393 30.0607C39.658 29.7794 39.5 29.3978 39.5 29V24.5H35C34.6022 24.5 34.2206 24.342 33.9393 24.0607C33.658 23.7794 33.5 23.3978 33.5 23C33.5 22.6022 33.658 22.2206 33.9393 21.9393C34.2206 21.658 34.6022 21.5 35 21.5H39.5V17C39.5 16.6022 39.658 16.2206 39.9393 15.9393C40.2206 15.658 40.6022 15.5 41 15.5Z" fill="#44513C"/>
</g>
<defs>
<clipPath id="clip0_219_1747">
<rect width="48" height="48" fill="white" transform="translate(0.5 0.5)"/>
</clipPath>
</defs>
</svg>
