<svg width="169" height="168" viewBox="0 0 169 168" fill="none" xmlns="http://www.w3.org/2000/svg">
<path d="M158.907 15.9495H75.4325C74.0449 15.9495 72.92 17.0772 72.92 18.4683V93.3945C72.92 94.7857 74.0449 95.9134 75.4325 95.9134H158.907C160.295 95.9134 161.419 94.7857 161.419 93.3945V18.4683C161.419 17.0772 160.295 15.9495 158.907 15.9495Z" fill="#DBE5D3"/>
<path d="M75.8512 15.9495H158.484C160.102 15.9495 161.415 17.266 161.415 18.8881V24.8756H72.92V18.8881C72.92 17.266 74.2332 15.9495 75.8512 15.9495Z" fill="#6B7665"/>
<path d="M78.3189 21.1299C78.7051 21.1299 79.0181 20.816 79.0181 20.4288C79.0181 20.0417 78.7051 19.7278 78.3189 19.7278C77.9327 19.7278 77.6196 20.0417 77.6196 20.4288C77.6196 20.816 77.9327 21.1299 78.3189 21.1299Z" fill="white"/>
<path d="M83.2054 20.4288C83.2054 20.816 82.8924 21.1299 82.5062 21.1299C82.12 21.1299 81.8069 20.816 81.8069 20.4288C81.8069 20.0416 82.12 19.7278 82.5062 19.7278C82.8924 19.7278 83.2054 20.0416 83.2054 20.4288Z" fill="white"/>
<path d="M86.6977 21.1299C87.0838 21.1299 87.3969 20.816 87.3969 20.4288C87.3969 20.0417 87.0838 19.7278 86.6977 19.7278C86.3115 19.7278 85.9984 20.0417 85.9984 20.4288C85.9984 20.816 86.3115 21.1299 86.6977 21.1299Z" fill="white"/>
<path d="M150.776 32.0776H117.359V33.2922H150.776V32.0776Z" fill="white"/>
<path d="M150.776 37.0664H117.359V38.281H150.776V37.0664Z" fill="white"/>
<path d="M150.776 42.0552H117.359V43.2698H150.776V42.0552Z" fill="white"/>
<path d="M150.776 47.0439H117.359V48.2585H150.776V47.0439Z" fill="white"/>
<path d="M134.068 52.0366H117.359V53.2512H134.068V52.0366Z" fill="white"/>
<path d="M81.8639 63.062L115.281 63.062V61.8474L81.8639 61.8474V63.062Z" fill="white"/>
<path d="M81.8639 68.051H115.281V66.8364H81.8639V68.051Z" fill="white"/>
<path d="M81.8639 73.0437H115.281V71.8291H81.8639V73.0437Z" fill="white"/>
<path d="M81.8639 78.0327H115.281V76.8181H81.8639V78.0327Z" fill="white"/>
<path d="M98.5727 83.0215H115.281V81.8069H98.5727V83.0215Z" fill="white"/>
<path d="M149.65 60.5105H121.054V84.3664H149.65V60.5105Z" fill="white"/>
<path d="M121.005 77.1605L129.457 71.222L135.352 75.3141L144.629 67.4478L149.654 72.4366V84.3625H121.054L121.005 77.1605Z" fill="#6B7665"/>
<path d="M135.848 69.8482C137.171 69.8482 138.243 68.7734 138.243 67.4475C138.243 66.1217 137.171 65.0469 135.848 65.0469C134.526 65.0469 133.454 66.1217 133.454 67.4475C133.454 68.7734 134.526 69.8482 135.848 69.8482Z" fill="#6B7665"/>
<path d="M110.46 31.3398H81.8639V55.1957H110.46V31.3398Z" fill="white"/>
<path d="M81.8151 47.9937L90.2671 42.0552L96.1619 46.1473L105.435 38.2769L110.46 43.2698V55.1957H81.8639L81.8151 47.9937Z" fill="#6B7665"/>
<path d="M96.6579 40.6776C97.9803 40.6776 99.0524 39.6027 99.0524 38.2769C99.0524 36.951 97.9803 35.8762 96.6579 35.8762C95.3354 35.8762 94.2634 36.951 94.2634 38.2769C94.2634 39.6027 95.3354 40.6776 96.6579 40.6776Z" fill="#6B7665"/>
<path d="M136.625 86.4709H18.1171C12.0836 86.4709 7.1925 91.3746 7.1925 97.4236V98.6252C7.1925 104.674 12.0836 109.578 18.1171 109.578H136.625C142.658 109.578 147.549 104.674 147.549 98.6252V97.4236C147.549 91.3746 142.658 86.4709 136.625 86.4709Z" fill="white"/>
<path d="M116.456 86.2593V109.573H136.064C142.489 109.573 147.692 104.353 147.692 97.9163C147.692 91.4755 142.484 86.2593 136.064 86.2593H116.456Z" fill="#44513C"/>
<path d="M134.701 97.2719C134.668 97.2719 134.696 96.8345 134.503 96.0794C134.31 95.3428 133.819 94.2609 132.712 93.423C132.166 93.0133 131.477 92.668 130.683 92.5299C129.893 92.3963 129.006 92.424 128.162 92.7462C127.734 92.8936 127.326 93.1191 126.949 93.4046C126.568 93.6808 126.224 94.0261 125.939 94.4266C125.351 95.2139 125.016 96.2222 125.007 97.2672C125.016 98.3077 125.347 99.3206 125.939 100.108C126.224 100.508 126.568 100.854 126.949 101.13C127.326 101.415 127.734 101.636 128.162 101.788C129.006 102.111 129.897 102.138 130.683 102.005C131.477 101.867 132.166 101.521 132.712 101.111C133.819 100.278 134.31 99.1917 134.503 98.455C134.696 97.7046 134.668 97.2626 134.701 97.2626C134.701 97.2626 134.76 97.7 134.59 98.4735C134.421 99.2331 133.943 100.356 132.813 101.24C132.253 101.673 131.541 102.041 130.715 102.193C129.897 102.341 128.965 102.322 128.079 101.986C127.633 101.834 127.202 101.599 126.807 101.305C126.407 101.015 126.045 100.656 125.741 100.237C125.122 99.4126 124.768 98.3492 124.759 97.258C124.768 96.1669 125.122 95.1034 125.741 94.2793C126.04 93.8604 126.407 93.5013 126.807 93.2112C127.202 92.9166 127.633 92.6818 128.079 92.5299C128.965 92.1984 129.893 92.1754 130.715 92.3227C131.541 92.4746 132.253 92.8429 132.813 93.2757C133.943 94.1596 134.425 95.283 134.59 96.0426C134.76 96.8161 134.701 97.258 134.701 97.258V97.2719Z" fill="white"/>
<path d="M139.261 104.159C139.224 104.215 137.956 103.368 136.432 102.276C134.907 101.181 133.704 100.251 133.741 100.195C133.778 100.14 135.045 100.983 136.57 102.078C138.094 103.174 139.297 104.104 139.261 104.155V104.159Z" fill="white"/>
<path d="M106.345 95.8584H20.5417V100.803H106.345V95.8584Z" fill="#6B7665"/>
<path d="M136.625 109.578C136.625 109.578 136.896 109.555 137.419 109.528C137.681 109.528 138.007 109.468 138.388 109.408C138.774 109.366 139.21 109.237 139.706 109.109C140.68 108.805 141.864 108.312 143.072 107.414C143.224 107.304 143.375 107.189 143.527 107.069C143.674 106.945 143.816 106.807 143.967 106.668C144.275 106.406 144.551 106.093 144.84 105.771C145.138 105.458 145.373 105.076 145.657 104.716C145.777 104.518 145.896 104.321 146.02 104.118L146.204 103.814L146.36 103.487C146.815 102.626 147.113 101.632 147.324 100.578C147.366 100.311 147.407 100.039 147.448 99.7673C147.462 99.491 147.476 99.2102 147.49 98.9294C147.513 98.3677 147.508 97.7784 147.49 97.1891C147.457 94.8319 146.571 92.2537 144.73 90.1912C142.916 88.1287 140.101 86.6462 136.969 86.5679C133.837 86.5357 130.513 86.5679 127.032 86.5587C99.158 86.5679 60.658 86.5818 18.1308 86.5956C15.495 86.5956 12.905 87.5946 10.9626 89.3303C9.01556 91.0521 7.71601 93.4784 7.41752 96.0335C7.35323 96.3512 7.36241 96.6735 7.33945 96.9911C7.31649 97.3088 7.3119 97.6311 7.31649 97.9579C7.30731 98.6071 7.33486 99.2424 7.39456 99.8778C7.52314 101.148 7.91806 102.378 8.48288 103.506C9.62172 105.762 11.5412 107.585 13.8235 108.57C14.9623 109.063 16.1792 109.348 17.4053 109.431C18.016 109.477 18.636 109.468 19.2559 109.468C19.8758 109.468 20.4912 109.468 21.1065 109.468C23.5678 109.468 26.0062 109.468 28.4171 109.468C33.2388 109.468 37.964 109.468 42.5699 109.468C60.9978 109.477 77.5936 109.486 91.526 109.495C105.458 109.509 116.736 109.523 124.534 109.532C128.428 109.541 131.454 109.551 133.507 109.555C134.531 109.56 135.311 109.564 135.839 109.569C136.363 109.569 136.634 109.583 136.634 109.583C136.634 109.583 136.363 109.592 135.839 109.597C135.311 109.597 134.531 109.601 133.507 109.61C131.454 109.615 128.428 109.624 124.534 109.633C116.736 109.643 105.463 109.656 91.526 109.67C77.589 109.679 60.9933 109.684 42.5699 109.698C37.964 109.698 33.2433 109.698 28.4171 109.698C26.0062 109.698 23.5678 109.698 21.1065 109.698C20.4912 109.698 19.8758 109.698 19.2559 109.698C18.636 109.698 18.0206 109.707 17.3915 109.661C16.1425 109.578 14.898 109.283 13.7316 108.782C11.3988 107.773 9.43803 105.909 8.27165 103.607C7.69305 102.456 7.29353 101.199 7.16036 99.9008C7.10067 99.2516 7.07311 98.5979 7.0823 97.9533C7.0823 97.6311 7.0823 97.3042 7.10526 96.9773C7.12822 96.6504 7.11903 96.3236 7.18332 95.9967C7.49099 93.3863 8.8181 90.9048 10.8065 89.1461C12.7857 87.3736 15.4399 86.3562 18.1308 86.3516C60.6534 86.3654 99.1534 86.3792 127.032 86.3884C130.517 86.3976 133.833 86.3746 136.974 86.416C140.151 86.5035 142.999 88.0136 144.831 90.1037C146.686 92.1939 147.577 94.8089 147.604 97.1891C147.623 97.7876 147.623 98.3631 147.6 98.934C147.586 99.2194 147.568 99.5002 147.554 99.7811C147.513 100.057 147.471 100.329 147.43 100.601C147.219 101.664 146.911 102.668 146.447 103.533C146.392 103.644 146.342 103.754 146.286 103.86L146.098 104.169C145.974 104.371 145.85 104.574 145.731 104.772C145.446 105.135 145.207 105.518 144.904 105.831C144.615 106.153 144.335 106.466 144.023 106.728C143.871 106.862 143.729 107 143.577 107.129C143.421 107.244 143.265 107.359 143.118 107.474C141.901 108.367 140.707 108.86 139.724 109.155C139.224 109.279 138.788 109.408 138.402 109.445C138.016 109.504 137.695 109.555 137.428 109.555C136.9 109.578 136.634 109.583 136.634 109.583L136.625 109.578Z" fill="#44513C"/>
<path d="M81.6028 95.0311C81.1068 94.4483 81.0539 93.9551 82.176 93.8573C84.6477 93.6331 86.469 92.553 86.7536 91.9254C87.0423 91.2977 86.2576 90.6863 85.5868 91.0653C85.0461 91.371 83.9851 91.6034 83.1801 91.7501C82.5175 91.8683 81.8386 91.8805 81.1759 91.7786C80.5986 91.689 80.0945 91.5911 79.6432 91.4933C79.6432 91.4933 77.0292 90.9268 75.899 90.0464L70.366 95.9727L72.9597 98.9113C72.9597 98.9113 74.1997 100.77 76.4235 100.55C78.6513 100.33 81.6434 98.7279 81.6434 98.7279C82.05 98.1043 85.6316 100.322 86.7861 101.153C87.9244 101.972 88.7944 101.773 88.7497 100.978C88.7213 100.432 85.2494 97.8068 84.0867 97.012C83.4525 96.5759 82.2004 95.7444 81.6028 95.0434" fill="#FFBE9D"/>
<path d="M78.3504 100.179C78.3545 100.212 78.1919 100.285 77.9033 100.277C77.6187 100.273 77.2243 100.159 76.8747 99.8937C76.5251 99.6287 76.3096 99.2741 76.2283 99.0051C76.1429 98.732 76.1673 98.5527 76.1999 98.5486C76.2771 98.5323 76.4153 99.2008 77.0495 99.6654C77.6675 100.15 78.3504 100.097 78.3545 100.179H78.3504Z" fill="#EB996E"/>
<path d="M80.5417 99.3149C80.5417 99.3475 80.3831 99.4086 80.1108 99.3923C79.8384 99.376 79.4644 99.2619 79.1351 99.001C78.8058 98.7402 78.5984 98.4059 78.5171 98.1451C78.4318 97.8842 78.4521 97.7131 78.4846 97.709C78.5659 97.6886 78.7123 98.3204 79.3099 98.7728C79.8953 99.2415 80.5417 99.2293 80.5417 99.3108V99.3149Z" fill="#EB996E"/>
<path d="M86.5056 37.668C86.7374 42.5345 92.6566 49.1985 97.0594 50.2786C99.3726 50.8452 102.039 50.5802 103.873 52.1372C107.02 54.811 105.178 60.3541 107.3 63.9408C108.605 66.1459 111.195 67.226 112.662 69.321C115.102 72.8017 113.463 78.0596 110.138 80.6518C106.812 83.244 102.377 83.7372 98.2099 83.6312C89.0384 83.3948 79.6433 80.4725 73.0126 73.9511C69.8985 70.8902 57.7105 61.4342 61.9629 39.0293" fill="black"/>
<path d="M119.614 72.4877L84.7412 62.1065C81.8508 60.8756 79.6636 60.574 79.6636 60.574L67.8902 60.6514C66.2925 60.6514 64.7843 60.9979 63.3736 61.597L31.631 72.1697C29.2812 72.9156 27.6591 75.3285 27.6591 78.0797C27.6591 81.4708 30.0984 84.222 33.1067 84.222H47.7665C47.7259 84.3606 47.7015 84.438 47.7015 84.438L98.6855 84.6296C98.6855 84.6296 98.6855 84.6174 98.6855 84.6092L118.147 84.654C121.155 84.654 123.594 81.8784 123.594 78.4547C123.594 75.675 121.972 73.2376 119.622 72.4877H119.614Z" fill="#44513C"/>
<path d="M112.626 76.2662C112.626 76.2662 112.516 76.2662 112.309 76.2499C112.073 76.2213 111.776 76.1887 111.41 76.148C110.634 76.0501 109.504 75.9238 108.109 75.7893C105.32 75.5162 101.45 75.2757 97.1691 75.3287C92.8883 75.3898 89.0261 75.7322 86.2454 76.0746C84.8551 76.2458 83.7289 76.4007 82.9525 76.5189C82.5906 76.5678 82.2939 76.6126 82.0581 76.6452C81.8548 76.6697 81.745 76.6778 81.741 76.6697C81.741 76.6615 81.8426 76.633 82.0459 76.5881C82.2776 76.5392 82.5744 76.4822 82.9321 76.4088C83.7046 76.2539 84.8266 76.0705 86.217 75.8708C88.9977 75.4714 92.872 75.0964 97.1651 75.0393C101.454 74.9863 105.336 75.2594 108.129 75.5855C109.524 75.7444 110.65 75.9034 111.426 76.0379C111.788 76.099 112.085 76.152 112.317 76.1928C112.52 76.2295 112.626 76.258 112.626 76.2662Z" fill="#44513C"/>
<g opacity="0.6">
<path d="M104.442 67.7721C104.442 67.7721 104.414 67.8169 104.345 67.8903C104.263 67.9759 104.162 68.0818 104.036 68.2163C103.759 68.4976 103.353 68.9092 102.804 69.4146C102.251 69.92 101.56 70.5192 100.686 71.1265C99.8075 71.7215 98.7383 72.3411 97.4293 72.6835C96.1284 73.0503 94.5957 73.0136 93.0712 72.5979C91.5385 72.1862 90.0262 71.4077 88.4814 70.5681C86.9284 69.7407 85.3307 68.7829 83.5135 68.2326C81.7166 67.6376 79.6554 67.6539 77.8341 68.5261C76.0006 69.3535 74.4395 70.6211 72.7321 71.53C72.3093 71.7664 71.8621 71.9498 71.4311 72.1454C70.9839 72.3044 70.5449 72.4837 70.0936 72.5938C69.1992 72.8587 68.2927 72.9932 67.4064 73.0584C63.841 73.3152 60.6538 72.1536 58.4829 70.5966C57.3852 69.8141 56.5518 68.9255 55.7875 68.1959C55.0273 67.4623 54.328 66.8754 53.702 66.4841C52.4295 65.6975 51.5432 65.7341 51.5636 65.6812C51.5636 65.6812 51.7709 65.6812 52.1612 65.7504C52.5474 65.8197 53.1125 66.0072 53.7589 66.3863C54.4053 66.7694 55.1249 67.3482 55.8973 68.0737C56.6778 68.791 57.5153 69.6673 58.6008 70.4254C60.7514 71.9335 63.8898 73.0544 67.3861 72.7894C68.2561 72.7201 69.1423 72.5856 70.0164 72.3248C70.4595 72.2147 70.8864 72.0395 71.3254 71.8846C71.7482 71.6889 72.1832 71.5137 72.5979 71.2814C74.2728 70.3847 75.8339 69.113 77.7162 68.2612C79.5863 67.3604 81.7653 67.3441 83.5948 67.9596C85.4567 68.5302 87.0585 69.5002 88.6074 70.3317C90.1482 71.1795 91.6361 71.9539 93.1322 72.3655C94.6201 72.7813 96.104 72.8302 97.3764 72.4837C98.657 72.1658 99.7181 71.5667 100.592 70.992C101.466 70.4051 102.165 69.8181 102.726 69.329C103.288 68.8399 103.706 68.4405 103.995 68.1715C104.129 68.0451 104.235 67.9473 104.32 67.8658C104.393 67.7965 104.434 67.7639 104.438 67.768L104.442 67.7721Z" fill="white"/>
</g>
<g opacity="0.2">
<path d="M50.2505 76.1968L72.293 80.3623L69.7481 84.5196L69.0773 84.5319L50.2505 76.1968Z" fill="#44513C"/>
</g>
<g opacity="0.6">
<path d="M116.98 71.8277C116.98 71.8277 116.992 71.9459 116.992 72.166C116.988 72.3861 116.964 72.7162 116.894 73.1319C116.756 73.9593 116.419 75.1739 115.565 76.4374C114.728 77.6969 113.313 78.9767 111.402 79.6411C110.455 79.9753 109.398 80.1668 108.3 80.1261C107.202 80.0853 106.093 79.8326 104.991 79.5188C103.889 79.2049 102.828 78.8626 101.779 78.6506C100.734 78.4224 99.7019 78.3775 98.7343 78.4917C96.791 78.724 95.1486 79.5351 93.9819 80.444C92.7907 81.3407 92.063 82.3311 91.6199 83.0322C91.5142 83.2074 91.4207 83.3664 91.3353 83.509C91.2662 83.6476 91.2052 83.7658 91.1523 83.8718C91.0507 84.0674 90.9938 84.1693 90.9857 84.1652C90.9775 84.1652 91.0141 84.0511 91.0995 83.8473C91.1442 83.7373 91.1971 83.6109 91.258 83.4683C91.3394 83.3215 91.4247 83.1544 91.5223 82.9751C91.941 82.2496 92.6565 81.2184 93.8558 80.285C95.0307 79.3394 96.7016 78.4876 98.7018 78.2308C99.6978 78.1085 100.771 78.1493 101.836 78.3775C102.905 78.5895 103.975 78.9359 105.068 79.2457C106.162 79.5595 107.247 79.8041 108.308 79.8489C109.369 79.8897 110.394 79.7144 111.313 79.3924C113.17 78.7607 114.557 77.5379 115.394 76.3233C116.248 75.1006 116.61 73.9226 116.781 73.1116C116.947 72.2923 116.947 71.8236 116.976 71.8277H116.98Z" fill="white"/>
</g>
<path d="M31.6554 83.5129C31.6554 83.5129 71.5084 101.141 71.3011 100.742C71.0937 100.342 77.6268 88.7789 77.6268 88.7789L45.3395 72.7812L31.6554 83.5129Z" fill="#44513C"/>
<path d="M49.9496 75.0678C49.9496 75.0678 50.2505 75.1738 50.7708 75.4142C51.3319 75.6792 52.0718 76.0297 52.9621 76.4495C54.8078 77.334 57.3486 78.5771 60.1497 79.9629C62.9507 81.3487 65.4794 82.6203 67.3048 83.5537C68.1788 84.0102 68.9065 84.3852 69.4594 84.6705C69.9635 84.9395 70.24 85.0984 70.2319 85.1147C70.2237 85.1311 69.931 85.0088 69.4107 84.7683C68.8496 84.5034 68.1097 84.1529 67.2194 83.733C65.3737 82.8486 62.8288 81.6054 60.0277 80.2156C57.2267 78.8298 54.698 77.5581 52.8767 76.6248C52.0027 76.1683 51.275 75.7933 50.7221 75.508C50.218 75.239 49.9415 75.08 49.9496 75.0637V75.0678Z" fill="#44513C"/>
<g opacity="0.6">
<path d="M58.7024 80.4154C58.7024 80.4154 58.6821 80.8719 58.3325 81.6014C57.995 82.3269 57.2226 83.2807 55.9542 83.9817C55.3241 84.3282 54.576 84.6217 53.7426 84.7725C52.9052 84.9233 51.9904 84.9314 51.0473 84.8051C49.1528 84.5605 47.1973 83.7698 45.2338 82.8487C43.2702 81.9275 41.4001 81.039 39.5829 80.6151C38.6804 80.395 37.7941 80.2931 36.9729 80.3135C36.1476 80.3339 35.3874 80.4847 34.7207 80.6966C33.3791 81.1246 32.4481 81.846 31.9399 82.4452C31.4236 83.0402 31.2488 83.456 31.2163 83.4397C31.2163 83.4397 31.3505 83.0076 31.8546 82.3759C32.3465 81.7441 33.2897 80.9738 34.6556 80.5091C35.3386 80.2768 36.1151 80.1138 36.9648 80.0812C37.8144 80.0486 38.721 80.1504 39.6439 80.3665C41.5017 80.7863 43.3962 81.6789 45.3557 82.6C47.3112 83.5171 49.2341 84.3037 51.0839 84.5524C52.0026 84.6828 52.893 84.6828 53.702 84.5483C54.5151 84.4138 55.2428 84.1407 55.8607 83.8146C57.1047 83.1543 57.8771 82.2536 58.2349 81.5607C58.6048 80.8637 58.6699 80.4154 58.7024 80.4276V80.4154Z" fill="white"/>
</g>
<g opacity="0.6">
<path d="M75.6185 92.4963C75.6104 92.5493 74.7363 92.4026 73.3094 92.3781C72.5979 92.3618 71.7523 92.4026 70.8173 92.5045C69.8863 92.6227 68.87 92.8102 67.8252 93.0995C66.7844 93.4012 65.8209 93.7761 64.9631 94.1674C64.1134 94.5709 63.3736 94.9826 62.7759 95.3698C61.5767 96.136 60.9059 96.723 60.8733 96.6822C60.8611 96.6659 61.0197 96.511 61.3205 96.242C61.6173 95.9689 62.0767 95.6103 62.6662 95.1986C63.2557 94.7829 63.9996 94.3508 64.8534 93.9269C65.7152 93.5194 66.6909 93.1281 67.7479 92.8224C68.809 92.5248 69.8416 92.3455 70.7888 92.2395C71.7361 92.1499 72.5979 92.1295 73.3175 92.1743C74.0371 92.211 74.6143 92.2762 75.0087 92.3537C75.403 92.4229 75.6226 92.4719 75.6185 92.4922V92.4963Z" fill="white"/>
</g>
<g opacity="0.2">
<path d="M80.5335 60.5007C79.8749 62.3471 80.8628 64.3402 81.8222 66.052C82.489 67.2422 83.172 68.4486 84.1314 69.4146C85.0949 70.3806 86.3917 71.0938 87.7537 71.049C89.5424 70.9919 91.1442 69.6632 92.933 69.7692C94.1485 69.8385 95.2177 70.5599 96.2259 71.2447C97.974 72.4307 99.7669 73.5842 101.751 74.3138C103.735 75.0393 105.938 75.3164 107.959 74.705C109.979 74.0937 111.764 72.4959 112.256 70.4376" fill="#44513C"/>
</g>
<path d="M80.6839 59.9911C80.7774 57.8391 80.8912 55.8949 80.8912 55.8949C80.8912 55.8949 85.6843 55.2876 85.8917 50.3803C86.099 45.473 85.6112 34.1748 85.6112 34.1748L76.7852 29.9277L67.2885 37.5985L68.7764 60.1338C68.9919 63.3822 71.7563 65.8604 75.0005 65.7095C78.0821 65.5669 80.5498 63.0888 80.6798 59.9952L80.6839 59.9911Z" fill="#FFBE9D"/>
<path d="M84.7859 43.048C84.79 43.3945 84.5217 43.6798 84.1883 43.6839C83.8509 43.6879 83.5745 43.4149 83.5663 43.0684C83.5623 42.722 83.8306 42.4367 84.1639 42.4285C84.5014 42.4244 84.7778 42.6975 84.7859 43.044V43.048Z" fill="black"/>
<path d="M85.5199 41.3013C85.4473 41.3864 84.9689 41.0292 84.3115 41.0418C83.6536 41.0453 83.1865 41.414 83.1132 41.3294C83.0759 41.2899 83.1456 41.1355 83.3493 40.9687C83.5495 40.8038 83.8956 40.6385 84.3073 40.6331C84.719 40.6277 85.0707 40.7851 85.2731 40.9452C85.481 41.1066 85.5572 41.2604 85.5234 41.2992L85.5199 41.3013Z" fill="black"/>
<path d="M77.5088 43.0478C77.5129 43.3942 77.2446 43.6796 76.9112 43.6836C76.5738 43.6877 76.2974 43.4146 76.2892 43.0682C76.2852 42.7217 76.5535 42.4364 76.8868 42.4283C77.2243 42.4242 77.5007 42.6973 77.5088 43.0437V43.0478Z" fill="black"/>
<path d="M77.8652 40.7406C77.7967 40.878 77.0562 40.5537 76.1897 40.7784C75.3237 40.9863 74.822 41.6236 74.6956 41.5327C74.6347 41.4943 74.6813 41.2703 74.8976 40.9842C75.1088 40.7009 75.5138 40.3751 76.0549 40.2403C76.5959 40.1056 77.1048 40.2032 77.4268 40.3495C77.7526 40.4969 77.8998 40.6784 77.8652 40.7406Z" fill="black"/>
<path d="M80.5661 47.5274C80.5661 47.4866 80.9726 47.4296 81.6353 47.3644C81.8019 47.3521 81.9646 47.3236 81.993 47.2013C82.0337 47.0709 81.9686 46.8753 81.8873 46.6633C81.7369 46.2191 81.5783 45.7585 81.4117 45.2735C80.7531 43.2926 80.2774 41.6663 80.3547 41.6419C80.4278 41.6174 81.0214 43.1989 81.68 45.1797C81.8385 45.6688 81.9889 46.1335 82.1353 46.5777C82.1963 46.7856 82.302 47.022 82.2125 47.2869C82.1638 47.4214 82.0418 47.5111 81.932 47.5396C81.8223 47.5722 81.7288 47.5682 81.6475 47.5722C80.9807 47.5845 80.5661 47.5722 80.5661 47.5315V47.5274Z" fill="black"/>
<path d="M75.3634 47.3833C73.4411 46.2618 80.6574 50.1354 84.3692 49.8718C84.3692 49.8718 82.3262 53.4171 78.4765 52.0584C74.4765 50.6538 75.3747 47.3825 75.3747 47.3825L75.3634 47.3833Z" fill="white"/>
<path d="M80.8913 55.8909C80.8913 55.8909 77.6837 55.9846 74.5412 53.8081C74.5412 53.8081 76.0332 57.3826 80.806 57.0973L80.8873 55.8949L80.8913 55.8909Z" fill="#EB996E"/>
<path d="M62.1417 42.4285C62.1255 46.6755 61.0156 57.9045 68.7358 59.4614L68.4553 43.9977C68.4553 43.9977 75.9315 40.4639 77.1959 33.103L77.2406 33.1437C77.7203 34.2564 78.5741 36.6408 78.0537 38.585L85.0543 40.3131L85.8592 41.0509C85.8592 41.0509 88.3513 35.5729 83.542 30.6045C78.7326 25.636 74.6225 29.235 72.045 28.9252C70.3294 28.7174 64.3818 28.7581 61.9588 39.0252L62.1377 42.4244L62.1417 42.4285Z" fill="black"/>
<path d="M68.6504 44.1687C67.9959 43.7652 67.1056 44.0953 66.5893 44.666C65.7762 45.5586 65.6339 46.9973 66.2559 48.0326C66.882 49.0679 68.2195 49.6059 69.3862 49.2961" fill="#FFBE9D"/>
<path d="M68.5 47.8246C68.5 47.8613 68.2805 47.898 67.939 47.8043C67.6137 47.7187 67.1096 47.4578 66.9145 46.8954C66.821 46.6223 66.8373 46.3247 66.943 46.0965C67.0446 45.8642 67.2113 45.7093 67.3617 45.6074C67.6707 45.4077 67.9024 45.424 67.9065 45.4525C67.9186 45.4973 67.7154 45.5585 67.4837 45.7663C67.2519 45.9661 67.0283 46.3696 67.1828 46.8016C67.3292 47.2336 67.7194 47.4863 68.004 47.6127C68.2967 47.7431 68.5 47.7798 68.4959 47.8246H68.5Z" fill="#EB996E"/>
<path d="M67.8577 48.7909C67.504 48.8765 67.321 49.3656 67.5365 49.6632C67.752 49.9607 68.2723 49.9363 68.4634 49.6265C68.6545 49.3126 68.4309 48.8399 68.0731 48.7869" fill="black"/>
<path d="M82.0458 84.6545V76.5884C82.0458 76.5884 70.1017 79.0746 69.8822 84.5566L82.0458 84.6504V84.6545Z" fill="#FFBE9D"/>
<path d="M80.8059 59.1395C81.001 61.5973 82.1394 63.9653 83.9281 65.6527C85.721 67.3401 88.148 68.3306 90.6076 68.3713C92.3719 68.4039 94.2298 67.98 95.8397 68.7055C97.2382 69.3332 98.1407 70.6945 99.2424 71.7624C101.828 74.2691 105.845 75.182 109.26 74.0327C110.707 73.5476 113.004 72.5042 113.272 70.9962C113.475 69.8508 112.077 68.7096 111.256 67.8863C110.43 67.063 109.365 66.5372 108.312 66.044C99.8035 62.0375 90.6685 59.1232 81.2816 58.626" fill="#44513C"/>
<path d="M88.1208 104.888L106.251 150.007L113.816 138.176L124.289 151.5L136.779 139.989L124.876 128.87L135.862 121.67L88.1208 104.888Z" fill="#6B7665"/>
<path d="M81.2981 111.554C81.3989 111.705 78.4369 113.696 74.6862 115.998C70.9355 118.301 67.8175 120.052 67.7167 119.901C67.6158 119.749 70.5778 117.758 74.3285 115.456C78.0792 113.154 81.1972 111.403 81.2889 111.554H81.2981Z" fill="#6B7665"/>
<path d="M82.7103 102.47C82.6828 102.55 81.5639 102.274 79.7941 101.723C78.0242 101.172 75.6032 100.336 72.9804 99.3052C70.3485 98.2741 68.0101 97.2608 66.3319 96.4875C64.6537 95.723 63.6358 95.1986 63.6725 95.1186C63.7091 95.0386 64.7913 95.412 66.5153 96.0697C68.4686 96.8342 70.7337 97.723 73.228 98.7008C75.7316 99.6608 77.9967 100.532 79.9591 101.287C81.6832 101.945 82.7469 102.372 82.7103 102.461V102.47Z" fill="#6B7665"/>
<path d="M88.1758 81.9811C88.2675 81.9633 88.5243 82.9144 88.8361 84.4699C89.1479 86.0254 89.5147 88.1854 89.8265 90.5765C90.1383 92.9764 90.3309 95.1542 90.4226 96.7364C90.5143 98.3186 90.5051 99.2964 90.4226 99.3052C90.23 99.323 89.7898 95.4386 89.1754 90.6565C88.561 85.8743 88.0016 82.0077 88.185 81.9722L88.1758 81.9811Z" fill="#6B7665"/>
<path d="M113.275 92.0788C113.349 92.2566 109.992 93.661 106.214 96.0076C102.427 98.3543 99.4371 100.408 99.3179 100.248C99.2629 100.176 99.9506 99.5898 101.115 98.7009C102.289 97.8209 103.931 96.6387 105.856 95.4654C109.69 93.0832 113.22 91.9277 113.275 92.0788Z" fill="#6B7665"/>
</svg>
