<svg width="114" height="114" viewBox="0 0 114 114" fill="none" xmlns="http://www.w3.org/2000/svg">
<rect x="24.75" y="24.75" width="64.5" height="64.5" rx="2.25" fill="#44513C"/>
<rect x="24.75" y="24.75" width="64.5" height="64.5" rx="2.25" stroke="#C0D0B5" stroke-width="1.5"/>
<g clip-path="url(#clip0_17_3267)">
<path d="M52.41 48.41L57 43.83L61.59 48.41L63 47L57 41L51 47L52.41 48.41Z" fill="white"/>
</g>
<path d="M61.5858 75.9485C62.4549 74.9063 63.2766 73.922 64.0964 72.9363C65.1299 71.6921 66.1597 70.4452 67.1968 69.2038C67.7045 68.598 68.5535 68.6051 69.0757 69.2293C70.6332 71.092 72.1816 72.9589 73.7318 74.8258C75.0684 76.4343 76.4032 78.0457 77.7452 79.6528C77.9936 79.9507 78.1049 80.2501 77.8785 80.5778C77.6503 80.9082 77.2577 80.9986 76.8031 80.9986C71.0167 80.9972 65.2303 80.9972 59.444 80.9986C58.9491 80.9986 58.5639 80.8743 58.3155 80.517C58.2626 80.4408 58.0855 80.3843 57.9595 80.3758C57.6418 80.356 57.3222 80.3688 57.0027 80.3688C50.6393 80.3688 44.276 80.3688 37.9126 80.3688C37.6862 80.3688 37.4543 80.373 37.2334 80.3419C36.1707 80.188 35.6704 79.3562 36.2401 78.643C37.0617 77.6149 37.9199 76.6038 38.7653 75.587C42.0228 71.6667 45.2821 67.7478 48.5413 63.8276C48.6144 63.7386 48.6892 63.6496 48.7678 63.5635C49.4452 62.8164 50.6028 62.8037 51.2547 63.5607C52.0964 64.5365 52.9053 65.5307 53.7251 66.5178C56.2285 69.5286 58.7318 72.5409 61.237 75.5517C61.3338 75.6689 61.4379 75.7819 61.5858 75.9485ZM53.6594 70.5596C52.4178 69.0669 51.2346 67.6462 50.0149 66.1789C48.5596 67.9286 47.1482 69.6218 45.7495 71.3221C45.6984 71.3843 45.7185 71.5354 45.7842 71.5891C46.2352 71.9661 46.7063 72.3291 47.1902 72.7118C47.3362 72.6101 47.4367 72.5437 47.5316 72.4717C48.251 71.9167 48.9558 71.3504 49.699 70.8138C49.8852 70.6782 50.1883 70.5779 50.4421 70.5709C51.472 70.544 52.5018 70.5596 53.6594 70.5596ZM66.1506 75.6421C66.7221 75.1845 67.2297 74.799 67.7045 74.3909C67.9802 74.1536 68.2833 74.0548 68.6978 74.0717C69.3222 74.0957 69.9485 74.0788 70.6771 74.0788C69.7933 73.0196 68.979 72.0424 68.1244 71.0157C67.1019 72.2471 66.1269 73.4179 65.1664 74.5956C65.1189 74.6535 65.1555 74.7976 65.2212 74.8583C65.4933 75.1083 65.7891 75.3427 66.1506 75.6435V75.6421Z" fill="white"/>
<defs>
<clipPath id="clip0_17_3267">
<rect width="24" height="24" fill="white" transform="translate(45 33)"/>
</clipPath>
</defs>
</svg>
