<svg width="56" height="56" viewBox="0 0 56 56" fill="none" xmlns="http://www.w3.org/2000/svg">
<rect x="0.5" y="0.5" width="55" height="55" rx="3.5" fill="#44513C"/>
<rect x="0.5" y="0.5" width="55" height="55" rx="3.5" stroke="#C0D0B5"/>
<g clip-path="url(#clip0_167_2248)">
<path d="M23.41 23.41L28 18.83L32.59 23.41L34 22L28 16L22 22L23.41 23.41Z" fill="white"/>
</g>
<path d="M31.4941 43.5106C32.1563 42.5842 32.7824 41.7092 33.407 40.833C34.1944 39.7271 34.9791 38.6187 35.7692 37.5153C36.156 36.9768 36.8029 36.983 37.2008 37.5379C38.3875 39.1936 39.5672 40.8531 40.7483 42.5126C41.7666 43.9424 42.7836 45.3747 43.8061 46.8032C43.9953 47.0681 44.0802 47.3342 43.9077 47.6254C43.7338 47.9192 43.4347 47.9995 43.0883 47.9995C38.6796 47.9983 34.2709 47.9983 29.8623 47.9995C29.4853 47.9995 29.1917 47.889 29.0025 47.5715C28.9622 47.5037 28.8272 47.4535 28.7313 47.4459C28.4892 47.4284 28.2457 47.4397 28.0023 47.4397C23.154 47.4397 18.3057 47.4397 13.4574 47.4397C13.2849 47.4397 13.1083 47.4434 12.9399 47.4158C12.1303 47.279 11.7491 46.5396 12.1831 45.9057C12.8092 44.9918 13.463 44.093 14.1071 43.1892C16.589 39.7045 19.0723 36.2211 21.5555 32.7364C21.6112 32.6573 21.6682 32.5782 21.728 32.5016C22.2442 31.8376 23.1262 31.8263 23.6228 32.4991C24.2642 33.3665 24.8805 34.2503 25.5051 35.1277C27.4124 37.804 29.3197 40.4815 31.2284 43.1578C31.3022 43.262 31.3815 43.3624 31.4941 43.5106ZM25.455 38.7204C24.509 37.3935 23.6075 36.1307 22.6782 34.8264C21.5694 36.3817 20.4941 37.8868 19.4284 39.3982C19.3895 39.4535 19.4048 39.5878 19.4548 39.6355C19.7985 39.9706 20.1574 40.2933 20.5261 40.6334C20.6373 40.5431 20.7139 40.4841 20.7862 40.42C21.3343 39.9267 21.8713 39.4233 22.4375 38.9463C22.5794 38.8258 22.8104 38.7367 23.0037 38.7304C23.7884 38.7066 24.573 38.7204 25.455 38.7204ZM34.9721 43.2382C35.4075 42.8315 35.7943 42.4888 36.156 42.126C36.3661 41.9151 36.597 41.8272 36.9128 41.8423C37.3886 41.8636 37.8658 41.8486 38.4208 41.8486C37.7475 40.9071 37.127 40.0384 36.476 39.1258C35.6969 40.2204 34.954 41.2611 34.2223 42.308C34.1861 42.3595 34.2139 42.4875 34.264 42.5415C34.4713 42.7637 34.6966 42.9721 34.9721 43.2394V43.2382Z" fill="white"/>
<defs>
<clipPath id="clip0_167_2248">
<rect width="24" height="24" fill="white" transform="translate(16 8)"/>
</clipPath>
</defs>
</svg>
