<svg width="60" height="48" viewBox="0 0 60 48" fill="none" xmlns="http://www.w3.org/2000/svg">
<path d="M59.5241 43.3781L32.5241 1.37812C31.9719 0.519375 31.0212 0 30.0003 0C28.9794 0 28.0287 0.519375 27.4766 1.37812L0.47656 43.3781C0.185179 43.8313 0.0212267 44.3546 0.00192591 44.8931C-0.0173749 45.4315 0.108688 45.9652 0.366872 46.4381C0.625136 46.9109 1.00596 47.3055 1.46934 47.5803C1.93272 47.8551 2.46156 48.0001 3.00031 48H57.0003C58.0981 48 59.1078 47.4009 59.6337 46.4372C59.8919 45.9645 60.018 45.4309 59.9987 44.8926C59.9794 44.3543 59.8155 43.8311 59.5241 43.3781ZM30.0003 8.54813L38.0056 21H30.0003L24.0003 27L20.4322 23.4319L30.0003 8.54813Z" fill="#44513C"/>
</svg>
